<?xml version="1.0" encoding="UTF-8" standalone="no"?>
<!-- Generator: Adobe Illustrator 16.0.0, SVG Export Plug-In . SVG Version: 6.00 Build 0)  -->

<svg
   xmlns:dc="http://purl.org/dc/elements/1.1/"
   xmlns:cc="http://creativecommons.org/ns#"
   xmlns:rdf="http://www.w3.org/1999/02/22-rdf-syntax-ns#"
   xmlns:svg="http://www.w3.org/2000/svg"
   xmlns="http://www.w3.org/2000/svg"
   xmlns:sodipodi="http://sodipodi.sourceforge.net/DTD/sodipodi-0.dtd"
   xmlns:inkscape="http://www.inkscape.org/namespaces/inkscape"
   version="1.1"
   id="Layer_1"
   x="0px"
   y="0px"
   width="2000px"
   height="2000px"
   viewBox="0 0 2000 2000"
   enable-background="new 0 0 2000 2000"
   xml:space="preserve"
   sodipodi:docname="cafebg.svg"
   inkscape:version="0.92.4 (5da689c313, 2019-01-14)"><metadata
   id="metadata17"><rdf:RDF><cc:Work
       rdf:about=""><dc:format>image/svg+xml</dc:format><dc:type
         rdf:resource="http://purl.org/dc/dcmitype/StillImage" /></cc:Work></rdf:RDF></metadata><defs
   id="defs15" /><sodipodi:namedview
   pagecolor="#ffffff"
   bordercolor="#666666"
   borderopacity="1"
   objecttolerance="10"
   gridtolerance="10"
   guidetolerance="10"
   inkscape:pageopacity="0"
   inkscape:pageshadow="2"
   inkscape:window-width="1920"
   inkscape:window-height="1049"
   id="namedview13"
   showgrid="false"
   inkscape:zoom="0.3337544"
   inkscape:cx="524.0718"
   inkscape:cy="1128.4265"
   inkscape:window-x="0"
   inkscape:window-y="392"
   inkscape:window-maximized="1"
   inkscape:current-layer="Layer_1" />
<rect
   x="-16.261"
   y="-16.348"
   display="none"
   fill="#C49A6C"
   width="2054.348"
   height="2056.521"
   id="rect2" />
<path
   d="m 1016.5555,204.6154 c -7.3399,-28.25007 -45.66373,-63.1846 -71.29243,-76.29112 -25.62609,-13.1065 -64.80471,-45.230467 -110.31785,-29.213887 -54.13736,19.053517 -100.6416,25.638487 -122.44987,31.867777 -21.80699,6.2293 -51.44424,16.64709 -79.30164,24.27422 -78.63486,0.59818 -123.18284,-11.20253 -177.76644,-6.76778 2.59582,-4.88369 -7.99502,-97.977384 -7.02597,-136.059494 0.27891,-10.9650099 -44.42993,-4.0044699 -72.56886,2.49966 -28.13891,6.5029 -63.70984,22.16754 -65.45984,25.83124 -2.97852,6.23924 15.03137,30.166477 28.08054,59.857914 10.21593,23.24451 26.84553,64.81625 30.44154,69.15647 -58.28468,23.88746 -129.21898,65.28758 -143.35525,71.37012 -17.9126,7.70797 -160.357184,72.73934 -181.222334,83.50785 -20.863881,10.7685 -37.2444019,38.37811 -24.671339,39.04097 21.064949,1.1093 35.836869,5.35626 43.818929,12.43246 19.8014,17.55121 58.746524,55.13092 68.747114,66.17427 9.76968,10.78964 89.56816,81.26062 111.62812,113.35225 2.19886,3.19859 42.61636,111.88226 51.56228,126.04214 7.21277,11.41518 15.42703,7.14334 17.97096,17.25896 2.54393,10.1156 17.16798,81.99433 20.91705,83.17586 4.93869,1.55567 10.92426,2.49091 17.75565,2.91367 5.18386,5.46706 11.08121,10.98753 9.80988,22.82551 -2.22999,20.73615 -17.65055,11.21613 -16.78657,29.45132 0.93144,19.66795 28.30496,391.28772 40.14508,408.77052 15.33234,22.6363 64.38312,12.7869 77.41672,11.8405 64.65036,-4.7033 238.49516,-43.227 279.53145,-52.7109 41.03761,-9.4838 123.08425,-30.7285 150.4448,-43.0938 22.94599,-10.3706 56.16365,-33.1972 57.74505,-46.6457 1.5813,-13.4485 -158.04028,-374.06862 -161.19262,-381.66458 -3.15105,-7.59852 -27.30737,-2.92865 -31.90487,-13.75821 -2.80209,-6.59986 -3.84639,-16.04018 -3.99556,-26.63085 10.21334,-4.48076 16.59587,-8.28623 17.47542,-10.97494 4.20832,-12.86525 -17.0642,-69.4251 -18.48081,-84.56493 -0.45404,-4.85508 6.8236,-15.3214 7.57862,-22.92862 1.05208,-10.61803 -9.4804,-93.48416 -16.02509,-157.44976 -0.81468,-7.96664 -6.75615,-84.25776 -9.75282,-105.3794 4.90236,-4.80659 34.18804,-21.62904 37.88265,-23.98943 30.43248,-19.43779 46.85582,-37.36581 68.91316,-61.94222 17.99952,-20.05712 38.8115,-28.78359 51.66606,-26.99651 12.85588,1.78583 30.33908,26.93805 33.7885,50.52206 1.90049,13.00453 -21.14149,79.45365 -28.84073,125.13927 -7.71352,45.78885 0.9924,104.69914 -8.74874,130.46819 -15.27397,40.40024 -59.82843,50.69741 -59.93351,62.61503 -0.0805,9.24879 55.27763,47.63313 71.28066,44.18208 10.59345,-2.28453 51.48578,-108.67622 67.37588,-144.01866 28.641,-63.70693 49.51913,-170.62468 52.61313,-195.31551 2.2028,-17.56241 5.3966,-33.9558 -3.4961,-68.17401 z"
   id="path4"
   style="opacity:1;fill:#ab6969;fill-opacity:0.05263157;stroke-width:1.27015805"
   inkscape:connector-curvature="0" />
<path
   d="m 566.30295,1437.5693 c -7.5816,-32.88 -88.8876,-67.7906 -167.5448,-87.8932 -63.0616,-16.1167 -142.795,-32.7438 -194.4528,-10.219 -10.8457,4.729 -11.2743,19.2445 -14.7841,29.3082 -8.7617,-7.653 -60.4375,-22.6248 -71.4889,-24.8516 -3.9956,-0.8049 -48.990897,11.6229 -63.072097,19.894 -11.8953,6.9883 -28.0243,96.1997 -35.8573,147.024 -7.834001,50.8253 -20.4522,98.1665 -4.574701,130.0683 15.877601,31.8999 74.935901,83.9844 70.392701,97.5855 -5.2681,23.7182 -20.4608,80.0221 -17.9368,88.4057 16.229,53.8903 60.568997,76.778 83.163297,89.8181 22.5952,13.0383 143.196,48.8632 186.9026,53.055 43.7085,4.1909 129.6406,2.3336 152.0501,-43.8066 11.2191,-23.1 92.9175,-382.5984 99.6942,-407.7292 6.1529,-22.8152 10.0752,-12.0524 17.0034,-20.6027 10.1161,-12.4887 -36.9108,-48.8527 -39.4948,-60.0565 z m -388.0255,-35.8888 c -6.4558,35.1649 -56.9315,216.468 -77.4704,282.1366 -7.956896,-3.8613 -47.704997,-52.157 -53.632197,-70.7195 -5.9272,-18.5645 37.8261,-245.5153 47.090701,-246.6906 6.158596,2.1602 86.632096,24.7545 84.011896,35.2735 z"
   id="path6"
   style="opacity:1;fill:#ab6968;fill-opacity:0.05263157;stroke-width:0.95246226"
   inkscape:connector-curvature="0" />
<path
   d="m 1838.0435,531.86047 v 0 c 8.9296,-29.11503 6.6814,-74.7204 4.4445,-101.66446 -4.9766,-59.93388 -132.2512,-98.28618 -284.2767,-85.66136 -143.0839,11.88189 -257.0825,64.68674 -265.8495,120.82698 -0.4207,0.64418 -0.79,1.38855 -1.0973,2.24709 -5.8702,16.38521 -26.1265,11.00781 -35.1168,11.27986 -8.9911,0.27074 -45.3084,-2.911 -70.4948,32.98418 -25.1863,35.89578 -26.6911,78.83822 2.7171,114.14403 8.838,10.60895 18.2794,18.10095 27.3071,23.59817 -22.6844,26.85458 -34.2232,55.71034 -31.796,84.94591 8.8008,105.99375 197.7834,176.8183 422.1044,158.19034 224.3235,-18.62882 399.0371,-119.65692 390.2365,-225.65067 -4.9168,-59.21133 -66.0616,-107.44301 -158.1785,-135.24007 z m -585.8976,82.1068 c -26.9549,-5.84622 -45.9095,-23.80255 -47.9535,-48.42208 -2.0439,-24.61942 30.0207,-34.35009 33.1119,-35.42636 18.4331,-6.41428 32.45,-2.69472 43.4046,0.33972 10.9553,3.03302 19.6129,8.95957 25.8671,26.58387 2.5762,7.25801 3.3345,14.70847 5.5567,20.77098 -23.0501,11.75291 -45.7495,26.70791 -59.9868,36.15387 z"
   id="path8"
   style="opacity:1;fill:#ab6969;fill-opacity:0.05263157;stroke-width:0.70482719"
   inkscape:connector-curvature="0" />
<path
   d="m 1927.4431,1482.1513 c -37.6148,-39.999 -153.8585,-86.5737 -265.0711,-95.2745 -23.3872,-81.498 -65.5091,-143.6954 -124.8144,-175.5457 1.0414,-4.5278 2.4331,-9.188 4.2218,-13.8892 0.7757,-2.035 1.6098,-3.9994 2.4765,-5.9237 16.779,-2.6252 31.7214,-13.9142 38.1951,-30.923 9.6076,-25.2432 -3.0666,-53.4922 -28.3098,-63.0987 -25.2431,-9.6065 -53.4922,3.0677 -63.1008,28.3109 -5.6678,14.8903 -3.5754,30.8253 4.2728,43.3649 -1.0056,4.0884 -2.2867,8.2744 -3.8931,12.4952 -1.4633,3.8444 -3.1079,7.4891 -4.877,10.9223 -119.126,-25.6283 -261.7084,59.9694 -377.285,213.998 -46.7819,62.3448 -90.3137,131.798 -124.89657,213.7246 0,0 -35.7903,-6.3273 -66.8508,-28.0277 -26.1013,-18.2345 -55.0922,-48.7442 -62.1095,-68.8826 -13.7472,-39.4632 -13.6625,-97.6283 1.1194,-196.8979 30.7234,-206.3288 7.9502,-260.2158 -27.1524,-307.167 0,0 -36.40533,-14.873 -67.89663,-16.7962 89.28133,94.7017 72.31813,146.0613 41.5947,352.3901 -14.7818,99.2706 -4.2999,170.8434 22.79283,208.2868 27.0926,37.4433 47.4655,61.99 143.2302,102.3133 l 0.016,0.013 c -11.1675,29.5887 -20.9313,59.1166 -29.3089,88.4027 87.48167,52.6472 192.47217,103.6638 308.27537,147.7381 115.8055,44.0744 228.1452,75.7707 328.4952,94.6106 12.1731,-25.2822 23.6052,-51.4952 34.1923,-78.5477 110.091,-1.0913 253.9069,-60.5635 310.1543,-139.2391 118.0759,-165.1538 56.1932,-243.5378 6.5292,-296.3542 z m -87.6,291.2701 c -49.3928,43.2161 -108.939,70.4097 -197.168,51.0068 20.2479,-68.8151 32.909,-136.3776 38.2622,-200.2649 5.1276,-61.1885 3.5722,-119.0023 -4.3552,-171.3272 51.1947,-0.1181 103.8636,9.2192 144.6696,25.7215 38.528,15.5813 87.9784,57.3853 101.4509,98.366 13.4759,40.9786 -22.7221,143.882 -82.8595,196.4978 z"
   id="path10"
   style="opacity:1;fill:#ab6969;fill-opacity:0.05263157;stroke-width:1.08474755"
   inkscape:connector-curvature="0" />
</svg>