<?xml version="1.0" encoding="UTF-8" standalone="no"?>
<!-- Created with Inkscape (http://www.inkscape.org/) -->

<svg
   xmlns:dc="http://purl.org/dc/elements/1.1/"
   xmlns:cc="http://creativecommons.org/ns#"
   xmlns:rdf="http://www.w3.org/1999/02/22-rdf-syntax-ns#"
   xmlns:svg="http://www.w3.org/2000/svg"
   xmlns="http://www.w3.org/2000/svg"
   xmlns:sodipodi="http://sodipodi.sourceforge.net/DTD/sodipodi-0.dtd"
   xmlns:inkscape="http://www.inkscape.org/namespaces/inkscape"
   width="223.8884mm"
   height="41.652466mm"
   viewBox="0 0 223.8884 41.652466"
   version="1.1"
   id="svg8"
   inkscape:version="0.92.4 (5da689c313, 2019-01-14)"
   sodipodi:docname="tophatcafe.svg">
  <defs
     id="defs2" />
  <sodipodi:namedview
     id="base"
     pagecolor="#ffffff"
     bordercolor="#666666"
     borderopacity="1.0"
     inkscape:pageopacity="0.0"
     inkscape:pageshadow="2"
     inkscape:zoom="0.66"
     inkscape:cx="14.910013"
     inkscape:cy="55.849489"
     inkscape:document-units="mm"
     inkscape:current-layer="layer1"
     showgrid="false"
     fit-margin-top="0"
     fit-margin-left="0"
     fit-margin-right="0"
     fit-margin-bottom="0"
     inkscape:window-width="1920"
     inkscape:window-height="1049"
     inkscape:window-x="0"
     inkscape:window-y="0"
     inkscape:window-maximized="1" />
  <metadata
     id="metadata5">
    <rdf:RDF>
      <cc:Work
         rdf:about="">
        <dc:format>image/svg+xml</dc:format>
        <dc:type
           rdf:resource="http://purl.org/dc/dcmitype/StillImage" />
        <dc:title></dc:title>
      </cc:Work>
    </rdf:RDF>
  </metadata>
  <g
     inkscape:label="Layer 1"
     inkscape:groupmode="layer"
     id="layer1"
     transform="translate(4.6264435,-124.98152)"
     style="display:inline">
    <path
       style="display:inline;fill:#000000;stroke-width:0.08466667"
       d="m 35.860295,166.46602 c -0.443783,-0.27057 -0.563838,-0.6636 -0.449637,-1.47199 0.106582,-0.75447 1.947452,-8.21168 2.509295,-10.16495 1.019818,-3.54544 2.087818,-6.8939 2.849803,-8.93489 0.537057,-1.43852 1.154169,-2.92157 1.366479,-3.28393 0.183572,-0.31332 0.533251,-0.52607 0.864631,-0.52607 0.281378,0 0.702056,0.41032 0.770249,0.75128 l 0.05086,0.25428 0.604293,-0.52633 c 1.284412,-1.1187 2.454179,-1.81954 3.772211,-2.26004 0.929382,-0.3106 2.066538,-0.41663 2.794353,-0.26055 1.797702,0.38554 3.193673,1.93954 3.697158,4.11569 0.169755,0.73371 0.119367,2.79676 -0.09202,3.76767 -0.721743,3.31494 -2.829244,6.7424 -5.333338,8.67367 -1.79394,1.38357 -4.317054,2.6424 -5.956037,2.97157 -1.249505,0.25095 -2.479723,-0.07 -3.260232,-0.85048 l -0.3699,-0.3699 -0.859779,3.39828 c -0.93117,3.68045 -1.170258,4.3424 -1.695808,4.69511 -0.364237,0.24446 -0.882486,0.25331 -1.262575,0.0216 z m 7.524376,-9.31864 c 1.576262,-0.49748 4.405505,-2.11669 5.595686,-3.20249 2.140601,-1.95286 3.811312,-5.57547 3.811312,-8.26408 0,-1.65679 -0.628624,-2.95634 -1.7194,-3.55448 -0.921988,-0.5056 -2.334324,-0.28576 -3.763381,0.58578 -1.687156,1.02895 -2.623632,1.97495 -3.507002,3.5427 -0.294942,0.52344 -0.689314,1.09995 -0.876381,1.28112 -0.318713,0.30868 -0.371185,0.43392 -0.833595,1.98967 -0.432722,1.45586 -0.993919,3.43193 -1.631909,5.74622 l -0.192779,0.69931 0.422201,0.55771 c 0.700523,0.92537 1.292554,1.06124 2.695248,0.61854 z m 35.156831,3.73624 c -0.406561,-0.2479 -0.564165,-0.61633 -0.499393,-1.16743 0.06521,-0.55487 0.506242,-1.94134 1.124465,-3.535 0.880145,-2.26885 1.716516,-4.50018 2.443659,-6.51934 1.136964,-3.15716 2.364783,-6.39234 3.792373,-9.99249 1.870989,-4.71835 3.13364,-8.26239 4.620074,-12.96771 0.473464,-1.49874 0.622494,-1.72013 1.157909,-1.72013 0.576961,0 0.934729,0.6181 0.83312,1.43933 -0.299593,2.42135 -1.744912,7.23018 -3.778868,12.573 -0.460908,1.21074 -1.099058,2.90619 -1.41809,3.76767 -0.319041,0.86148 -0.62374,1.68063 -0.677105,1.82033 -0.07844,0.20534 0.03765,0.12221 0.605942,-0.43387 1.235609,-1.20907 2.886236,-2.29687 3.956838,-2.60764 1.508235,-0.4378 2.999571,0.1177 3.754467,1.39849 0.530471,0.90001 0.759155,1.74301 0.755803,2.78602 -0.0043,1.3457 -0.278384,2.40458 -1.347631,5.207 -1.357283,3.55738 -1.819038,5.21617 -1.834312,6.58956 -0.01156,1.03951 0.0207,1.09887 0.653779,1.20323 0.193616,0.0319 0.398534,0.0956 0.45538,0.14143 0.05685,0.0459 0.23738,0.0872 0.401193,0.0918 0.295275,0.008 0.296468,0.01 0.139378,0.18219 -0.08715,0.0956 -0.222462,0.30032 -0.300694,0.45503 -0.178452,0.35289 -1.018252,0.77688 -1.538969,0.77698 -0.793945,1.7e-4 -1.665673,-0.66337 -1.982461,-1.50896 -0.140742,-0.37567 -0.180645,-0.6748 -0.182703,-1.36964 -0.0051,-1.71484 0.55074,-3.82154 1.898777,-7.19667 1.439342,-3.60375 1.626295,-4.54943 1.150663,-5.82066 -0.209305,-0.55943 -0.511209,-0.92465 -0.820496,-0.99258 -0.289061,-0.0635 -1.014671,0.19353 -1.741704,0.61693 -1.440891,0.83912 -2.769066,2.1284 -4.240445,4.11625 -0.511074,0.69047 -1.197966,1.58383 -1.526422,1.98524 -0.589619,0.72056 -0.607178,0.75669 -1.383716,2.84649 -0.432587,1.16417 -1.101149,2.91677 -1.485705,3.89467 -0.384548,0.9779 -0.840105,2.14676 -1.012351,2.59746 -0.172237,0.45071 -0.390821,0.91819 -0.485741,1.03886 -0.371946,0.47285 -0.999706,0.60123 -1.487014,0.30411 z m 83.763918,-0.54522 c -1.15457,-0.43135 -1.83186,-1.51407 -1.83186,-2.92842 0,-3.60192 3.56234,-11.34902 7.18526,-15.62597 1.02952,-1.21537 1.93901,-1.82209 2.8277,-1.88637 0.86013,-0.0622 1.53773,0.25668 1.94748,0.91655 0.59725,0.96186 0.55039,2.84434 -0.12121,4.86833 -0.65076,1.96117 -1.50076,2.75254 -2.2654,2.10914 -0.2362,-0.19874 -0.2605,-0.26538 -0.2605,-0.71427 0,-0.2723 0.0959,-0.88803 0.21312,-1.36831 0.27814,-1.13967 0.46346,-2.28222 0.46388,-2.86 v -0.46277 l -0.47097,0.46277 c -0.25903,0.25453 -0.74804,0.82472 -1.08669,1.26711 -1.98582,2.59411 -3.69034,5.7192 -4.89506,8.97466 -1.22811,3.31867 -1.49915,5.21307 -0.76102,5.31899 0.54368,0.078 2.36931,-0.83234 4.4785,-2.23322 0.80067,-0.53178 1.6077,-1.04607 1.7934,-1.14286 0.1857,-0.0968 0.383,-0.23065 0.43844,-0.29745 0.0554,-0.0668 0.14014,-0.12146 0.18822,-0.12146 0.0481,0 0.0308,0.0667 -0.0384,0.14817 -0.0692,0.0815 -0.3102,0.47202 -0.53559,0.86783 -1.01973,1.79084 -3.30276,3.80674 -5.14411,4.54224 -0.66286,0.26478 -1.65318,0.34179 -2.12556,0.16531 z m -55.23484,-0.21383 c -0.4627,-0.117 -0.97556,-0.57241 -1.2467,-1.10705 -0.44093,-0.86946 -0.62694,-2.54444 -0.46071,-4.14867 0.19109,-1.8441 0.50303,-3.33559 1.55739,-7.44631 l 0.6395,-2.49332 -0.2321,-0.45874 c -0.12765,-0.25231 -0.27706,-0.47599 -0.33201,-0.49708 -0.1628,-0.0625 -0.95653,0.30724 -1.68852,0.78649 -2.06174,1.34987 -3.91993,4.51046 -4.61784,7.85442 -0.25397,1.21689 -0.31774,3.44165 -0.12029,4.1968 0.30308,1.15916 0.62329,1.46918 1.52659,1.47804 0.40664,0.004 0.63123,-0.0524 1.12562,-0.2826 0.33969,-0.15817 0.64449,-0.3297 0.67733,-0.38117 0.0798,-0.12512 0.43152,-0.34437 0.79805,-0.49751 l 0.29867,-0.12479 -0.0867,0.26639 c -0.20675,0.63523 -0.27861,0.77784 -0.59867,1.18788 -0.4633,0.59355 -0.77882,0.86756 -1.28305,1.11426 -0.63552,0.31092 -1.37525,0.41969 -2.01603,0.29641 -1.453981,-0.27971 -2.151965,-0.9989 -2.616218,-2.69565 -0.147514,-0.53915 -0.178198,-0.88788 -0.176631,-2.00718 0.0068,-4.84511 2.436779,-9.98722 5.774809,-12.21999 2.14093,-1.43205 3.56195,-1.65031 4.56909,-0.70179 0.25246,0.23776 0.40993,0.31693 0.64357,0.32356 0.53787,0.0152 0.89116,0.49353 0.89116,1.20649 0,0.38404 -0.5072,3.21733 -0.93286,5.21106 -0.93885,4.39743 -1.17745,5.96095 -1.13697,7.45067 0.0139,0.51223 0.0594,1.0455 0.10107,1.18503 0.0678,0.22706 0.12244,0.26041 0.52007,0.31764 0.24434,0.0352 0.6251,0.14172 0.8461,0.2368 0.37828,0.16273 0.40049,0.19002 0.37879,0.46552 -0.0663,0.84116 -0.89851,1.48538 -1.97753,1.53071 -0.30268,0.0127 -0.67392,-0.008 -0.82498,-0.0463 z m 12.63598,-1.7e-4 c -0.50692,-0.0858 -0.93147,-0.41236 -1.26261,-0.9713 -0.66982,-1.13064 -0.76206,-2.92823 -0.28934,-5.63888 0.30069,-1.72418 0.61913,-2.96678 1.48626,-5.79967 0.62987,-2.05775 0.65522,-2.14845 0.61164,-2.18879 -0.0209,-0.0193 -0.6285,-0.0794 -1.35028,-0.13342 -2.31502,-0.17341 -3.24937,-0.42637 -3.52197,-0.95351 -0.28812,-0.55716 0.0161,-1.16838 0.67065,-1.34755 0.20157,-0.0552 1.40657,-0.11957 2.80224,-0.14976 l 2.44859,-0.053 0.92457,-2.20133 c 1.89449,-4.51064 3.06701,-7.51371 3.78505,-9.69434 0.40635,-1.23401 0.81742,-2.3973 0.9135,-2.58508 0.30744,-0.60088 0.87019,-0.71129 1.1838,-0.23227 0.25954,0.39644 0.2024,1.85816 -0.12338,3.15602 -0.48536,1.93362 -2.05306,6.43729 -3.64716,10.4775 l -0.50944,1.29117 1.62195,-1.7e-4 c 4.75308,-4.3e-4 7.3903,0.0544 7.71126,0.16044 0.35888,0.11856 0.811,0.5142 0.811,0.70968 0,0.2408 -0.39014,0.68424 -0.8088,0.91931 -0.48259,0.27096 -1.33717,0.49989 -2.70486,0.72459 -0.78673,0.12925 -1.45048,0.15302 -4.275,0.15307 l -3.34367,6e-5 -0.19676,0.55034 c -0.75441,2.11005 -1.83899,6.16481 -2.14016,8.001 -0.19331,1.17864 -0.2562,3.02786 -0.11163,3.28242 0.0786,0.13833 0.11468,0.13013 0.47329,-0.1074 0.21353,-0.14144 0.87319,-0.71443 1.46593,-1.27331 0.91623,-0.86393 1.77989,-1.63187 2.11532,-1.88091 0.42753,-0.31742 0.98539,-0.67583 1.22901,-0.78962 0.16298,-0.0761 0.3268,-0.19146 0.36404,-0.25629 0.0372,-0.0648 0.1083,-0.11789 0.1579,-0.11789 0.0512,0 0.0311,0.0901 -0.0465,0.20869 -0.0752,0.11477 -0.13673,0.26482 -0.13673,0.33343 0,0.0686 -0.10153,0.44143 -0.22561,0.82848 -0.26619,0.83033 -0.81618,1.75294 -1.70655,2.86273 -1.26514,1.57693 -2.21437,2.33936 -3.31138,2.65971 -0.48857,0.14268 -0.53594,0.14516 -1.06413,0.0558 z M 4.9832231,159.91599 c -0.046567,-0.0172 -0.2561167,-0.0826 -0.4656667,-0.14544 -0.5952778,-0.17847 -1.0598223,-0.47215 -1.5704913,-0.99287 -1.3756844,-1.4028 -1.7767187,-3.8824 -1.214153,-7.50716 0.2661972,-1.71518 1.2139157,-5.9895 1.6273551,-7.33956 0.087742,-0.28652 0.094857,-0.4056 0.025584,-0.42817 -0.052779,-0.0172 -0.6484111,-0.0399 -1.3236278,-0.0505 -3.3893045,-0.0531 -5.4822564,-0.50794 -6.4135002,-1.3936 -0.2123558,-0.20196 -0.2751667,-0.33222 -0.2751667,-0.57064 0,-0.62237 0.4961355,-0.79627 1.7451365,-0.61166 0.9046198,0.13371 5.5672288,0.21918 6.5483844,0.12004 l 0.5465209,-0.0552 0.3672519,-1.22767 c 0.737257,-2.46454 4.0301334,-12.51474 4.2230083,-12.88907 0.2798886,-0.5432 1.0229292,-0.61639 1.4235945,-0.14022 0.534292,0.63497 0.175187,2.52564 -1.517892,7.99162 -0.9394969,3.0331 -1.8213375,5.99948 -1.8213375,6.12671 0,0.0772 0.2665646,0.0916 1.0795,0.0582 0.5937251,-0.0244 1.6700501,-0.0638 2.3918335,-0.0875 0.721783,-0.0237 2.036233,-0.0719 2.921,-0.10694 0.884766,-0.0351 2.713566,-0.0638 4.064,-0.0638 2.741203,0 3.04226,0.0434 3.614104,0.52118 0.186405,0.15573 0.401987,0.28573 0.479073,0.28888 0.113292,0.005 0.1077,0.0221 -0.02918,0.091 -0.09313,0.0469 -0.246004,0.20574 -0.339712,0.35303 -0.600067,0.94312 -2.1842,1.1574 -11.3442881,1.53445 -0.6053667,0.0249 -1.6562231,0.0459 -2.3352354,0.0466 l -1.2345696,0.001 -0.088523,0.35984 c -0.048688,0.19791 -0.2660312,1.05854 -0.4829861,1.91252 -0.4807323,1.89226 -1.099224,4.95109 -1.27476,6.30448 -0.1522629,1.17396 -0.1695111,2.99536 -0.034395,3.63216 0.1148588,0.54133 0.4086742,1.14416 0.679588,1.39432 0.6270304,0.57899 2.0087777,0.15787 3.7632658,-1.14694 0.7054089,-0.52461 1.8395384,-1.61125 3.9142364,-3.75035 0.481041,-0.49597 0.995391,-0.95059 1.143,-1.01026 0.147609,-0.0597 0.28743,-0.13182 0.310713,-0.16035 0.02328,-0.0285 0.194733,-0.12593 0.381,-0.21647 l 0.338667,-0.16461 0.02372,0.80433 c 0.02222,0.75333 0.0059,0.84475 -0.258134,1.44162 -0.880139,1.99002 -3.356519,4.68453 -5.5229212,6.0094 -1.1609824,0.71 -2.0563883,1.0093 -3.1750001,1.06127 -0.4423834,0.0206 -0.8424334,0.0233 -0.889,0.006 z M 183.95664,159.6707 c -0.48726,-0.32946 -0.90777,-1.07693 -1.05813,-1.88082 -0.14469,-0.77363 -0.14578,-0.77561 -0.2998,-0.54378 -0.27632,0.41588 -1.09991,1.20872 -1.58997,1.53061 -1.74406,1.14555 -3.44877,0.69895 -4.34723,-1.1389 -0.36448,-0.74556 -0.47514,-1.42062 -0.41247,-2.51602 0.21981,-3.8417 2.91592,-9.60214 5.51883,-11.79138 0.87894,-0.73926 1.52768,-1.02767 2.39469,-1.06461 0.65434,-0.0279 0.7463,-0.0102 1.25662,0.24099 0.30285,0.14909 0.56995,0.32144 0.59357,0.38301 0.0324,0.0843 0.11741,0.0614 0.34471,-0.0928 0.43951,-0.29826 0.97471,-0.28317 1.29439,0.0365 0.4242,0.42419 0.41013,0.57402 -0.32705,3.48407 -1.14556,4.52215 -1.87573,8.52223 -1.87341,10.26315 0.002,1.17037 0.0192,1.2206 0.45042,1.27843 0.2362,0.0317 0.41538,0.1204 0.54312,0.26891 0.22602,0.26276 0.23901,0.46349 0.0537,0.83021 -0.33578,0.66455 -0.87178,0.99061 -1.62848,0.99061 -0.4277,0 -0.56311,-0.0412 -0.91354,-0.27818 z m -3.68964,-2.72747 c 0.2659,-0.12174 0.94311,-0.52621 1.50492,-0.89883 l 1.02147,-0.6775 0.10541,-0.86284 c 0.29222,-2.39194 1.02063,-5.76798 1.75357,-8.12738 0.30876,-0.99392 0.239,-1.9218 -0.14447,-1.9218 -1.01327,0 -2.58893,1.86526 -3.96946,4.699 -1.10437,2.26688 -1.75568,4.4443 -1.83774,6.14384 -0.051,1.05579 0.0198,1.43624 0.3287,1.76785 0.21886,0.23491 0.5229,0.20486 1.2376,-0.12234 z m 31.54164,2.91264 c -1.15518,-0.19286 -2.08311,-0.91373 -2.64148,-2.05206 -0.54061,-1.1021 -0.63013,-1.57814 -0.5758,-3.06193 0.10193,-2.78327 1.13058,-6.33902 2.81027,-9.71427 0.67506,-1.3565 1.33093,-2.30867 2.14839,-3.11893 0.94015,-0.93188 1.61769,-1.28999 2.52761,-1.33594 1.49552,-0.0755 2.58372,0.86576 3.04008,2.62964 0.31741,1.22683 0.088,3.41575 -0.46342,4.42203 -0.30474,0.5561 -0.37353,0.68895 -0.5983,1.15549 -0.29141,0.60484 -1.17048,1.20415 -2.83313,1.9315 -0.9941,0.43487 -2.51519,0.95255 -3.25216,1.10682 -0.42256,0.0884 -0.53857,0.1474 -0.57002,0.28969 -0.22726,1.02821 -0.32466,1.86509 -0.33118,2.84564 -0.007,1.03227 0.0119,1.18625 0.19416,1.58945 0.21719,0.48058 0.56871,0.83291 0.91862,0.92073 0.63645,0.15974 1.8566,-0.32182 3.45332,-1.36291 1.25253,-0.81668 1.8447,-1.11316 2.32663,-1.16487 l 0.381,-0.0409 0.0252,0.42984 c 0.016,0.27356 -0.0288,0.55355 -0.12319,0.77008 -0.59491,1.36418 -2.32442,2.87784 -3.9655,3.47058 -0.47534,0.17169 -1.78697,0.41806 -1.98795,0.37342 -0.0245,-0.005 -0.24192,-0.0428 -0.48314,-0.0831 z m 2.17959,-11.30082 c 0.93731,-0.35265 1.90809,-0.68394 2.15729,-0.73621 0.44701,-0.0938 0.45427,-0.10021 0.54122,-0.48066 0.38865,-1.70054 0.31004,-3.57395 -0.17588,-4.1917 -0.19719,-0.25069 -0.32274,-0.26574 -0.67918,-0.0814 -0.67874,0.35099 -1.34012,1.16855 -2.08891,2.58223 -0.54435,1.02766 -1.60608,3.5489 -1.49451,3.5489 0.0197,0 0.80267,-0.28853 1.73997,-0.64117 z m -17.38626,10.88492 c -0.61049,-0.48021 -0.66671,-1.63912 -0.19714,-4.06309 0.3925,-2.02606 0.51451,-3.00799 0.72583,-5.842 0.0955,-1.28058 0.19426,-2.46168 0.21945,-2.62466 l 0.0458,-0.29634 -1.21035,-0.006 c -2.01706,-0.009 -3.21476,-0.48724 -3.89016,-1.55224 -0.33457,-0.52756 -0.32148,-0.87647 0.0467,-1.24463 0.36065,-0.36065 0.83412,-0.39738 1.20847,-0.0937 0.46042,0.37347 0.69824,0.48049 1.28205,0.5769 0.70077,0.11573 2.67832,0.0284 2.78962,-0.12319 0.0394,-0.0536 0.13867,-0.5166 0.22066,-1.02884 0.47841,-2.98901 1.39094,-6.30581 2.37566,-8.63483 1.16334,-2.75149 2.38573,-4.38254 3.81325,-5.08806 0.60731,-0.30014 0.72771,-0.32962 1.35075,-0.33065 0.59743,-9.8e-4 0.73492,0.0288 1.08631,0.23536 0.60574,0.35607 0.91678,1.09922 0.73799,1.76321 -0.14997,0.55694 -0.61994,0.6575 -1.1403,0.24397 -0.40595,-0.32261 -0.67504,-0.32041 -1.17324,0.01 -1.28351,0.85016 -2.84589,4.18125 -3.81573,8.13534 -0.28241,1.15139 -0.80947,3.84701 -0.81031,4.14426 0,0.12797 0.0504,0.12653 0.61345,-0.0174 1.56465,-0.39998 3.4991,-0.75712 4.10094,-0.75712 0.85804,0 1.10035,0.13877 1.05592,0.60471 -0.029,0.30425 -0.0873,0.37803 -0.59427,0.75264 -0.89469,0.66106 -3.07353,1.49453 -4.88009,1.86677 -0.2794,0.0576 -0.54056,0.1331 -0.58034,0.16785 -0.073,0.0638 -0.21667,1.6778 -0.39132,4.39736 -0.12615,1.96442 -0.28889,3.28508 -0.5974,4.84791 -0.45455,2.30264 -0.86915,3.5671 -1.28406,3.91623 -0.31465,0.26476 -0.80032,0.28242 -1.10814,0.0403 z M 24.081654,158.12942 c -0.764071,-0.17326 -1.679054,-0.63137 -2.093786,-1.0483 -0.41163,-0.41382 -0.792033,-1.16678 -1.010729,-2.0006 -0.238893,-0.91083 -0.220354,-3.15095 0.03672,-4.43653 0.39857,-1.99319 1.293824,-4.1812 2.377314,-5.81018 1.385341,-2.0828 3.805879,-4.24771 4.920718,-4.40103 0.362915,-0.0499 0.472943,-0.0272 0.802102,0.16571 0.495331,0.29029 0.663122,0.55757 0.670558,1.06817 0.008,0.5472 -0.219187,0.79114 -0.74591,0.80104 -0.457758,0.009 -0.599746,0.10051 -1.449632,0.93827 -2.183094,2.15195 -3.555296,4.65496 -4.118635,7.51275 -0.339265,1.72107 -0.182783,3.93186 0.313422,4.42807 0.264659,0.26466 1.056705,0.48209 1.489666,0.40894 0.189747,-0.0321 0.684262,-0.22812 1.09892,-0.4357 1.670471,-0.83624 3.632585,-3.19656 4.422073,-5.31951 0.592438,-1.59308 0.792877,-3.48235 0.555966,-5.24033 -0.195401,-1.44994 -0.15545,-1.66 0.315713,-1.66 0.265523,0 0.376543,0.0643 0.71221,0.41256 1.151768,1.19494 1.377028,4.11602 0.54012,7.00402 -0.748736,2.58372 -2.984326,5.62558 -4.990571,6.79043 -1.363361,0.79157 -2.710937,1.07965 -3.846236,0.82222 z"
       id="path828"
       inkscape:connector-curvature="0" />
  </g>
</svg>
