<?xml version="1.0" encoding="UTF-8" standalone="no"?>
<!-- Created with Inkscape (http://www.inkscape.org/) -->

<svg
   xmlns:dc="http://purl.org/dc/elements/1.1/"
   xmlns:cc="http://creativecommons.org/ns#"
   xmlns:rdf="http://www.w3.org/1999/02/22-rdf-syntax-ns#"
   xmlns:svg="http://www.w3.org/2000/svg"
   xmlns="http://www.w3.org/2000/svg"
   xmlns:sodipodi="http://sodipodi.sourceforge.net/DTD/sodipodi-0.dtd"
   xmlns:inkscape="http://www.inkscape.org/namespaces/inkscape"
   width="167.36147mm"
   height="70.75692mm"
   viewBox="0 0 167.36147 70.75692"
   version="1.1"
   id="svg8"
   inkscape:version="0.92.4 (5da689c313, 2019-01-14)"
   sodipodi:docname="tophatcafe.svg">
  <defs
     id="defs2" />
  <sodipodi:namedview
     id="base"
     pagecolor="#ffffff"
     bordercolor="#666666"
     borderopacity="1.0"
     inkscape:pageopacity="0.0"
     inkscape:pageshadow="2"
     inkscape:zoom="0.35"
     inkscape:cx="-164.91268"
     inkscape:cy="164.15189"
     inkscape:document-units="mm"
     inkscape:current-layer="layer1"
     showgrid="false"
     fit-margin-top="0"
     fit-margin-left="0"
     fit-margin-right="0"
     fit-margin-bottom="0"
     inkscape:window-width="1920"
     inkscape:window-height="1049"
     inkscape:window-x="0"
     inkscape:window-y="0"
     inkscape:window-maximized="1" />
  <metadata
     id="metadata5">
    <rdf:RDF>
      <cc:Work
         rdf:about="">
        <dc:format>image/svg+xml</dc:format>
        <dc:type
           rdf:resource="http://purl.org/dc/dcmitype/StillImage" />
        <dc:title></dc:title>
      </cc:Work>
    </rdf:RDF>
  </metadata>
  <g
     inkscape:label="Layer 1"
     inkscape:groupmode="layer"
     id="layer1"
     transform="translate(-25.112314,-124.53208)">
    <path
       style="fill:#000000;stroke-width:0.08466667"
       d="m 50.816826,195.21696 c 0.02618,-0.0424 -0.05942,-0.0776 -0.190228,-0.0783 -0.184667,-10e-4 -0.209441,-0.0197 -0.11083,-0.0834 0.108414,-0.0701 0.105216,-0.0823 -0.02185,-0.0834 -0.119561,-0.001 -0.147498,-0.0721 -0.141976,-0.36113 0.0038,-0.19791 -0.01235,-0.44336 -0.03585,-0.54545 -0.03138,-0.13634 -0.01055,-0.17327 0.07848,-0.13911 0.09752,0.0374 0.121198,-0.0614 0.121198,-0.50596 0,-0.70334 0.04757,-0.82032 0.333592,-0.82032 0.224577,0 0.235922,-0.024 0.420188,-0.88751 0.10416,-0.48814 0.165421,-0.92629 0.136137,-0.97367 -0.02928,-0.0474 -0.0084,-0.0862 0.04629,-0.0862 0.05704,0 0.08109,-0.0706 0.05632,-0.16527 -0.02377,-0.0909 -0.01512,-0.17663 0.01923,-0.1905 0.0518,-0.0209 0.556668,-2.07819 0.65031,-2.6499 0.01525,-0.0931 0.103625,-0.47206 0.19638,-0.84206 0.09275,-0.37001 0.151029,-0.69035 0.1295,-0.71188 -0.02153,-0.0215 -0.0026,-0.0831 0.04202,-0.13694 0.04464,-0.0538 0.09958,-0.22874 0.122101,-0.38879 0.02252,-0.16005 0.06093,-0.36719 0.08536,-0.46033 0.02443,-0.0931 0.274547,-1.12183 0.555814,-2.286 0.524271,-2.16996 0.531018,-2.19622 0.61996,-2.413 0.124036,-0.30231 0.562171,-2.39325 0.516847,-2.46658 -0.02748,-0.0445 -0.0063,-0.13346 0.0471,-0.19778 0.05338,-0.0643 0.108772,-0.20552 0.123093,-0.31379 0.01432,-0.10827 0.04951,-0.254 0.0782,-0.32385 0.117667,-0.28649 0.564751,-2.38383 0.522669,-2.45192 -0.02502,-0.0405 -0.01315,-0.0864 0.02639,-0.10201 0.109115,-0.0431 0.802312,-3.17674 0.728981,-3.29539 -0.03851,-0.0623 -0.02876,-0.0817 0.02449,-0.0488 0.09946,0.0615 0.230824,-0.48938 0.148476,-0.62262 -0.02829,-0.0458 -0.0066,-0.0832 0.0481,-0.0832 0.06051,0 0.08367,-0.083 0.05907,-0.21166 -0.02225,-0.11642 -0.01285,-0.21167 0.02089,-0.21167 0.06217,0 0.283145,-0.92576 0.280745,-1.17615 -6.77e-4,-0.0749 0.03714,-0.16126 0.08413,-0.1919 0.04699,-0.0306 0.09309,-0.1259 0.102439,-0.21167 0.0093,-0.0858 0.04023,-0.2131 0.06863,-0.28295 0.109867,-0.27025 0.644978,-2.81702 0.605362,-2.88112 -0.02303,-0.0373 -0.01113,-0.0805 0.02645,-0.0961 0.105819,-0.044 0.972132,-4.02838 0.900928,-4.14359 -0.03873,-0.0627 -0.02732,-0.0799 0.02961,-0.0447 0.05393,0.0333 0.09174,-0.005 0.09051,-0.0928 -0.0012,-0.0825 0.06065,-0.37355 0.137363,-0.64679 0.07671,-0.27323 0.11851,-0.55143 0.09288,-0.61823 -0.02563,-0.0668 -0.01556,-0.10226 0.02238,-0.0788 0.03794,0.0234 0.121073,-0.2127 0.184742,-0.52477 0.139967,-0.68603 0.136074,-0.66968 0.240899,-1.0119 0.04636,-0.15134 0.06323,-0.27517 0.0375,-0.27517 -0.02574,0 -0.0084,-0.0476 0.03847,-0.10583 0.04689,-0.0582 0.113107,-0.23918 0.147144,-0.40217 0.03404,-0.16298 0.09887,-0.34229 0.144066,-0.39845 0.0452,-0.0562 0.05961,-0.13864 0.03203,-0.18327 -0.02758,-0.0446 -0.01472,-0.0939 0.02858,-0.10955 0.0433,-0.0156 0.0972,-0.16174 0.119771,-0.32473 0.02257,-0.16298 0.04875,-0.31538 0.05817,-0.33866 0.0094,-0.0233 0.01065,-0.12448 0.0027,-0.22487 -0.01616,-0.20499 0.313788,-0.55981 0.445101,-0.47865 0.04683,0.0289 0.212122,0.0479 0.367312,0.042 0.412113,-0.0155 0.647585,0.26284 0.576804,0.68178 -0.03479,0.20593 -0.02126,0.31839 0.03832,0.31839 0.05066,0 0.09211,0.0403 0.09211,0.0897 0,0.0493 -0.0313,0.0703 -0.06956,0.0467 -0.130397,-0.0806 -0.332633,0.26357 -0.467756,0.79601 -0.07418,0.29231 -0.116745,0.56081 -0.09459,0.59666 0.02216,0.0359 9.57e-4,0.0783 -0.04712,0.0943 -0.04807,0.016 -0.101055,0.16216 -0.117735,0.32473 -0.01668,0.16258 -0.05786,0.36227 -0.09151,0.44377 -0.03365,0.0815 -0.03849,0.20729 -0.01076,0.27956 0.02773,0.0723 0.01711,0.11081 -0.02359,0.0856 -0.06227,-0.0385 -0.200271,0.37995 -0.144211,0.43726 0.01038,0.0106 0.163518,-0.17036 0.340297,-0.40217 0.176779,-0.23181 0.355418,-0.42147 0.396976,-0.42147 0.04156,0 0.07575,-0.0476 0.07599,-0.10583 2.54e-4,-0.0582 0.134406,-0.23919 0.298154,-0.40217 0.163748,-0.16298 0.34453,-0.34664 0.401736,-0.40812 0.05721,-0.0615 0.177192,-0.17579 0.266633,-0.254 0.08944,-0.0782 0.246209,-0.22794 0.348376,-0.33271 0.102165,-0.10478 0.227671,-0.1905 0.278901,-0.1905 0.05123,0 0.133927,-0.0762 0.18377,-0.16934 0.04984,-0.0931 0.140604,-0.16933 0.20169,-0.16933 0.06109,0 0.198926,-0.0762 0.30631,-0.16933 0.107383,-0.0931 0.246564,-0.16934 0.309288,-0.16934 0.06273,0 0.114045,-0.0572 0.114045,-0.127 0,-0.0794 0.08026,-0.127 0.214324,-0.127 0.117879,0 0.236254,-0.0572 0.263058,-0.127 0.02778,-0.0724 0.154055,-0.127 0.293677,-0.127 0.134717,0 0.244941,-0.0387 0.244941,-0.086 0,-0.0473 0.104775,-0.0864 0.232834,-0.0869 0.258953,-9.9e-4 0.8255,-0.0589 0.8255,-0.0844 0,-0.052 0.902364,-0.0436 0.934686,0.009 0.02153,0.0348 0.115514,0.0434 0.208849,0.019 0.09333,-0.0244 0.226444,0.003 0.295798,0.0603 0.06935,0.0576 0.204831,0.0841 0.301062,0.0589 0.107266,-0.0281 0.192843,8.5e-4 0.221175,0.0747 0.02542,0.0662 0.117828,0.12043 0.205358,0.12043 0.20838,0 0.831395,0.4329 0.835525,0.58056 0.0019,0.0668 0.05633,0.0945 0.130213,0.0662 0.07736,-0.0297 0.127,-1.7e-4 0.127,0.0756 0,0.0684 0.0381,0.12435 0.08467,0.12435 0.04657,0 0.08467,0.0553 0.08467,0.12279 0,0.0675 0.04769,0.15326 0.105972,0.1905 0.05828,0.0372 0.157979,0.18201 0.221545,0.32171 0.06356,0.1397 0.149228,0.32015 0.190362,0.40101 0.04113,0.0809 0.07479,0.22374 0.07479,0.3175 0,0.0938 0.0381,0.17049 0.08467,0.17049 0.04657,0 0.08467,0.11205 0.08467,0.249 0,0.13695 0.03911,0.27317 0.08691,0.30272 0.0478,0.0295 0.07989,0.0985 0.07131,0.15316 -0.0086,0.0547 0.0066,0.1566 0.0338,0.22645 0.07769,0.19973 0.152049,0.67813 0.184235,1.18533 0.01625,0.25612 0.05699,0.55139 0.09052,0.65617 0.03353,0.10478 0.02795,0.19072 -0.01241,0.19098 -0.04036,2.5e-4 -0.07909,0.15266 -0.08608,0.33867 -0.007,0.186 0.01658,0.33818 0.05238,0.33818 0.0358,0 0.01354,0.21908 -0.04947,0.48684 -0.131904,0.56052 -0.144419,0.72531 -0.05068,0.66738 0.03659,-0.0226 0.06652,0.0323 0.06652,0.122 0,0.0897 -0.03946,0.16322 -0.08769,0.16335 -0.04823,8e-5 -0.09988,0.23667 -0.114772,0.52566 -0.0149,0.28898 -0.05119,0.56443 -0.08066,0.61211 -0.06013,0.0973 -0.09411,0.2809 -0.138036,0.74594 -0.0165,0.17468 -0.06554,0.36518 -0.108974,0.42333 -0.04343,0.0582 -0.07663,0.22591 -0.07378,0.37281 0.0029,0.14689 -0.0192,0.252 -0.04902,0.23357 -0.02982,-0.0184 -0.07937,0.10058 -0.110114,0.26446 -0.03075,0.16388 -0.130324,0.53094 -0.221288,0.81568 -0.128315,0.40166 -0.143122,0.54454 -0.06605,0.6374 0.05463,0.0658 0.06431,0.11303 0.0215,0.10489 -0.174934,-0.0333 -0.253605,0.013 -0.260707,0.15342 -0.01868,0.3692 -0.744586,2.13783 -0.877445,2.13783 -0.05097,0 -0.07321,0.0315 -0.04942,0.07 0.0427,0.0691 -0.285995,0.7828 -0.453443,0.98456 -0.04749,0.0572 -0.06151,0.12888 -0.03115,0.15923 0.03035,0.0304 -0.0082,0.12519 -0.08559,0.21075 -0.07743,0.0856 -0.115293,0.18104 -0.08415,0.21218 0.03115,0.0311 0.01631,0.0566 -0.03297,0.0566 -0.04928,0 -0.113505,0.0953 -0.142724,0.21167 -0.02922,0.11642 -0.0905,0.21167 -0.136178,0.21167 -0.04568,0 -0.08305,0.0555 -0.08305,0.12324 0,0.11178 -0.29255,0.61283 -0.506808,0.86802 -0.04722,0.0562 -0.08586,0.16221 -0.08586,0.23549 0,0.0733 -0.05039,0.15256 -0.111983,0.1762 -0.06159,0.0236 -0.204466,0.23019 -0.3175,0.45902 -0.113035,0.22883 -0.291242,0.46238 -0.396017,0.51901 -0.104775,0.0566 -0.1905,0.15219 -0.1905,0.21236 0,0.0602 -0.08109,0.18495 -0.18021,0.27729 -0.101072,0.0942 -0.158738,0.22385 -0.131312,0.29531 0.03206,0.0836 0.0096,0.11236 -0.0652,0.0837 -0.103837,-0.0399 -0.723942,0.49184 -0.723942,0.62072 0,0.0789 -0.60002,0.61702 -0.687975,0.61702 -0.04071,0 -0.07403,0.0389 -0.07403,0.0865 0,0.0476 -0.09405,0.12934 -0.209012,0.18172 -0.114957,0.0524 -0.188908,0.12776 -0.164337,0.16751 0.02457,0.0398 0.01385,0.0723 -0.02382,0.0724 -0.03767,6e-5 -0.179198,0.0953 -0.314499,0.21167 -0.135302,0.11636 -0.291321,0.21156 -0.346711,0.21156 -0.05539,0 -0.168856,0.0753 -0.252147,0.16734 -0.08329,0.092 -0.184445,0.14694 -0.224789,0.122 -0.04034,-0.0249 -0.07335,-0.005 -0.07335,0.0443 0,0.0493 -0.0688,0.0897 -0.152884,0.0897 -0.192052,0 -0.712358,0.37653 -0.631726,0.45716 0.03288,0.0329 -0.0085,0.0336 -0.09192,0.002 -0.09639,-0.037 -0.244505,0.0104 -0.406241,0.12998 -0.139999,0.10351 -0.275438,0.1673 -0.300976,0.14176 -0.02554,-0.0255 -0.184467,0.0135 -0.353178,0.0868 -0.16871,0.0733 -0.435836,0.14946 -0.593614,0.16926 -0.157777,0.0198 -0.363073,0.0768 -0.456213,0.12663 -0.217988,0.11666 -0.601074,0.15631 -1.532098,0.15855 -0.41315,0.001 -0.79822,-0.0372 -0.855712,-0.0849 -0.05749,-0.0477 -0.218804,-0.0639 -0.35847,-0.036 -0.187246,0.0374 -0.267556,0.0153 -0.305796,-0.0844 -0.03064,-0.0798 -0.15024,-0.13514 -0.292303,-0.13514 -0.238916,0 -0.241979,0.007 -0.482503,1.0795 -0.133133,0.59372 -0.24944,1.13665 -0.258459,1.2065 -0.009,0.0699 -0.0373,0.18415 -0.06284,0.254 -0.136779,0.37408 -0.307928,1.27651 -0.263869,1.39132 0.028,0.073 0.01414,0.13268 -0.03081,0.13268 -0.04494,0 -0.170515,0.40005 -0.279044,0.889 -0.108528,0.48895 -0.222947,0.889 -0.254265,0.889 -0.03132,0 -0.03873,0.0953 -0.01648,0.21167 0.02659,0.13908 0.0022,0.21166 -0.07101,0.21166 -0.08485,0 -0.08791,0.0236 -0.01282,0.0987 0.07509,0.0751 0.07116,0.12059 -0.01649,0.1905 -0.06333,0.0505 -0.194271,0.45379 -0.290989,0.89618 -0.09672,0.44238 -0.424389,1.8872 -0.728159,3.2107 -0.303769,1.3235 -0.533778,2.42489 -0.511132,2.44754 0.02265,0.0226 0.0083,0.0828 -0.03185,0.13363 -0.11786,0.14922 -0.365661,1.39374 -0.298991,1.50162 0.03799,0.0615 0.02412,0.0759 -0.03676,0.0383 -0.06566,-0.0406 -0.101683,0.0316 -0.109735,0.21975 -0.0066,0.15409 -0.01612,0.35671 -0.02117,0.45026 -0.005,0.0936 -0.08601,0.26837 -0.179916,0.38846 -0.138977,0.17774 -0.245331,0.21949 -0.571771,0.22442 -0.220766,0.003 -0.379638,-0.0286 -0.353435,-0.071 z m 7.377877,-17.49259 c -0.02277,-0.0375 0.122036,-0.0726 0.321793,-0.0781 0.199756,-0.006 0.451939,-0.0722 0.560405,-0.14816 0.108466,-0.076 0.264933,-0.13814 0.347706,-0.13814 0.08277,0 0.150494,-0.0403 0.150494,-0.0897 0,-0.0493 0.03416,-0.0686 0.07592,-0.0427 0.104982,0.0649 0.619008,-0.16045 0.541904,-0.23755 -0.03428,-0.0343 -0.0054,-0.0405 0.06418,-0.0138 0.119802,0.046 0.85658,-0.34698 1.222993,-0.65227 0.09313,-0.0776 0.359833,-0.27249 0.592667,-0.4331 0.232833,-0.1606 0.413808,-0.3339 0.402166,-0.38512 -0.01164,-0.0512 0.0074,-0.0839 0.04233,-0.0726 0.03493,0.0113 0.187002,-0.09 0.337949,-0.22502 0.230358,-0.20611 0.257562,-0.26721 0.169333,-0.38037 -0.09079,-0.11643 -0.08667,-0.12042 0.0302,-0.0293 0.111017,0.0866 0.160461,0.0777 0.275352,-0.0492 0.07702,-0.0851 0.111378,-0.18633 0.07635,-0.22494 -0.03503,-0.0386 -0.01964,-0.045 0.0342,-0.0142 0.05661,0.0324 0.24735,-0.12254 0.452384,-0.36743 0.194977,-0.23288 0.334837,-0.42341 0.310799,-0.42341 -0.02404,0 0.07017,-0.11388 0.209359,-0.25307 0.139184,-0.13918 0.228672,-0.29253 0.19886,-0.34076 -0.02981,-0.0482 -0.01523,-0.0772 0.03241,-0.0644 0.21483,0.0577 1.609208,-2.20058 1.483921,-2.4033 -0.03312,-0.0536 -0.02314,-0.0744 0.02222,-0.0464 0.09431,0.0583 0.563031,-0.84462 0.495334,-0.95416 -0.02451,-0.0396 -0.0127,-0.0849 0.02623,-0.1005 0.194038,-0.0778 1.078876,-2.44832 0.995244,-2.66626 -0.02587,-0.0674 -0.01248,-0.10123 0.02976,-0.0751 0.04224,0.0261 0.103358,-0.0767 0.135807,-0.22843 0.03245,-0.15175 0.08946,-0.31401 0.126684,-0.36057 0.273687,-0.34236 0.785389,-5.16872 0.531299,-5.01119 -0.03751,0.0232 -0.06244,-0.14038 -0.05539,-0.36364 0.02519,-0.79802 -0.446608,-2.36952 -0.669937,-2.2315 -0.04879,0.0302 -0.06446,0.0156 -0.03483,-0.0323 0.140074,-0.22664 -0.899988,-1.22314 -1.128932,-1.08165 -0.04857,0.03 -0.07784,0.008 -0.06504,-0.048 0.0128,-0.0564 -0.09103,-0.1367 -0.230735,-0.17847 -0.295377,-0.0883 -1.143,-0.0103 -1.143,0.10517 0,0.0432 -0.07348,0.0786 -0.163286,0.0786 -0.08981,0 -0.218621,0.0553 -0.286254,0.12296 -0.06763,0.0676 -0.145294,0.10065 -0.172581,0.0734 -0.11128,-0.11128 -1.244362,0.68144 -1.917879,1.34177 -0.905628,0.88789 -1.297926,1.35704 -1.542653,1.84485 -0.106158,0.2116 -0.216592,0.40377 -0.24541,0.42706 -0.08875,0.0717 -0.480276,0.88439 -0.511134,1.06096 -0.01602,0.0917 -0.06025,0.18957 -0.09826,0.21751 -0.03802,0.028 -0.07719,0.10415 -0.08705,0.16934 -0.0099,0.0652 -0.0488,0.16797 -0.08654,0.22841 -0.03774,0.0604 -0.04663,0.16719 -0.01976,0.23723 0.02688,0.07 0.0143,0.10598 -0.02794,0.0799 -0.04224,-0.0261 -0.101985,0.0672 -0.132757,0.20727 -0.03077,0.14011 -0.09327,0.25474 -0.138887,0.25474 -0.04561,0 -0.06224,0.0335 -0.03694,0.0744 0.0253,0.0409 -0.05543,0.34913 -0.179398,0.6849 -0.215736,0.58433 -0.235425,0.60848 -0.459596,0.56365 -0.184753,-0.0369 -0.245775,-0.0104 -0.289002,0.12581 -0.03014,0.095 -0.0326,0.19485 -0.0055,0.22198 0.02713,0.0271 0.01706,0.0909 -0.02238,0.14178 -0.09915,0.12784 -0.283436,0.90707 -0.227699,0.9628 0.02498,0.025 0.01122,0.087 -0.03056,0.13787 -0.04178,0.0508 -0.09662,0.20676 -0.121849,0.34646 -0.02523,0.1397 -0.163309,0.7493 -0.30684,1.35466 -0.566728,2.39028 -0.935831,4.1467 -0.894204,4.25518 0.02405,0.0627 0.0094,0.0928 -0.03246,0.0669 -0.04191,-0.0259 -0.101935,0.10527 -0.133398,0.29149 -0.03146,0.18622 -0.09032,0.35906 -0.130804,0.38407 -0.04048,0.025 -0.05066,0.10527 -0.02263,0.17833 0.02804,0.073 0.01364,0.15756 -0.03198,0.18778 -0.08571,0.0568 -0.694422,2.58881 -0.72744,3.02589 -0.01024,0.13552 -0.04132,0.26545 -0.06908,0.28874 -0.02776,0.0233 -0.07572,0.14555 -0.106577,0.2717 -0.0514,0.21009 -0.02937,0.2363 0.262131,0.31187 0.610307,0.15821 2.105268,0.24631 2.028179,0.11952 z m 111.275777,14.15355 c -0.0569,-0.0686 -0.1585,-0.12464 -0.22578,-0.12464 -0.083,0 -0.1054,-0.0534 -0.0696,-0.16614 0.029,-0.0914 0.0102,-0.24567 -0.0419,-0.34288 -0.13769,-0.25727 0.0533,-0.66881 0.28259,-0.60885 0.10283,0.0269 0.21038,-0.0163 0.28095,-0.1128 0.0629,-0.086 0.11434,-0.12915 0.11434,-0.0959 0,0.0333 0.0949,-0.002 0.21094,-0.0777 0.11602,-0.076 0.18633,-0.17803 0.15625,-0.2267 -0.0319,-0.0516 -0.0138,-0.0632 0.0434,-0.0279 0.1342,0.0829 1.05918,-0.84904 0.99882,-1.00636 -0.0294,-0.0765 -0.005,-0.1042 0.0681,-0.0763 0.1381,0.053 1.10967,-1.37689 1.44511,-2.1268 0.4749,-1.06167 1.02526,-2.91416 0.93536,-3.14841 -0.0253,-0.066 -0.0138,-0.10009 0.0257,-0.0757 0.0888,0.0549 0.30333,-1.34578 0.30561,-1.99565 9.4e-4,-0.26313 0.0263,-0.46335 0.0564,-0.44493 0.10383,0.0636 0.17991,-2.46766 0.12111,-4.02964 -0.0324,-0.86148 -0.1149,-2.15688 -0.18325,-2.87867 -0.0683,-0.72178 -0.14755,-1.55998 -0.17599,-1.86266 -0.0284,-0.30269 -0.075,-0.56939 -0.10349,-0.59267 -0.0285,-0.0233 -0.0542,-0.19473 -0.0573,-0.381 -0.007,-0.41905 -0.0825,-1.09428 -0.29417,-2.62467 -0.0902,-0.65193 -0.20438,-1.49013 -0.25378,-1.86266 -0.0494,-0.37254 -0.10828,-0.79869 -0.13082,-0.94701 l -0.041,-0.26967 -0.31105,0.12996 c -0.17107,0.0715 -0.56034,0.27071 -0.86502,0.44274 -0.30469,0.17203 -0.8088,0.42332 -1.12024,0.55843 -0.31145,0.13512 -0.54369,0.2822 -0.51609,0.32685 0.0276,0.0447 0.0101,0.0564 -0.0389,0.0261 -0.0989,-0.0611 -0.95305,0.19069 -0.95305,0.28095 0,0.0313 -0.12383,0.0575 -0.27517,0.0581 -0.15134,5.9e-4 -0.39801,0.0424 -0.54816,0.0929 -0.15014,0.0505 -0.26792,0.0662 -0.26172,0.0349 0.006,-0.0313 -0.008,-0.11412 -0.0326,-0.18397 -0.22131,-0.64138 -0.2417,-0.76448 -0.15389,-0.92854 0.0507,-0.0947 0.14792,-0.17213 0.21613,-0.17213 0.0682,0 0.12402,-0.03 0.12402,-0.0667 0,-0.0367 0.14288,-0.0729 0.3175,-0.0806 0.41257,-0.018 1.08338,-0.29673 2.83786,-1.17895 l 1.4309,-0.71951 -0.0587,-0.86098 c -0.0323,-0.47354 -0.0853,-0.88003 -0.11783,-0.90332 -0.0825,-0.059 -0.0485,-5.88509 0.0398,-6.81566 0.0398,-0.4191 0.074,-0.92393 0.0762,-1.12184 0.002,-0.19791 0.0276,-0.35983 0.0565,-0.35983 0.0493,0 0.14435,-0.62913 0.21099,-1.397 0.0162,-0.18627 0.066,-0.49107 0.11084,-0.67733 0.0448,-0.18627 0.0994,-0.43392 0.1214,-0.55034 0.022,-0.11641 0.0846,-0.40216 0.13921,-0.635 0.0546,-0.23283 0.11437,-0.49953 0.13283,-0.59266 0.0185,-0.0931 0.0858,-0.36936 0.14964,-0.61384 0.0811,-0.3107 0.0879,-0.44489 0.0226,-0.44579 -0.0668,-9.3e-4 -0.0663,-0.0191 0.002,-0.0635 0.0522,-0.0342 0.1825,-0.34796 0.28946,-0.69721 0.35677,-1.16486 0.99565,-3.08645 1.13291,-3.40743 0.0746,-0.1744 0.13438,-0.33672 0.1329,-0.36072 -0.001,-0.024 0.056,-0.15712 0.12775,-0.29585 0.0717,-0.13872 0.13451,-0.2812 0.1395,-0.31661 0.0207,-0.14674 0.0964,-0.33602 0.25438,-0.63589 0.092,-0.17462 0.13628,-0.31808 0.0984,-0.31879 -0.0379,-6.8e-4 -0.0308,-0.0293 0.0158,-0.0635 0.0466,-0.0342 0.34384,-0.57656 0.6606,-1.20521 0.31678,-0.62865 0.70539,-1.35255 0.86359,-1.60866 0.1582,-0.25612 0.36521,-0.60596 0.46002,-0.77743 0.0948,-0.17146 0.21508,-0.33815 0.26729,-0.37041 0.0671,-0.0415 0.0613,-0.08 -0.02,-0.13145 -0.0922,-0.0584 -0.0884,-0.073 0.019,-0.0741 0.0736,-6.8e-4 0.18415,-0.0953 0.2456,-0.21008 0.0615,-0.11482 0.14409,-0.18878 0.18364,-0.16433 0.0395,0.0244 0.0719,-0.0314 0.0719,-0.12419 0,-0.0943 0.0747,-0.19232 0.16933,-0.22237 0.0931,-0.0296 0.16933,-0.0926 0.16933,-0.14002 0,-0.0936 0.79929,-0.88152 1.10339,-1.08764 0.10305,-0.0699 0.23691,-0.17442 0.29747,-0.23237 0.0606,-0.058 0.17973,-0.11649 0.2648,-0.13008 0.0851,-0.0136 0.26898,-0.0817 0.40868,-0.15141 0.16962,-0.0846 0.47072,-0.12186 0.9064,-0.1121 0.52779,0.0118 0.72768,0.0567 1.04648,0.23486 0.21674,0.12114 0.42893,0.19871 0.47152,0.17238 0.0426,-0.0263 0.067,-0.0115 0.0542,0.0329 -0.0128,0.0444 0.0726,0.17108 0.18969,0.28146 0.45985,0.43336 0.59958,0.73567 1.07109,2.31737 0.18443,0.61863 0.0983,0.75411 -0.52298,0.82234 -0.55515,0.061 -0.63407,0.0219 -0.63407,-0.31438 0,-0.33223 -0.2918,-1.0583 -0.42532,-1.0583 -0.051,0 -0.069,-0.0384 -0.04,-0.0852 0.0705,-0.11408 -0.27621,-0.59209 -0.42946,-0.59209 -0.0667,0 -0.12123,-0.0344 -0.12123,-0.0764 0,-0.12327 -0.44867,-0.24422 -0.79173,-0.21344 -0.57495,0.0516 -1.96968,1.07777 -1.90081,1.39854 0.014,0.0654 -0.0211,0.10975 -0.0781,0.0985 -0.10903,-0.0215 -0.78536,0.81691 -0.78536,0.97358 0,0.0501 -0.0324,0.10378 -0.072,0.1193 -0.11513,0.0451 -0.53117,0.74781 -0.54407,0.91891 -0.006,0.0857 -0.0393,0.13888 -0.073,0.11807 -0.11799,-0.0729 -0.17811,0.15402 -0.0626,0.23636 0.0941,0.0671 0.0909,0.0751 -0.0165,0.0413 -0.099,-0.0312 -0.23541,0.16377 -0.53109,0.75899 -0.21882,0.44051 -0.37206,0.84267 -0.34052,0.8937 0.0318,0.0515 0.0187,0.0689 -0.0294,0.0391 -0.10802,-0.0668 -0.64449,1.18406 -0.56383,1.31458 0.033,0.0535 0.0196,0.07 -0.0314,0.0385 -0.0915,-0.0566 -0.61393,1.27784 -1.10912,2.8331 -0.48357,1.51879 -1.17981,4.52407 -1.07288,4.631 0.0233,0.0233 0.009,0.084 -0.0322,0.13481 -0.097,0.12042 -0.27339,1.47479 -0.22456,1.72455 0.0207,0.10602 0.006,0.17339 -0.032,0.14972 -0.0383,-0.0237 -0.0713,0.042 -0.0733,0.1459 -0.002,0.10393 -0.0479,0.53186 -0.10211,0.95096 -0.12225,0.94581 -0.19578,5.83618 -0.10763,7.15889 l 0.0652,0.97822 0.98968,-0.55015 c 0.54432,-0.30258 0.97336,-0.57656 0.95341,-0.60883 -0.0199,-0.0323 0.0112,-0.0535 0.0692,-0.0471 0.17485,0.0192 2.50404,-1.33644 2.45297,-1.42773 -0.0261,-0.0466 -0.0166,-0.0568 0.021,-0.0228 0.0949,0.0859 0.72601,-0.2812 0.66188,-0.38496 -0.0299,-0.0483 -0.009,-0.0574 0.0495,-0.0214 0.0558,0.0345 0.19679,2.6e-4 0.31328,-0.0761 0.22419,-0.1469 0.55292,-0.10526 0.51986,0.0658 -0.0107,0.0554 0.031,0.0902 0.0927,0.0774 0.0617,-0.0128 0.0885,0.015 0.0596,0.0617 -0.0746,0.12077 0.11512,0.44304 0.22197,0.377 0.0566,-0.035 0.0539,0.0104 -0.007,0.12463 -0.0528,0.0987 -0.13467,0.17955 -0.18182,0.17955 -0.0472,0 -0.1854,0.10478 -0.30721,0.23283 -0.12181,0.12806 -0.19493,0.18681 -0.16249,0.13056 0.0324,-0.0563 -0.19946,0.0559 -0.51532,0.24925 -0.31586,0.19335 -1.39345,0.81847 -2.39463,1.38917 -1.00118,0.57071 -1.85843,1.06814 -1.905,1.10542 -0.0466,0.0373 -0.22872,0.13439 -0.40478,0.21581 -0.17606,0.0814 -0.3426,0.20666 -0.37009,0.27831 -0.0275,0.0716 -0.009,0.50032 0.0405,0.95262 0.0498,0.4523 0.1067,1.01286 0.12649,1.2457 0.11589,1.36368 0.69288,5.82837 0.82968,6.41993 0.052,0.22473 0.10878,0.58668 0.12624,0.80433 0.0175,0.21766 0.0707,0.73864 0.11835,1.15774 0.0996,0.87708 0.11791,1.06312 0.21204,2.159 0.038,0.44238 0.0599,0.92815 0.0487,1.0795 -0.0125,0.16881 0.0188,0.27516 0.0811,0.27516 0.0712,0 0.0755,0.0316 0.0144,0.10584 -0.0479,0.0582 -0.0865,0.39158 -0.0858,0.74083 0.002,1.04824 -0.11031,2.65152 -0.19747,2.81438 -0.0449,0.0838 -0.0625,0.18342 -0.0391,0.22127 0.0234,0.0378 -0.0315,0.42758 -0.12197,0.86608 -0.0905,0.4385 -0.165,0.92109 -0.16562,1.07244 -8.4e-4,0.15134 -0.0349,0.27516 -0.0762,0.27516 -0.1188,0 -0.1693,0.53737 -0.0632,0.67242 0.0737,0.0938 0.0713,0.10728 -0.0105,0.0581 -0.0663,-0.0398 -0.12506,-0.006 -0.15584,0.0896 -0.0272,0.0844 -0.0885,0.23562 -0.13639,0.33596 -0.0478,0.10033 -0.0612,0.22416 -0.0297,0.27516 0.0315,0.051 0.02,0.0927 -0.0256,0.0927 -0.0456,0 -0.10786,0.12383 -0.13831,0.27517 -0.0305,0.15134 -0.10672,0.38947 -0.16948,0.52917 -0.0627,0.1397 -0.12658,0.31115 -0.14185,0.381 -0.0153,0.0699 -0.0479,0.14605 -0.0726,0.16933 -0.0247,0.0233 -0.19612,0.34713 -0.381,0.71967 -0.1849,0.37253 -0.42309,0.77258 -0.52931,0.889 -0.10623,0.11641 -0.21514,0.29739 -0.24202,0.40216 -0.0269,0.10478 -0.0851,0.1905 -0.12935,0.1905 -0.0443,0 -0.0563,0.0391 -0.0269,0.0868 0.0295,0.0477 0.006,0.0763 -0.0517,0.0635 -0.0579,-0.0128 -0.18457,0.097 -0.28146,0.24401 -0.0969,0.14701 -0.29998,0.32737 -0.45132,0.4008 -0.15135,0.0734 -0.27517,0.19128 -0.27517,0.26189 0,0.0785 -0.0777,0.12837 -0.20025,0.12837 -0.11014,0 -0.29111,0.0709 -0.40216,0.15754 -0.11106,0.0866 -0.29717,0.14942 -0.41359,0.13949 -0.11642,-0.01 -0.28527,0.0324 -0.37523,0.094 -0.0902,0.0618 -0.20412,0.0811 -0.254,0.043 -0.19334,-0.14775 -0.38703,-0.16771 -0.50292,-0.0518 -0.10494,0.10495 -0.13479,0.10447 -0.22447,-0.004 z m -76.47584,-9.61107 c -0.365773,-0.063 -0.748966,-0.24288 -0.848247,-0.39827 -0.03724,-0.0583 -0.122964,-0.10597 -0.1905,-0.10597 -0.06754,0 -0.122793,-0.0607 -0.122793,-0.13493 0,-0.0742 -0.0762,-0.15485 -0.169333,-0.1792 -0.09313,-0.0244 -0.169333,-0.1147 -0.169333,-0.20077 0,-0.0861 -0.07727,-0.19783 -0.171705,-0.24837 -0.09444,-0.0505 -0.147855,-0.13048 -0.118706,-0.17765 0.02915,-0.0472 -0.0052,-0.15002 -0.07626,-0.22858 -0.126562,-0.13985 -0.141327,-0.17741 -0.141327,-0.3595 0,-0.0493 -0.03307,-0.0692 -0.07348,-0.0443 -0.04041,0.025 -0.07115,-0.0204 -0.06831,-0.10083 0.0028,-0.0804 -0.04048,-0.30344 -0.09628,-0.49555 -0.17729,-0.61044 -0.199304,-0.88051 -0.22688,-2.78337 -0.02572,-1.77494 0.0048,-2.26886 0.336486,-5.4425 0.0257,-0.24594 0.08791,-0.63917 0.138237,-0.87384 0.05033,-0.23467 0.07229,-0.50017 0.0488,-0.59 -0.02349,-0.0898 -0.0037,-0.16333 0.0439,-0.16333 0.04763,0 0.0684,-0.0952 0.04615,-0.21166 -0.02226,-0.11642 -0.0081,-0.21167 0.03151,-0.21167 0.03959,0 0.0706,-0.0857 0.06892,-0.1905 -0.0017,-0.10478 0.05688,-0.47625 0.130138,-0.8255 0.07326,-0.34925 0.150544,-0.76835 0.17174,-0.93133 0.0212,-0.16299 0.111757,-0.62019 0.201247,-1.016 0.08949,-0.39582 0.182212,-0.83397 0.20605,-0.97367 0.02384,-0.1397 0.08463,-0.4445 0.13509,-0.67733 0.05046,-0.23284 0.104932,-0.49954 0.121046,-0.59267 0.01611,-0.0931 0.05395,-0.26458 0.08409,-0.381 0.284376,-1.09862 0.557912,-2.39705 0.518434,-2.46093 -0.02688,-0.0435 -0.01602,-0.0791 0.02413,-0.0791 0.06062,0 0.302624,-0.88604 0.485635,-1.778 0.02389,-0.11642 0.158128,-0.68792 0.298315,-1.27 0.362768,-1.50628 0.679358,-3.25373 0.644198,-3.55571 -0.01651,-0.14177 0.0032,-0.27829 0.04375,-0.30336 0.0924,-0.0571 0.09772,-0.37426 0.0063,-0.37426 -0.116614,0 -0.70088,0.64274 -0.639794,0.70383 0.03199,0.032 0.01147,0.0582 -0.04561,0.0582 -0.05708,0 -0.08023,0.0381 -0.05145,0.0847 0.02878,0.0466 -0.005,0.0847 -0.07507,0.0847 -0.113761,0 -1.237262,1.34051 -1.237262,1.47624 0,0.0302 -0.03753,0.10092 -0.08339,0.15717 -0.419076,0.5139 -0.613675,0.79873 -1.233413,1.80532 -0.39129,0.63554 -0.687345,1.1945 -0.657902,1.24215 0.02944,0.0476 0.01583,0.0633 -0.03026,0.0348 -0.08027,-0.0496 -0.412515,0.50809 -0.380955,0.63946 0.0084,0.0349 -0.02285,0.0635 -0.06941,0.0635 -0.04657,0 -0.08467,0.0446 -0.08467,0.0992 0,0.0545 -0.0527,0.15932 -0.117106,0.23284 -0.255967,0.29216 -1.755349,3.30931 -1.69587,3.41252 0.03417,0.0593 0.03182,0.0804 -0.0052,0.047 -0.03703,-0.0334 -0.180229,0.1761 -0.318212,0.46567 -0.524382,1.10046 -0.996712,2.20526 -0.958946,2.24303 0.02161,0.0216 -0.01775,0.0963 -0.08747,0.16603 -0.06971,0.0697 -0.112461,0.16961 -0.095,0.22199 0.01746,0.0524 -0.0157,0.14271 -0.07371,0.20071 -0.058,0.058 -0.170634,0.30599 -0.250296,0.55109 -0.07966,0.2451 -0.230441,0.63618 -0.335065,0.86907 -0.237229,0.52807 -0.973786,2.71112 -0.973786,2.88617 0,0.0762 0.04015,0.10457 0.09775,0.069 0.06105,-0.0377 0.07475,-0.0232 0.03648,0.0387 -0.0337,0.0545 -0.09027,0.0812 -0.12572,0.0593 -0.03545,-0.0219 -0.227627,0.53944 -0.42706,1.24745 -0.199433,0.70801 -0.643823,2.2052 -0.987533,3.32709 -0.343711,1.1219 -0.707156,2.39239 -0.807655,2.82332 l -0.182726,0.7835 -0.473936,-0.0589 c -0.260664,-0.0324 -0.504198,-0.0775 -0.541186,-0.10013 -0.07236,-0.0443 -0.03389,-0.74871 0.05231,-0.95789 0.127528,-0.30946 0.646606,-2.64624 0.603363,-2.7162 -0.02644,-0.0428 -0.01249,-0.0778 0.031,-0.0778 0.04349,0 0.103462,-0.12382 0.133262,-0.27516 0.0298,-0.15135 0.245117,-0.95346 0.478483,-1.78248 0.233366,-0.82901 0.39836,-1.54928 0.366653,-1.60058 -0.03473,-0.0562 -0.01879,-0.0693 0.0401,-0.0329 0.05703,0.0352 0.102157,0.005 0.108332,-0.0716 0.01775,-0.22143 0.229322,-0.87321 0.963523,-2.96833 0.468968,-1.33825 0.619286,-1.79519 0.678896,-2.06372 0.03931,-0.17708 1.399171,-4.6684 1.680421,-5.55006 0.117748,-0.36912 0.196711,-0.69924 0.175471,-0.7336 -0.02124,-0.0344 -0.0072,-0.0753 0.0311,-0.0909 0.06583,-0.0268 1.206182,-3.44033 1.239863,-3.71139 0.0087,-0.0699 0.04103,-0.18415 0.07188,-0.254 0.140656,-0.31841 0.300673,-0.84667 0.256469,-0.84667 -0.02692,0 -0.01127,-0.0476 0.03479,-0.10583 0.147997,-0.18707 0.547244,-1.50425 0.496238,-1.63717 -0.02711,-0.0707 -0.01925,-0.10989 0.01747,-0.0872 0.05301,0.0328 0.736542,-1.86683 0.814613,-2.26386 0.01048,-0.0533 0.256967,-0.82948 0.547742,-1.72482 0.290774,-0.89533 0.500952,-1.67274 0.46706,-1.72758 -0.04143,-0.067 -0.02488,-0.077 0.05052,-0.0304 0.08142,0.0503 0.09733,0.0307 0.05807,-0.0716 -0.02973,-0.0775 -0.01889,-0.14089 0.02411,-0.14089 0.04299,0 0.106755,-0.14288 0.14169,-0.3175 0.07875,-0.39364 0.07391,-0.37575 0.143361,-0.53036 0.155647,-0.34651 0.632733,-1.98614 0.59546,-2.04645 -0.02346,-0.038 0.0021,-0.069 0.05688,-0.069 0.06019,0 0.08373,-0.0827 0.05956,-0.2091 -0.02199,-0.11501 -0.01325,-0.19259 0.01941,-0.17241 0.04996,0.0309 1.713437,-5.27633 1.806571,-5.76373 0.01707,-0.0893 0.07764,-0.27672 0.13459,-0.41641 0.05695,-0.13969 0.114593,-0.37701 0.128085,-0.52737 0.01349,-0.15036 0.06138,-0.32182 0.106412,-0.38102 0.04503,-0.0592 0.187526,-0.46686 0.316651,-0.90592 0.129125,-0.43906 0.253099,-0.84605 0.2755,-0.90443 0.03197,-0.0833 -0.262418,-0.32563 -0.718015,-0.591 -0.01395,-0.008 0.150529,-0.3045 0.365508,-0.65859 0.217688,-0.35857 0.363804,-0.68762 0.329781,-0.74267 -0.03734,-0.0604 -0.02435,-0.0761 0.03341,-0.0404 0.124072,0.0767 0.468729,-0.59637 0.398762,-0.7787 -0.02899,-0.0756 -0.02544,-0.1101 0.0079,-0.0768 0.03334,0.0333 0.128918,-0.0517 0.212397,-0.18897 0.08348,-0.13728 0.269551,-0.31049 0.41349,-0.38492 0.236368,-0.12223 0.286914,-0.12276 0.522029,-0.005 0.143175,0.0714 0.294736,0.10859 0.3368,0.0826 0.04206,-0.026 0.06912,-0.0159 0.06013,0.0225 -0.009,0.0384 0.01393,0.21571 0.05093,0.39405 0.04215,0.20315 0.03238,0.39288 -0.02616,0.508 -0.09785,0.19245 -0.20867,0.5258 -0.525487,1.58074 -0.104886,0.34925 -0.277266,0.9017 -0.383068,1.22767 -0.180068,0.55477 -0.729616,2.39598 -0.884472,2.96333 -0.03813,0.1397 -0.224203,0.75441 -0.413493,1.36602 -0.189291,0.61161 -0.360819,1.20216 -0.381172,1.31234 -0.02035,0.11017 -0.0446,0.20983 -0.05388,0.22148 -0.0093,0.0116 -0.024,0.0497 -0.03271,0.0847 -0.01495,0.06 -0.417237,1.37194 -0.68608,2.23751 -0.06765,0.21781 -0.09761,0.46218 -0.06657,0.54306 0.03274,0.0853 0.0223,0.12595 -0.02487,0.0968 -0.07621,-0.0471 -1.259818,3.55354 -1.259818,3.83247 0,0.0699 -0.02273,0.14605 -0.05052,0.16933 -0.09396,0.0787 -0.834136,2.39387 -0.788799,2.46723 0.02474,0.04 -0.0049,0.0734 -0.06585,0.0741 -0.08972,0.001 -0.08932,0.0149 0.0021,0.0729 0.09093,0.0576 0.0868,0.0816 -0.02117,0.12305 -0.07375,0.0283 -0.134099,0.10683 -0.134099,0.1745 0,0.0677 -0.111487,0.45083 -0.247748,0.85146 -0.136262,0.40062 -0.255126,0.75601 -0.264143,0.78977 -0.009,0.0338 -0.05159,0.15396 -0.09462,0.26711 -0.04302,0.11316 -0.08608,0.28461 -0.09569,0.381 -0.0096,0.0964 -0.05131,0.19982 -0.09267,0.22982 -0.04136,0.03 -0.07946,0.16956 -0.08467,0.3101 -0.0052,0.14054 -0.02553,0.23963 -0.04517,0.22018 -0.06038,-0.0598 -0.431088,1.18601 -0.387845,1.30339 0.02233,0.0606 0.01029,0.0915 -0.02676,0.0686 -0.06017,-0.0372 -0.555603,1.34142 -0.635557,1.76851 -0.01744,0.0931 -0.05447,0.22648 -0.0823,0.29633 -0.192853,0.48401 -0.490203,1.46019 -0.455385,1.49501 0.02326,0.0232 0.146656,-0.14168 0.274216,-0.36653 0.274022,-0.48301 0.656609,-1.12253 0.953678,-1.59415 0.117329,-0.18626 0.295904,-0.47201 0.396834,-0.635 0.68483,-1.10588 2.018389,-2.96282 2.178792,-3.03389 0.03503,-0.0155 0.0637,-0.0656 0.0637,-0.11129 0,-0.0457 0.1143,-0.17926 0.254,-0.29681 0.1397,-0.11755 0.254,-0.2428 0.254,-0.27834 3e-6,-0.0793 1.150984,-1.275 1.227334,-1.275 0.03012,0 0.111897,-0.0571 0.181725,-0.12696 0.06983,-0.0698 0.276656,-0.1509 0.459619,-0.18015 0.182962,-0.0293 0.332658,-0.0864 0.332658,-0.12704 0,-0.0406 0.07144,-0.002 0.15875,0.0849 0.08731,0.0873 0.192088,0.17304 0.232834,0.1905 0.04075,0.0175 0.164969,0.16101 0.276053,0.319 0.111083,0.15799 0.152234,0.25652 0.09144,0.21895 -0.08063,-0.0498 -0.09519,-0.0283 -0.0538,0.0795 0.0312,0.0813 0.05672,0.18688 0.05672,0.23462 0,0.0477 0.06667,0.0636 0.148167,0.0352 0.132044,-0.046 0.133641,-0.0401 0.01468,0.0544 -0.08971,0.0713 -0.139945,0.27101 -0.153172,0.60906 -0.01083,0.27666 -0.03397,0.52614 -0.05144,0.5544 -0.02917,0.0472 -0.283428,1.42805 -0.335345,1.82125 -0.0123,0.0931 -0.06466,0.32173 -0.116364,0.508 -0.09422,0.33945 -0.494913,1.96807 -0.562426,2.286 -0.01978,0.0931 -0.135426,0.56938 -0.256998,1.05833 -0.487058,1.9589 -0.80696,3.42556 -0.768838,3.5249 0.02212,0.0576 0.0096,0.11681 -0.02782,0.13146 -0.09692,0.0379 -0.709172,3.09975 -0.650443,3.25279 0.0268,0.0698 0.01651,0.10707 -0.02287,0.0827 -0.03938,-0.0243 -0.115907,0.21181 -0.170069,0.52477 -0.252996,1.46185 -0.532869,3.31862 -0.55796,3.70168 -0.01525,0.23284 -0.04786,0.48049 -0.07247,0.55034 -0.09663,0.27427 -0.237895,2.0689 -0.283234,3.59833 -0.04234,1.42843 0.004,2.21608 0.174372,2.96333 0.02123,0.0931 0.04152,0.20016 0.04509,0.23783 0.0036,0.0377 0.0541,0.0399 0.112311,0.005 0.0815,-0.049 0.08095,-0.0328 -0.0024,0.0701 -0.0892,0.11015 -0.07688,0.21746 0.07008,0.61024 0.09807,0.26212 0.270958,0.58668 0.384191,0.72125 0.215758,0.25642 0.712301,0.49061 0.712301,0.33596 0,-0.0469 0.04165,-0.0595 0.09256,-0.0281 0.218787,0.13522 1.939378,-1.95849 1.797768,-2.18762 -0.0296,-0.0479 -0.01667,-0.0641 0.02873,-0.0361 0.157893,0.0976 2.182158,-3.9126 2.276021,-4.50892 0.149635,-0.95065 0.168926,-1.19408 0.103841,-1.31038 -0.04819,-0.0861 -0.04002,-0.13222 0.02341,-0.13222 0.06348,0 0.08685,-0.13268 0.0671,-0.381 -0.01667,-0.20955 -0.0042,-0.381 0.02772,-0.381 0.03191,0 0.08257,-0.21907 0.112581,-0.48683 0.03001,-0.26776 0.07575,-0.54398 0.101647,-0.61383 0.0259,-0.0699 0.05912,-0.2032 0.07383,-0.29634 0.09985,-0.63209 0.345541,-1.58798 0.576695,-2.24366 0.07387,-0.20955 0.134871,-0.46355 0.135549,-0.56445 6.78e-4,-0.10089 0.03027,-0.19614 0.06576,-0.21166 0.03549,-0.0155 0.216125,-0.48543 0.401415,-1.04423 0.185291,-0.5588 0.366817,-1.03792 0.403391,-1.06472 0.03657,-0.0268 0.07501,-0.16596 0.08542,-0.30925 0.01041,-0.14329 0.04749,-0.24294 0.08242,-0.22145 0.03493,0.0215 0.0635,-0.006 0.0635,-0.0612 0,-0.0973 0.06323,-0.25154 0.726722,-1.77242 0.17268,-0.39581 0.31072,-0.78716 0.30674,-0.86966 -0.004,-0.0825 0.0242,-0.13061 0.0625,-0.10691 0.0383,0.0237 0.11889,-0.0802 0.17899,-0.231 0.0601,-0.15075 0.18238,-0.38022 0.27173,-0.50993 0.0894,-0.12971 0.14029,-0.29362 0.11319,-0.36423 -0.0319,-0.0832 -0.0148,-0.10708 0.0488,-0.0678 0.0661,0.0409 0.0799,0.0132 0.0423,-0.0847 -0.0307,-0.0799 -0.0242,-0.12581 0.0143,-0.102 0.0385,0.0238 0.15781,-0.11709 0.26508,-0.3131 0.10727,-0.19602 0.4015,-0.67059 0.65383,-1.0546 0.27094,-0.41232 0.43379,-0.74166 0.39772,-0.80433 -0.0336,-0.0584 -0.0298,-0.0778 0.008,-0.0432 0.0809,0.0733 0.35058,-0.27631 0.30978,-0.40163 -0.0152,-0.0466 5e-5,-0.0571 0.0338,-0.0233 0.0811,0.0811 0.80337,-0.96014 0.73866,-1.06484 -0.0275,-0.0446 -0.008,-0.0553 0.0424,-0.0239 0.0509,0.0314 0.16153,-0.0458 0.24591,-0.17168 0.2178,-0.32481 1.86917,-1.97598 1.97623,-1.97598 0.049,0 0.19542,-0.0786 0.32541,-0.17474 0.12999,-0.0961 0.29037,-0.1855 0.35641,-0.19866 0.066,-0.0131 0.23436,-0.0712 0.37406,-0.12911 0.37581,-0.15564 0.62398,-0.2091 1.73566,-0.37384 0.83971,-0.12444 1.54486,-0.11096 2.00918,0.0384 0.15043,0.0484 0.30911,0.066 0.3526,0.0391 0.0435,-0.0269 0.0919,-0.0185 0.10749,0.0187 0.0783,0.1864 0.64168,0.43007 0.90021,0.38933 0.22289,-0.0351 0.32055,0.004 0.52643,0.20963 0.38034,0.38034 0.35629,0.83653 -0.0714,1.35471 -0.28947,0.3507 -0.67442,1.11242 -0.56219,1.11242 0.024,0 -0.0101,0.0857 -0.0756,0.1905 -0.0656,0.10477 -0.27736,0.6858 -0.47063,1.29116 -0.19327,0.60537 -0.42663,1.32927 -0.51858,1.60867 -0.19054,0.57898 -0.20848,0.75624 -0.0677,0.66925 0.061,-0.0377 0.0747,-0.0232 0.0365,0.0387 -0.0337,0.0545 -0.0896,0.0816 -0.12428,0.0602 -0.0519,-0.0321 -0.44534,1.33737 -0.5587,1.94464 -0.017,0.0912 -0.0367,0.16588 -0.0437,0.16588 -0.007,0 -0.032,0.0953 -0.0555,0.21166 -0.053,0.26292 -0.0614,0.2959 -0.19011,0.74971 -0.0575,0.20279 -0.0842,0.42186 -0.0593,0.48683 0.0249,0.065 0.0134,0.11813 -0.0257,0.11813 -0.0597,0 -0.19505,0.52973 -0.31358,1.22767 -0.0158,0.0931 -0.12537,0.62653 -0.24345,1.18533 -0.22702,1.07442 -0.73599,3.96984 -0.88553,5.03767 -0.52075,3.7184 -0.72216,6.7186 -0.50272,7.48861 0.0831,0.29142 0.30961,0.49532 0.47838,0.43056 0.062,-0.0238 0.0894,-0.006 0.0609,0.0405 -0.0914,0.14792 0.18237,0.0893 0.40659,-0.0871 0.12536,-0.0986 0.23872,-0.13597 0.26813,-0.0884 0.028,0.0454 0.10346,0.0623 0.16761,0.0377 0.0711,-0.0273 0.14006,0.032 0.17663,0.15187 0.033,0.10814 0.1145,0.25881 0.1811,0.33483 0.14373,0.16404 0.0687,0.58146 -0.10454,0.58146 -0.13567,0 -0.54459,0.42158 -0.54459,0.56145 0,0.0536 -0.10477,0.12367 -0.23283,0.15563 -0.12806,0.032 -0.28998,0.10714 -0.35983,0.16706 -0.1624,0.13932 -0.74357,0.23017 -0.80778,0.12628 -0.0269,-0.0435 -0.12284,-0.0791 -0.21322,-0.0791 -0.0904,0 -0.16434,-0.0381 -0.16434,-0.0847 0,-0.0466 -0.0489,-0.0847 -0.10874,-0.0847 -0.0598,0 -0.17626,-0.1143 -0.25879,-0.254 -0.0825,-0.1397 -0.18824,-0.254 -0.23492,-0.254 -0.0467,0 -0.0619,-0.0372 -0.0338,-0.0827 0.0281,-0.0455 0.008,-0.24141 -0.0438,-0.43539 -0.0522,-0.19397 -0.0962,-0.76635 -0.0977,-1.27195 -10e-4,-0.5056 -0.0357,-0.91928 -0.0761,-0.91928 -0.0408,0 -0.0416,-0.0845 -0.002,-0.1905 0.0393,-0.10477 0.0974,-0.5334 0.1291,-0.9525 0.0317,-0.4191 0.10661,-1.04775 0.16653,-1.397 0.0677,-0.39472 0.0785,-0.65515 0.0286,-0.68825 -0.0506,-0.0335 -0.0502,-0.0649 8.4e-4,-0.0847 0.0447,-0.0173 0.10451,-0.23267 0.13292,-0.47865 0.0579,-0.50114 -0.0172,-0.51397 -0.2398,-0.041 -0.0825,0.17538 -0.2967,0.53585 -0.47596,0.80105 -0.17926,0.26521 -0.32592,0.50775 -0.32592,0.53899 0,0.0312 -0.12842,0.23336 -0.28538,0.44915 -0.15696,0.21579 -0.34996,0.51912 -0.4289,0.67407 -0.0789,0.15495 -0.27437,0.45314 -0.43429,0.66265 -0.15992,0.20951 -0.29077,0.44572 -0.29077,0.52492 0,0.0792 -0.10477,0.24193 -0.23283,0.36162 -0.34073,0.31848 -0.6114,0.69014 -0.6127,0.84133 -5.9e-4,0.0727 -0.11827,0.21884 -0.26143,0.32469 -0.14761,0.10913 -0.24111,0.24245 -0.21598,0.30794 0.027,0.0704 0.001,0.099 -0.0657,0.0733 -0.064,-0.0245 -0.16406,0.0693 -0.23902,0.22402 -0.0709,0.14645 -0.21948,0.31338 -0.33012,0.37097 -0.11064,0.0576 -0.1907,0.15206 -0.1779,0.20992 0.0128,0.0579 -0.009,0.0853 -0.0484,0.0609 -0.0794,-0.0491 -0.35587,0.23939 -0.35587,0.37133 0,0.0724 -0.17367,0.11997 -0.35171,0.0964 -0.0305,-0.004 -0.1018,0.0486 -0.15853,0.11697 -0.0567,0.0684 -0.15562,0.12429 -0.21977,0.12429 -0.0641,0 -0.11663,0.0381 -0.11663,0.0847 0,0.0466 -0.0978,0.0847 -0.21723,0.0847 -0.11948,0 -0.29337,0.0407 -0.38641,0.0905 -0.12058,0.0645 -0.20103,0.0641 -0.28004,-0.001 -0.061,-0.0506 -0.1694,-0.0695 -0.24095,-0.0421 -0.143079,0.0549 -0.653369,-0.17606 -0.653369,-0.29572 0,-0.0413 -0.09017,-0.0651 -0.200371,-0.053 -0.158413,0.0174 -0.191749,-0.011 -0.159195,-0.13547 0.02661,-0.10176 -0.03728,-0.21917 -0.180629,-0.33193 -0.121993,-0.0959 -0.221805,-0.22353 -0.221805,-0.28351 0,-0.06 -0.092,-0.2446 -0.204442,-0.4103 -0.112443,-0.16569 -0.185974,-0.31973 -0.163404,-0.3423 0.02257,-0.0226 -0.03887,-0.20642 -0.13653,-0.40856 -0.09766,-0.20214 -0.200782,-0.52014 -0.229155,-0.70668 -0.02837,-0.18654 -0.07918,-0.37726 -0.112903,-0.42383 -0.03372,-0.0466 -0.06553,-0.22941 -0.07069,-0.40633 -0.0052,-0.17692 -0.03898,-0.36742 -0.07517,-0.42333 -0.03619,-0.0559 -0.0701,-0.19692 -0.07535,-0.31334 -0.0052,-0.11641 -0.01483,-0.2612 -0.02129,-0.32173 -0.0065,-0.0605 -0.264652,0.37761 -0.573768,0.97366 -0.499862,0.96387 -0.793601,1.5046 -1.099143,2.02338 -0.05216,0.0886 -0.08408,0.22788 -0.07093,0.3096 0.01315,0.0817 -0.0058,0.13023 -0.04201,0.10783 -0.120567,-0.0745 -0.481247,0.46833 -0.438559,0.66006 0.0085,0.0384 -0.02377,0.0455 -0.07182,0.0158 -0.04805,-0.0297 -0.111409,0.009 -0.1408,0.0853 -0.08998,0.23448 -0.757018,0.86255 -1.144823,1.07794 -0.468683,0.26031 -0.632209,0.29684 -1.02567,0.22911 z m 8.22127,-3.27761 c 0.0615,-0.0812 0.15372,-0.13594 0.20495,-0.12165 0.11865,0.0331 1.42506,-1.25987 1.36733,-1.35327 -0.0237,-0.0383 -0.005,-0.0697 0.0413,-0.0697 0.10391,0 1.34377,-1.46163 1.57096,-1.85196 0.0434,-0.0746 0.14255,-0.20394 0.22023,-0.28732 0.20845,-0.22374 0.69193,-0.90872 0.64141,-0.90872 -0.0239,0 0.0417,-0.092 0.14587,-0.20439 0.10418,-0.11242 0.24524,-0.31244 0.31346,-0.4445 0.0682,-0.13206 0.1698,-0.28859 0.22573,-0.34785 0.0559,-0.0593 0.33969,-0.49012 0.63058,-0.95748 0.46752,-0.75113 0.55151,-0.84405 0.7238,-0.80081 0.12643,0.0317 0.19546,0.0112 0.19644,-0.0585 8.5e-4,-0.0591 0.0563,-0.46751 0.1233,-0.90757 0.0954,-0.62678 0.0996,-0.82748 0.0196,-0.92642 -0.075,-0.0927 -0.0756,-0.11039 -0.002,-0.0665 0.058,0.0348 0.11862,-0.003 0.14486,-0.0896 0.0442,-0.14622 0.34993,-1.9761 0.42819,-2.5624 0.0218,-0.16298 0.0623,-0.41063 0.0901,-0.55033 0.0278,-0.1397 0.18157,-0.92075 0.34169,-1.73567 0.1601,-0.81492 0.32853,-1.63407 0.37427,-1.82033 0.0457,-0.18627 0.14475,-0.60537 0.22002,-0.93134 0.0753,-0.32596 0.24952,-0.9648 0.38723,-1.41963 0.13771,-0.45484 0.22339,-0.87394 0.19039,-0.93134 -0.033,-0.0574 -0.0271,-0.0744 0.0131,-0.0378 0.0402,0.0366 0.17371,-0.23008 0.29668,-0.59267 0.12298,-0.36258 0.2692,-0.77059 0.32493,-0.90668 0.0557,-0.13609 0.0812,-0.29999 0.0565,-0.36423 -0.0246,-0.0642 -0.0145,-0.0981 0.0226,-0.0752 0.0371,0.0229 0.18444,-0.27039 0.32752,-0.65177 0.14307,-0.38138 0.3487,-0.92646 0.45697,-1.2113 0.17349,-0.45649 0.18202,-0.53271 0.0719,-0.6428 -0.2012,-0.2012 -0.46927,-0.31908 -0.91996,-0.40455 -0.46545,-0.0883 -1.55079,-0.0189 -1.48063,0.0946 0.0244,0.0394 -0.0162,0.0485 -0.0901,0.0201 -0.2196,-0.0843 -1.37084,0.38541 -1.88985,0.77102 -0.84176,0.62541 -2.18984,2.08565 -2.08382,2.2572 0.0368,0.0595 0.025,0.0769 -0.0293,0.0434 -0.0824,-0.0509 -0.84511,0.9339 -0.89051,1.14976 -0.0102,0.0486 -0.10568,0.18549 -0.21214,0.30424 -0.10915,0.12175 -0.17181,0.27255 -0.14369,0.34582 0.0274,0.0715 0.0234,0.10351 -0.009,0.0712 -0.12814,-0.12815 -1.32253,2.05847 -2.09692,3.83895 -0.47663,1.09586 -1.43552,3.80118 -1.39568,3.93767 0.0123,0.0421 -0.028,0.16751 -0.0895,0.27864 -0.0615,0.11113 -0.11722,0.34534 -0.123822,0.52047 -0.0066,0.17512 -0.0344,0.30484 -0.06177,0.28827 -0.06714,-0.0407 -0.24238,0.736 -0.212302,0.94093 0.01458,0.0993 0.125678,0.19234 0.283961,0.23773 0.143013,0.041 0.278753,0.14625 0.301663,0.23385 0.0229,0.0876 0.007,0.13792 -0.0351,0.11182 -0.0703,-0.0435 -0.10922,0.0985 -0.0997,0.3638 0.002,0.0577 -0.0231,0.0883 -0.0559,0.068 -0.08359,-0.0517 -0.435755,1.14331 -0.370625,1.25761 0.02928,0.0514 0.02022,0.0633 -0.02014,0.0266 -0.04036,-0.0368 -0.180304,0.21088 -0.31099,0.55033 -0.224729,0.58373 -0.23762,0.69065 -0.237736,1.97186 -6.8e-5,0.74507 0.01939,1.44992 0.04323,1.56634 0.02385,0.11641 0.06382,0.42782 0.08882,0.69201 0.09352,0.98822 0.432012,1.90946 0.858161,2.33561 0.18515,0.18514 0.25915,0.20435 0.60632,0.15742 0.22552,-0.0305 0.44347,-0.11689 0.50724,-0.20108 z m 46.09982,2.71819 c -0.0207,-0.0536 -0.16626,-0.12163 -0.32339,-0.15111 -0.16403,-0.0308 -0.30566,-0.11651 -0.33259,-0.20134 -0.0258,-0.0813 -0.15804,-0.18971 -0.2939,-0.24099 -0.15884,-0.06 -0.25784,-0.16482 -0.27739,-0.2938 -0.0167,-0.11032 -0.0799,-0.19011 -0.1405,-0.17732 -0.0606,0.0128 -0.0879,-0.0127 -0.0607,-0.0567 0.0272,-0.044 -0.008,-0.13744 -0.0784,-0.20772 -0.0703,-0.0703 -0.12778,-0.22575 -0.12778,-0.34549 0,-0.11974 -0.0381,-0.21771 -0.0847,-0.21771 -0.0466,0 -0.0847,-0.0762 -0.0847,-0.16934 0,-0.0931 -0.0408,-0.16933 -0.0907,-0.16933 -0.0499,0 -0.0821,-0.0857 -0.0716,-0.1905 0.0193,-0.19198 -0.0724,-0.62636 -0.16518,-0.78317 -0.0276,-0.0466 -0.0587,-0.28391 -0.0691,-0.52744 -0.0104,-0.24353 -0.0589,-0.51744 -0.10774,-0.6087 -0.0616,-0.11512 -0.0618,-0.18263 -8.5e-4,-0.22051 0.0486,-0.03 0.0693,-0.11807 0.046,-0.19564 -0.22315,-0.74253 0.0578,-3.91041 0.62383,-7.03322 0.0456,-0.25163 0.063,-0.48976 0.0386,-0.52917 -0.0244,-0.0394 0.006,-0.0722 0.0666,-0.0729 0.0805,-9.4e-4 0.0761,-0.0237 -0.0162,-0.0834 -0.0699,-0.0451 -0.0887,-0.0827 -0.0419,-0.0834 0.13926,-0.002 0.28483,-0.56971 0.1764,-0.68777 -0.0669,-0.0728 -0.0658,-0.0856 0.004,-0.0466 0.0538,0.0301 0.11564,-0.0205 0.14024,-0.11458 0.0251,-0.0961 0.002,-0.16894 -0.0539,-0.16968 -0.0717,-9.5e-4 -0.0724,-0.018 -0.003,-0.0635 0.0524,-0.0342 0.13725,-0.23365 0.18865,-0.4432 0.21142,-0.86191 0.56806,-2.16462 0.61424,-2.24367 0.0272,-0.0466 0.0976,-0.27517 0.15651,-0.508 0.0589,-0.23283 0.21374,-0.74718 0.34414,-1.143 0.13042,-0.39582 0.3217,-1.00542 0.4251,-1.35467 0.10339,-0.34925 0.21545,-0.6731 0.24901,-0.71966 0.0796,-0.11047 0.53427,-1.49238 0.53621,-1.62984 8.5e-4,-0.0582 0.0215,-0.0858 0.046,-0.0613 0.0547,0.0547 0.44576,-0.94596 0.47165,-1.20684 0.0103,-0.10377 0.0863,-0.26329 0.1688,-0.3545 0.0845,-0.0934 0.12225,-0.21086 0.0864,-0.26891 -0.0383,-0.062 -0.0284,-0.0812 0.025,-0.0482 0.0499,0.0308 0.11369,-0.0447 0.14576,-0.17244 0.0314,-0.125 0.16684,-0.44859 0.30105,-0.71908 0.1342,-0.2705 0.21738,-0.4924 0.18482,-0.49311 -0.0325,-6.8e-4 -0.02,-0.0293 0.0278,-0.0635 0.10919,-0.0781 0.40688,-0.74506 0.40688,-0.91165 0,-0.0683 0.0337,-0.12422 0.0749,-0.12422 0.0798,0 0.34337,-0.56346 0.34656,-0.74083 10e-4,-0.0582 0.0266,-0.10584 0.0568,-0.10584 0.0464,0 0.35372,-0.54783 0.37999,-0.67733 0.005,-0.0233 0.0603,-0.13758 0.12363,-0.254 0.6528,-1.20109 0.85209,-1.62568 0.80148,-1.70759 -0.0352,-0.0569 -0.0223,-0.0734 0.0314,-0.0403 0.0502,0.031 0.14501,-0.0485 0.21127,-0.17742 0.0661,-0.12854 0.20619,-0.3766 0.31133,-0.55122 0.10515,-0.17463 0.16863,-0.3175 0.14105,-0.3175 -0.0276,0 0.0297,-0.0918 0.12733,-0.20411 0.0976,-0.11226 0.18036,-0.23608 0.1839,-0.27516 0.004,-0.0391 0.0568,-0.12141 0.1183,-0.18294 0.0615,-0.0615 0.11188,-0.16041 0.11188,-0.21972 0,-0.0593 0.0762,-0.17679 0.16933,-0.26107 0.0931,-0.0843 0.16934,-0.21507 0.16934,-0.29064 0,-0.0756 0.0794,-0.20536 0.17639,-0.28842 0.097,-0.0831 0.15536,-0.20584 0.12965,-0.27282 -0.0257,-0.067 0.001,-0.12179 0.0599,-0.12179 0.0587,0 0.24153,-0.14287 0.40636,-0.3175 0.29266,-0.31004 0.83614,-0.66502 0.83653,-0.54639 0,0.0328 0.10487,0.0647 0.23283,0.0709 0.12795,0.006 0.34694,0.06 0.48664,0.1195 0.1397,0.0595 0.2812,0.10248 0.31445,0.0955 0.0333,-0.007 0.0387,0.044 0.0121,0.11333 -0.0266,0.0693 -0.006,0.12599 0.0454,0.12599 0.0515,0 0.0937,0.0583 0.0937,0.12965 0,0.0713 0.0572,0.15159 0.127,0.1784 0.0699,0.0268 0.127,0.1399 0.127,0.25134 0,0.11143 0.0425,0.20261 0.0945,0.20261 0.0528,0 0.075,0.0746 0.0503,0.16925 -0.0243,0.0931 -0.007,0.19219 0.0382,0.22023 0.0454,0.028 0.062,0.10427 0.037,0.16941 -0.025,0.0651 -0.0171,0.11844 0.0176,0.11844 0.0347,0 0.0621,0.20954 0.0608,0.46564 -0.001,0.25611 -0.0213,0.4657 -0.0446,0.46577 -0.0233,6e-5 -0.0471,0.25725 -0.0528,0.57152 -0.015,0.81961 -0.10089,1.81616 -0.28997,3.3654 -0.21668,1.77531 -0.27439,2.31274 -0.28415,2.64584 -0.004,0.15134 -0.0323,0.27516 -0.062,0.27516 -0.0296,0 -0.0798,0.18098 -0.11145,0.40217 -0.16412,1.14659 -0.65853,3.62318 -0.72821,3.64772 -0.0441,0.0155 -0.0801,0.0822 -0.0801,0.14817 0,0.15413 -0.0983,0.15099 -0.64237,-0.0205 -0.28541,-0.09 -0.46025,-0.19653 -0.48638,-0.29645 -0.0224,-0.0858 -0.011,-0.13758 0.0254,-0.11507 0.11401,0.0705 0.22761,-0.41467 0.59439,-2.53835 0.27958,-1.61878 0.36618,-2.27586 0.37552,-2.84942 0.004,-0.21674 0.0306,-0.37915 0.0601,-0.36092 0.0704,0.0435 0.1868,-1.20426 0.12208,-1.30897 -0.0274,-0.0443 -0.012,-0.0933 0.0342,-0.10896 0.0858,-0.029 0.17372,-1.47799 0.18106,-2.98237 0.003,-0.60914 -0.0267,-0.85681 -0.1088,-0.90887 -0.0906,-0.0574 -0.0878,-0.0721 0.0141,-0.0742 0.0748,-0.002 0.0922,-0.0282 0.0423,-0.0648 -0.0466,-0.0342 -0.0847,-0.13523 -0.0847,-0.22448 0,-0.30212 -0.19063,-0.22805 -0.57128,0.22198 -0.35683,0.42187 -1.07972,1.50578 -1.07972,1.61895 0,0.0284 0.0667,0.0303 0.14817,0.004 0.12079,-0.0389 0.12545,-0.0316 0.0252,0.0394 -0.0676,0.0479 -0.15172,0.0693 -0.18689,0.0476 -0.0845,-0.0522 -0.34568,0.45697 -0.2849,0.55532 0.0259,0.042 0.003,0.1039 -0.052,0.1376 -0.0619,0.0383 -0.0764,0.0246 -0.0387,-0.0365 0.0332,-0.0538 0.0384,-0.0977 0.0115,-0.0977 -0.0874,0 -1.6562,3.23066 -1.60726,3.30984 0.0261,0.0422 0.0121,0.0768 -0.0311,0.0768 -0.16001,0 -1.82373,4.01529 -1.76289,4.25462 0.0207,0.0816 0.006,0.12894 -0.0319,0.10529 -0.088,-0.0544 -0.20487,0.25744 -0.93201,2.48607 -0.3245,0.99456 -0.57101,1.83904 -0.54779,1.8766 0.0232,0.0376 0.011,0.0811 -0.0271,0.0967 -0.10528,0.0431 -0.54477,1.67345 -0.48975,1.81682 0.0265,0.069 0.017,0.10614 -0.0211,0.0826 -0.0576,-0.0356 -0.33987,0.95228 -0.39681,1.38862 -0.009,0.0699 -0.039,0.18415 -0.0663,0.254 -0.11604,0.29624 -0.41053,2.04424 -0.36458,2.16397 0.0276,0.0719 0.0182,0.11104 -0.0209,0.0869 -0.13418,-0.0829 -0.5134,3.14507 -0.51741,4.40425 -0.003,0.81384 0.0844,1.73574 0.15936,1.6894 0.0293,-0.0181 0.0385,0.12131 0.0205,0.30979 -0.0249,0.26137 -0.007,0.3269 0.075,0.27613 0.0696,-0.043 0.0867,-0.0326 0.0484,0.0294 -0.0758,0.12271 0.11938,0.78586 0.2141,0.72732 0.0391,-0.0242 0.0513,0.008 0.0271,0.0709 -0.0566,0.14755 0.32603,0.70566 0.4628,0.67501 0.0571,-0.0128 0.0807,0.0142 0.0524,0.0599 -0.0782,0.12646 0.41265,0.34438 0.77544,0.3443 0.34693,-7e-5 1.26406,-0.39213 1.4539,-0.62152 0.0639,-0.0772 0.16653,-0.14041 0.22803,-0.14041 0.0615,0 0.17115,-0.0847 0.24364,-0.18817 0.0725,-0.1035 0.1318,-0.15598 0.1318,-0.11664 0,0.0394 0.0567,0.0245 0.12607,-0.0331 0.0693,-0.0575 0.10133,-0.14794 0.0711,-0.20087 -0.0302,-0.0529 -0.0218,-0.066 0.0188,-0.029 0.078,0.0711 0.17811,-0.0176 1.28521,-1.13927 0.38324,-0.38828 0.69757,-0.75359 0.6985,-0.81179 9.3e-4,-0.0582 0.0342,-0.0963 0.074,-0.0847 0.12515,0.0366 0.87589,-0.85678 0.8098,-0.9637 -0.0367,-0.0594 -0.0252,-0.0771 0.0286,-0.0439 0.12369,0.0764 1.18807,-1.27638 1.25451,-1.59446 0.0293,-0.14051 0.12162,-0.48407 0.20506,-0.76347 0.0834,-0.2794 0.23589,-0.79375 0.33878,-1.143 0.1029,-0.34925 0.35336,-1.12642 0.55659,-1.72704 0.20322,-0.60063 0.35146,-1.12125 0.32939,-1.15694 -0.0221,-0.0357 -0.0113,-0.0777 0.0239,-0.0933 0.10979,-0.0487 0.46166,-0.99132 0.40454,-1.08373 -0.0298,-0.0482 -0.0209,-0.0877 0.0197,-0.0877 0.0406,0 0.17882,-0.27622 0.30709,-0.61383 0.12827,-0.33761 0.36848,-0.93572 0.5338,-1.32913 0.16531,-0.39342 0.3056,-0.79934 0.31174,-0.90205 0.006,-0.1027 0.0322,-0.17374 0.058,-0.15786 0.0257,0.0159 0.21321,-0.35925 0.41663,-0.83362 0.2034,-0.47438 0.50041,-1.14826 0.66002,-1.49751 0.1596,-0.34925 0.35991,-0.7874 0.44513,-0.97366 0.0852,-0.18627 0.48622,-1.02447 0.89112,-1.86267 0.40489,-0.8382 0.73782,-1.57163 0.73985,-1.62983 0.002,-0.0582 0.0395,-0.10584 0.0833,-0.10584 0.0438,0 0.0569,-0.0591 0.0292,-0.13139 -0.0277,-0.0723 -0.02,-0.11258 0.0173,-0.0896 0.0923,0.057 1.12788,-1.93832 1.05043,-2.02395 -0.0339,-0.0375 -0.0221,-0.0458 0.0263,-0.0183 0.0484,0.0274 0.18095,-0.12838 0.29456,-0.34626 0.29894,-0.57335 1.24823,-2.13849 1.39621,-2.302 0.0694,-0.0767 0.12622,-0.19468 0.12622,-0.26216 0,-0.0675 0.0762,-0.18793 0.16934,-0.26767 0.0931,-0.0797 0.16933,-0.19844 0.16933,-0.26376 0,-0.0653 0.0572,-0.1407 0.127,-0.1675 0.0699,-0.0268 0.127,-0.10708 0.127,-0.1784 0,-0.0713 0.0487,-0.12965 0.10819,-0.12965 0.12001,0 0.44983,-0.34627 0.42048,-0.44146 -0.0102,-0.0333 0.0315,-0.0412 0.0927,-0.0177 0.0613,0.0235 0.21425,0.004 0.33997,-0.0442 0.1687,-0.0641 0.32076,-0.0551 0.58042,0.0343 0.1935,0.0667 0.38296,0.10198 0.42101,0.0785 0.0381,-0.0235 0.0692,0.0126 0.0692,0.0802 0,0.0676 0.0572,0.14487 0.127,0.17167 0.0699,0.0268 0.127,0.10708 0.127,0.17839 0,0.0713 0.0355,0.12966 0.079,0.12966 0.0839,0 0.22205,0.33166 0.18884,0.45341 -0.0109,0.0398 0.0133,0.11603 0.0538,0.16934 0.0404,0.0533 0.0592,0.47792 0.0418,0.94358 -0.0428,1.14368 -0.058,1.30174 -0.12134,1.2626 -0.0299,-0.0185 -0.0731,0.09 -0.096,0.24092 -0.0229,0.15096 -0.14135,0.66744 -0.26318,1.14771 -0.34222,1.34912 -0.30142,1.41424 0.24864,0.39677 0.17622,-0.32596 0.4094,-0.74506 0.51818,-0.93133 0.10876,-0.18627 0.27607,-0.49107 0.37178,-0.67733 0.0957,-0.18627 0.26821,-0.46994 0.38333,-0.63038 0.11512,-0.16044 0.19042,-0.34096 0.16732,-0.40115 -0.0231,-0.0602 -0.004,-0.10037 0.0414,-0.0893 0.0459,0.0111 0.18736,-0.17035 0.31445,-0.40318 0.12709,-0.23284 0.26918,-0.45052 0.31575,-0.48375 0.0466,-0.0332 0.0847,-0.0931 0.0847,-0.13305 0,-0.0948 0.19663,-0.2883 0.48362,-0.47597 0.19411,-0.12694 0.27537,-0.13506 0.52558,-0.0525 0.57618,0.19016 0.72545,0.71824 0.46736,1.65325 -0.0514,0.18626 -0.11358,0.44242 -0.13814,0.56923 -0.0438,0.22652 -0.0532,0.22967 -0.53015,0.17982 l -0.48552,-0.0507 -0.22412,0.40099 c -0.12326,0.22055 -0.19952,0.44079 -0.16946,0.48943 0.0308,0.0499 0.0141,0.0634 -0.0384,0.0309 -0.10404,-0.0643 -1.56687,2.80091 -1.49192,2.92218 0.0246,0.0399 0.0128,0.0725 -0.0263,0.0725 -0.093,0 -0.2854,0.5115 -0.22756,0.60507 0.0246,0.0397 0.007,0.0723 -0.039,0.0723 -0.28393,0 -2.04093,5.5131 -1.93447,6.06999 0.02,0.10462 0.004,0.17008 -0.0361,0.14545 -0.0398,-0.0246 -0.0724,-0.0217 -0.0724,0.007 0,0.0282 -0.0737,0.47814 -0.16386,0.99983 -0.40781,2.36055 -0.51578,4.42801 -0.33696,6.45186 0.11526,1.30433 0.24853,2.03698 0.34439,1.89327 0.0517,-0.0774 0.0608,-0.0452 0.0277,0.0982 -0.0639,0.2773 0.35744,1.32005 0.72906,1.80413 0.43541,0.56718 1.52364,1.23771 1.82256,1.123 0.0644,-0.0247 0.11712,-0.004 0.11712,0.0456 0,0.0551 0.14613,0.0789 0.37293,0.0609 0.2051,-0.0163 0.35525,-0.001 0.33366,0.0338 -0.0627,0.10151 0.26578,0.0733 0.37095,-0.0319 0.0539,-0.0539 0.19019,-0.0716 0.31327,-0.0407 0.16269,0.0408 0.21786,0.10928 0.21786,0.2703 0,0.11859 0.039,0.28854 0.0867,0.37765 0.0477,0.0891 0.0641,0.25227 0.0364,0.36256 -0.0388,0.15446 -0.0951,0.19197 -0.24519,0.16328 -0.20364,-0.0389 -0.72459,0.18353 -0.72459,0.30942 0,0.04 -0.21907,0.10004 -0.48683,0.13342 -0.26776,0.0334 -0.50934,0.0969 -0.53684,0.14109 -0.0304,0.0489 -0.1419,0.0385 -0.28444,-0.0264 -0.20573,-0.0937 -0.24886,-0.0871 -0.35216,0.0542 -0.0648,0.0885 -0.11773,0.12221 -0.11773,0.0748 0,-0.0485 -0.11642,-0.0691 -0.26602,-0.0471 -0.19476,0.0286 -0.2489,0.0113 -0.20211,-0.0644 0.046,-0.0745 -0.007,-0.096 -0.18906,-0.0769 -0.13913,0.0146 -0.3144,-0.0244 -0.38947,-0.0867 -0.0751,-0.0623 -0.19415,-0.0912 -0.26459,-0.0642 -0.0704,0.027 -0.12808,0.008 -0.12808,-0.0428 0,-0.10826 -0.51836,-0.71407 -0.59186,-0.69171 -0.0277,0.008 -0.0564,-0.0655 -0.0638,-0.16422 -0.007,-0.0987 -0.0853,-0.27708 -0.17298,-0.39631 -0.0877,-0.11923 -0.1859,-0.32311 -0.21821,-0.45307 -0.0323,-0.12997 -0.0953,-0.21371 -0.13996,-0.18611 -0.0452,0.028 -0.0589,-0.008 -0.0308,-0.0812 0.0277,-0.0723 0.008,-0.1314 -0.0433,-0.1314 -0.0516,0 -0.094,-0.0857 -0.0943,-0.1905 0,-0.10477 -0.0574,-0.29963 -0.127,-0.43301 -0.0696,-0.13338 -0.12648,-0.33565 -0.12648,-0.44949 0,-0.11385 -0.0355,-0.18507 -0.0788,-0.15828 -0.0434,0.0268 -0.10639,0.004 -0.14008,-0.0504 -0.0383,-0.0619 -0.0246,-0.0764 0.0365,-0.0387 0.12741,0.0787 0.12273,0.033 -0.068,-0.6659 -0.0885,-0.32412 -0.14245,-0.61909 -0.11995,-0.65549 0.0225,-0.0364 0.007,-0.12712 -0.0349,-0.20159 -0.0622,-0.11105 -0.0964,-0.0856 -0.19045,0.14143 -0.0631,0.15226 -0.25963,0.49392 -0.4368,0.75924 -0.17718,0.26533 -0.32214,0.50541 -0.32214,0.53352 0,0.0281 -0.15224,0.2519 -0.33831,0.49732 -0.18606,0.24542 -0.33846,0.47748 -0.33866,0.51569 0,0.0382 -0.15446,0.25222 -0.34278,0.47557 -0.18834,0.22335 -0.33469,0.43974 -0.32523,0.48086 0.0291,0.1266 -0.10797,0.37267 -0.18211,0.32686 -0.0895,-0.0553 -0.34337,0.30181 -0.28343,0.3988 0.0248,0.0401 -0.002,0.0625 -0.0601,0.0497 -0.0579,-0.0128 -0.14642,0.0536 -0.19679,0.14749 -0.0504,0.0939 -0.27209,0.33645 -0.4927,0.53897 -0.22061,0.20252 -0.38128,0.40028 -0.35707,0.43948 0.0242,0.0392 -0.062,0.1278 -0.19155,0.1969 -0.31928,0.17028 -0.70127,0.51468 -0.70127,0.63225 0,0.0528 -0.0857,0.0962 -0.1905,0.0964 -0.10478,2.6e-4 -0.31226,0.11452 -0.46108,0.254 -0.14881,0.13949 -0.3303,0.25361 -0.40331,0.25361 -0.12942,0 -0.46905,0.16091 -0.55378,0.26236 -0.0233,0.0279 -0.15663,0.0542 -0.29633,0.0585 -0.1397,0.004 -0.3302,0.0242 -0.42334,0.0443 -0.0931,0.02 -0.21788,-0.002 -0.27721,-0.0494 -0.0593,-0.0472 -0.12978,-0.064 -0.15655,-0.0372 -0.0643,0.0643 -0.70924,-0.27374 -0.70924,-0.37176 0,-0.0419 -0.0487,-0.0761 -0.1083,-0.0761 -0.0596,0 -0.16435,-0.0821 -0.23284,-0.18252 -0.0685,-0.10038 -0.1912,-0.24219 -0.27269,-0.31514 -0.0815,-0.073 -0.14817,-0.20038 -0.14817,-0.28316 0,-0.0828 -0.0425,-0.15052 -0.0945,-0.15052 -0.0523,0 -0.0751,-0.0743 -0.0511,-0.16622 0.0239,-0.0914 -0.003,-0.20513 -0.0607,-0.2527 -0.0573,-0.0476 -0.0972,-0.17279 -0.0888,-0.27828 0.008,-0.10549 -0.0264,-0.21921 -0.0776,-0.25271 -0.0671,-0.044 -0.0657,-0.10499 0.005,-0.21925 0.0599,-0.0966 0.069,-0.20485 0.0235,-0.27775 -0.041,-0.0657 -0.0541,-0.32897 -0.0292,-0.58509 l 0.0454,-0.46566 -0.25938,0.29313 c -0.14267,0.16123 -0.25939,0.31546 -0.25939,0.34275 0,0.0273 -0.20994,0.26986 -0.46653,0.53905 -0.2566,0.26918 -0.44485,0.52452 -0.41834,0.56741 0.0265,0.0429 0.0132,0.078 -0.0295,0.078 -0.0428,0 -0.24989,0.15153 -0.46029,0.33672 -0.39295,0.3459 -0.54411,0.63625 -0.37314,0.71677 0.0533,0.0251 0.008,0.0232 -0.10136,-0.004 -0.15936,-0.04 -0.27972,0.0349 -0.61411,0.38178 -0.22874,0.23732 -0.45612,0.43149 -0.50529,0.43149 -0.0492,0 -0.0661,0.0377 -0.0377,0.0837 0.0289,0.0468 -0.003,0.0629 -0.0714,0.0365 -0.0756,-0.029 -0.21615,0.0694 -0.36423,0.25497 -0.14062,0.17624 -0.31621,0.30221 -0.42126,0.30221 -0.0991,0 -0.22756,0.0571 -0.28553,0.127 -0.058,0.0699 -0.15789,0.127 -0.22203,0.127 -0.0642,0 -0.11664,0.0506 -0.11664,0.11248 0,0.0803 -0.11517,0.10733 -0.40217,0.0945 -0.22119,-0.01 -0.44026,0.006 -0.48683,0.0347 -0.15137,0.0942 -0.9929,0.0593 -1.03237,-0.0428 z m 10.23763,-3.39372 c 0.36055,-0.21618 0.96492,-0.6985 1.34714,-1.07509 1.22467,-1.20666 3.00352,-3.36738 2.90434,-3.52785 -0.0273,-0.0442 8.5e-4,-0.0699 0.0625,-0.0571 0.0617,0.0128 0.1026,-0.0244 0.091,-0.0826 -0.0117,-0.0582 0.0155,-0.10583 0.0604,-0.10583 0.0449,0 0.36873,-0.43483 0.71967,-0.96629 0.52879,-0.8008 0.63807,-1.02469 0.63807,-1.30734 0,-0.18757 -0.04,-0.36574 -0.0888,-0.39591 -0.055,-0.034 -0.0592,-0.0923 -0.0111,-0.15317 0.0427,-0.0541 0.0794,-0.36499 0.0814,-0.69096 0.006,-0.98296 0.0896,-1.96866 0.27253,-3.21733 0.18792,-1.28259 0.19076,-1.29938 0.33603,-1.98967 0.14415,-0.68496 0.19063,-0.95136 0.2031,-1.16417 0.006,-0.10477 0.0367,-0.1905 0.0679,-0.1905 0.0312,0 0.0822,-0.12382 0.11319,-0.27516 0.0508,-0.24764 0.14559,-0.57276 0.50728,-1.73924 l 0.11268,-0.3634 -0.32311,-0.12929 c -0.29215,-0.11689 -0.53226,-0.45624 -0.32282,-0.45624 0.0472,0 0.0631,-0.0591 0.0354,-0.1314 -0.0277,-0.0723 -0.0179,-0.11133 0.0217,-0.0868 0.0883,0.0546 1.19592,-3.73878 1.19592,-4.09584 0,-0.0542 -0.044,-0.0714 -0.0977,-0.0382 -0.061,0.0377 -0.0747,0.0232 -0.0365,-0.0387 0.0337,-0.0545 0.0904,-0.0811 0.12612,-0.059 0.0701,0.0433 0.385,-1.48719 0.50418,-2.45032 0.0403,-0.32597 0.05,-0.75666 0.0215,-0.9571 l -0.0519,-0.36442 -0.30047,0.32209 c -0.48495,0.51985 -0.7765,0.94311 -0.71649,1.0402 0.0307,0.0497 0.0187,0.0799 -0.0268,0.0672 -0.0455,-0.0128 -0.18751,0.12913 -0.31559,0.3154 -0.44034,0.64041 -1.388,2.35143 -1.34283,2.42451 0.0249,0.0402 0.005,0.0732 -0.0434,0.0732 -0.12594,0 -0.70103,1.17296 -0.63081,1.28658 0.032,0.0518 0.021,0.0712 -0.0246,0.043 -0.0804,-0.0497 -0.75381,1.22046 -0.71178,1.3424 0.0115,0.0334 -0.0194,0.0856 -0.0686,0.11607 -0.12804,0.0791 -1.46605,2.89054 -1.47978,3.10928 -0.006,0.10031 -0.0373,0.16643 -0.0688,0.14694 -0.056,-0.0346 -0.15798,0.19604 -0.14644,0.33132 0.003,0.0374 -0.0532,0.15793 -0.1252,0.2679 -0.38305,0.58461 -2.105,5.05644 -2.02617,5.26187 0.0354,0.0924 0.0226,0.12464 -0.0352,0.0889 -0.0579,-0.0358 -0.27659,0.5197 -0.60277,1.53127 -0.76493,2.37216 -0.74581,2.28982 -0.56292,2.42355 0.11039,0.0807 0.13476,0.159 0.0851,0.2735 -0.0383,0.0882 -0.0635,0.18898 -0.0561,0.22391 0.007,0.0349 -0.0209,0.0635 -0.0628,0.0635 -0.1303,0 -0.42182,0.57243 -0.5568,1.09334 -0.15649,0.60388 -0.16032,0.71057 -0.0231,0.64104 0.0582,-0.0295 0.0319,0.006 -0.0585,0.0797 -0.11952,0.0969 -0.13107,0.13363 -0.0423,0.13458 0.10464,0.001 0.10494,0.0121 0.002,0.0772 -0.0779,0.0493 -0.12235,0.23841 -0.127,0.54026 -0.004,0.25543 -0.0361,0.44682 -0.0715,0.42532 -0.0354,-0.0215 -0.0608,0.42763 -0.0566,0.99807 0.009,1.13409 0.12545,1.59648 0.4433,1.75326 0.26978,0.13306 0.52891,0.0538 1.26287,-0.38627 z m -1.5588,-1.09627 c 0.0611,-0.0245 0.13414,-0.0215 0.16228,0.007 0.0281,0.0281 -0.0219,0.0481 -0.11113,0.0445 -0.0986,-0.004 -0.11869,-0.0241 -0.0512,-0.0511 z m -0.0265,-0.95816 c 0.0288,-0.0466 0.0691,-0.0847 0.0897,-0.0847 0.0205,0 0.0373,0.0381 0.0373,0.0847 0,0.0466 -0.0403,0.0847 -0.0897,0.0847 -0.0493,0 -0.0661,-0.0381 -0.0373,-0.0847 z m 10.7937,-19.4995 c 8.5e-4,-0.0377 -0.0368,-0.045 -0.0834,-0.0162 -0.0466,0.0288 -0.0841,0.11675 -0.0834,0.1955 0.001,0.12338 0.0126,0.12561 0.0834,0.0162 0.0452,-0.0698 0.0827,-0.15783 0.0834,-0.1955 z m 16.5113,24.23968 c -0.0699,-0.0458 -0.22815,-0.062 -0.35177,-0.0361 -0.12363,0.0259 -0.2497,0.007 -0.28017,-0.0425 -0.0305,-0.0493 -0.12934,-0.0896 -0.21972,-0.0896 -0.0904,0 -0.16434,-0.0391 -0.16434,-0.0868 0,-0.0477 -0.0945,-0.1227 -0.21005,-0.16662 -0.13382,-0.0509 -0.19289,-0.12458 -0.16276,-0.20308 0.0277,-0.0722 -0.0256,-0.1622 -0.12862,-0.21735 -0.0968,-0.0518 -0.1759,-0.16952 -0.1759,-0.26164 0,-0.19621 -0.16615,-0.5171 -0.318,-0.61419 -0.0625,-0.04 -0.0858,-0.14956 -0.0566,-0.26593 0.0273,-0.10887 0.008,-0.2234 -0.0419,-0.25452 -0.0503,-0.0311 -0.0915,-0.14732 -0.0915,-0.25824 0,-0.11092 -0.0369,-0.22445 -0.0819,-0.25228 -0.0451,-0.0278 -0.0582,-0.16936 -0.0291,-0.3145 0.03,-0.15001 0.0197,-0.24342 -0.0239,-0.21647 -0.0422,0.0261 -0.0832,-0.0728 -0.091,-0.21966 -0.0481,-0.89821 -0.10284,-1.49963 -0.15009,-1.64851 -0.0298,-0.0939 -0.0139,-0.19555 0.0353,-0.22597 0.0492,-0.0304 0.0658,-0.0937 0.0368,-0.14064 -0.0635,-0.10274 -0.0657,-0.89851 -0.006,-2.1043 0.041,-0.82516 0.0647,-1.10402 0.19083,-2.24367 0.0258,-0.23283 0.0665,-0.67032 0.0904,-0.97219 0.024,-0.30187 0.0719,-0.60667 0.10653,-0.67733 0.0346,-0.0707 0.0705,-0.27171 0.0798,-0.44677 0.009,-0.17506 0.0546,-0.49891 0.10075,-0.71967 0.0461,-0.22075 0.15747,-0.80142 0.24744,-1.29037 0.16914,-0.91918 0.23621,-1.23454 0.52224,-2.45533 0.19498,-0.83225 0.30165,-1.24582 0.45854,-1.778 0.0618,-0.20955 0.17454,-0.6096 0.25056,-0.889 0.076,-0.2794 0.17186,-0.5842 0.21299,-0.67734 0.0411,-0.0931 0.2071,-0.56938 0.36881,-1.05833 0.16171,-0.48895 0.37464,-1.09855 0.47318,-1.35467 0.34546,-0.89789 0.4154,-1.13238 0.36449,-1.22198 -0.0282,-0.0497 -0.02,-0.0619 0.0183,-0.0272 0.0383,0.0347 0.14076,-0.0957 0.22767,-0.28983 0.12501,-0.27921 0.13541,-0.36732 0.0498,-0.42166 -0.0798,-0.0507 -0.0703,-0.069 0.0364,-0.07 0.0967,-8.6e-4 0.1946,-0.14184 0.29504,-0.42463 0.0827,-0.23283 0.17951,-0.42333 0.21515,-0.42333 0.0356,0 0.0648,-0.0482 0.0648,-0.10709 0,-0.0589 0.0763,-0.2494 0.1695,-0.42333 0.0932,-0.17394 0.14571,-0.31625 0.11663,-0.31625 -0.0291,0 -0.0141,-0.0476 0.0332,-0.10583 0.1899,-0.23347 0.68587,-1.23139 0.63652,-1.28074 -0.029,-0.029 -0.007,-0.0528 0.0481,-0.0528 0.1,0 0.30793,-0.40118 0.27759,-0.53546 -0.009,-0.0384 0.0233,-0.0457 0.071,-0.0162 0.0477,0.0295 0.0868,0.0204 0.0868,-0.0202 0,-0.1049 0.66848,-1.214 0.85784,-1.42328 0.087,-0.0961 0.15816,-0.22984 0.15816,-0.29713 0,-0.0673 0.0762,-0.16993 0.16933,-0.22809 0.0931,-0.0582 0.16933,-0.14514 0.16933,-0.19328 0,-0.10207 0.10911,-0.24104 0.48223,-0.61415 0.41056,-0.41055 0.636,-0.56232 0.91477,-0.61579 0.0466,-0.009 0.10372,-0.0233 0.127,-0.032 0.1945,-0.0726 0.7153,-0.0776 0.79953,-0.008 0.0578,0.0479 0.12922,0.063 0.15877,0.0335 0.0295,-0.0296 0.0777,0.009 0.10711,0.0854 0.0293,0.0765 0.10645,0.13912 0.17132,0.13912 0.0649,0 0.11794,0.0403 0.11794,0.0897 0,0.0493 0.0325,0.0696 0.0723,0.045 0.0397,-0.0246 0.11514,0.0494 0.16751,0.16434 0.0524,0.11495 0.13415,0.20901 0.18172,0.20901 0.0476,0 0.0865,0.0762 0.0865,0.16933 0,0.0931 0.0425,0.16933 0.0945,0.16933 0.0523,0 0.0751,0.0743 0.0511,0.16622 -0.0239,0.0914 0.0115,0.21183 0.0786,0.26757 0.0672,0.0557 0.10299,0.15117 0.0796,0.21207 -0.0234,0.0609 -0.008,0.13174 0.0331,0.15743 0.0416,0.0257 0.0755,0.11264 0.0753,0.19321 0,0.0806 0.0182,0.2608 0.0408,0.4005 0.0226,0.1397 0.067,0.65405 0.0987,1.143 0.0317,0.48895 0.0936,0.90223 0.13745,0.9184 0.0456,0.0168 0.0376,0.0802 -0.0188,0.14817 -0.0542,0.0653 -0.0653,0.11878 -0.0247,0.11879 0.0406,1e-5 0.0783,0.21908 0.0837,0.48683 0.0258,1.27335 0.0787,1.84077 0.16983,1.82392 0.0637,-0.0118 0.081,0.10662 0.0526,0.35915 -0.0267,0.23737 -0.003,0.42437 0.0645,0.50556 0.0588,0.0709 0.11975,0.27999 0.13541,0.46471 0.0224,0.26372 -0.0161,0.38397 -0.17908,0.55982 -0.11416,0.12318 -0.18697,0.25726 -0.16181,0.29797 0.0251,0.0407 0.006,0.074 -0.0418,0.074 -0.0481,0 -0.14641,0.11394 -0.21842,0.2532 -0.072,0.13926 -0.22682,0.31602 -0.344,0.3928 -0.20193,0.13232 -0.22311,0.13015 -0.40585,-0.0415 -0.10605,-0.0996 -0.22193,-0.18114 -0.25752,-0.18114 -0.17643,0 -2.56181,2.09559 -2.52578,2.21894 0.0128,0.0438 -0.0135,0.0569 -0.0584,0.0292 -0.0449,-0.0278 -1.2045,1.05815 -2.57682,2.41315 l -2.49514,2.46363 -0.13305,0.73439 c -0.15733,0.86839 -0.22402,1.30467 -0.2611,1.70806 -0.015,0.16299 -0.0476,0.35349 -0.0725,0.42334 -0.0725,0.20316 -0.21897,1.70509 -0.31382,3.21733 -0.16306,2.59966 0.098,4.59615 0.71098,5.4381 0.33503,0.46016 0.94705,0.47175 1.69718,0.0321 0.67194,-0.39378 3.1588,-2.93346 3.04799,-3.11274 -0.0257,-0.0416 0.004,-0.0652 0.0653,-0.0524 0.0617,0.0128 0.10166,-0.0272 0.0889,-0.0889 -0.0128,-0.0617 0.0139,-0.0892 0.0592,-0.0611 0.0824,0.0509 0.31237,-0.27809 0.27834,-0.39825 -0.01,-0.0349 0.0163,-0.054 0.0583,-0.0423 0.10656,0.0296 1.21396,-1.4268 2.22228,-2.92258 l 0.84784,-1.25773 0.20481,0.13224 c 0.11264,0.0727 0.30957,0.19691 0.43763,0.27595 0.12806,0.079 0.24576,0.15229 0.26156,0.16278 0.0158,0.0105 -0.12708,0.28584 -0.3175,0.6119 -0.19042,0.32605 -0.34623,0.60909 -0.34623,0.62899 0,0.0199 -0.20841,0.37519 -0.46313,0.78956 -0.25473,0.41436 -0.58437,0.96294 -0.73254,1.21906 -0.14817,0.25611 -0.34645,0.55139 -0.44062,0.65616 -0.0942,0.10478 -0.14399,0.1905 -0.1107,0.1905 0.0333,0 -0.0363,0.10439 -0.15458,0.23197 -0.1183,0.12758 -0.21509,0.26051 -0.21509,0.29539 0,0.0349 -0.17145,0.28886 -0.381,0.5644 -0.20955,0.27554 -0.381,0.5273 -0.381,0.55946 0,0.0322 -0.15405,0.23347 -0.34233,0.44736 -0.18827,0.2139 -0.402,0.51468 -0.47495,0.66842 -0.0729,0.15373 -0.16401,0.26013 -0.20235,0.23643 -0.0383,-0.0237 -0.13762,0.0719 -0.22063,0.21241 -0.083,0.14053 -0.18081,0.2555 -0.21733,0.2555 -0.0365,0 -0.0664,0.0487 -0.0664,0.10818 0,0.0595 -0.0762,0.17343 -0.16934,0.25317 -0.0931,0.0797 -0.16933,0.12338 -0.16933,0.097 0,-0.0264 -0.1143,0.0663 -0.254,0.20598 -0.1397,0.1397 -0.254,0.30573 -0.254,0.36896 0,0.0632 -0.10478,0.1629 -0.23283,0.22151 -0.50683,0.23197 -0.62278,0.319 -0.66888,0.50206 -0.0357,0.14161 -0.10973,0.1905 -0.28859,0.1905 -0.13235,0 -0.27451,0.0606 -0.31594,0.13459 -0.0414,0.074 -0.10046,0.13117 -0.13121,0.127 -0.21019,-0.0285 -0.30988,0.009 -0.30988,0.11729 0,0.0924 -0.0633,0.11222 -0.24373,0.0761 -0.13425,-0.0268 -0.26858,-0.009 -0.29905,0.0408 -0.0304,0.0492 -0.10514,0.0704 -0.16604,0.047 -0.0609,-0.0234 -0.15959,0.0164 -0.21932,0.0884 -0.1263,0.15219 -0.16964,0.1579 -0.34186,0.045 z m 1.75597,-18.27922 c -0.0902,-0.11574 -0.0863,-0.12006 0.0283,-0.0308 0.11264,0.0878 0.23879,0.003 0.81581,-0.55034 1.23534,-1.18389 1.75501,-1.66598 2.15843,-2.00233 0.21899,-0.18258 0.37807,-0.36445 0.35354,-0.40416 -0.0245,-0.0397 -0.0132,-0.0618 0.0252,-0.0492 0.0732,0.0241 0.42913,-0.22774 1.2221,-0.86483 0.26124,-0.20988 0.57798,-0.45543 0.70387,-0.54566 0.49287,-0.35327 0.55184,-0.44116 0.60543,-0.90222 0.0293,-0.25175 0.0105,-0.93398 -0.0417,-1.51606 -0.0522,-0.58208 -0.11542,-1.28693 -0.14054,-1.56633 -0.0618,-0.68772 -0.3495,-2.09336 -0.51113,-2.49731 -0.0724,-0.18093 -0.22,-0.38686 -0.32801,-0.45763 -0.18633,-0.1221 -0.2163,-0.11114 -0.58584,0.21414 -0.2142,0.18855 -0.368,0.37754 -0.34177,0.41997 0.0262,0.0424 0.0109,0.0772 -0.034,0.0772 -0.10366,0 -0.71849,0.85016 -0.71849,0.9935 0,0.0589 -0.0293,0.10717 -0.0651,0.10717 -0.0693,0 -0.4377,0.61579 -0.43925,0.73417 -8.5e-4,0.0386 -0.0581,0.112 -0.12808,0.16315 -0.0773,0.0565 -0.10039,0.13634 -0.0588,0.20358 0.0412,0.0667 0.035,0.09 -0.0158,0.0586 -0.0937,-0.0579 -1.13019,2.06117 -1.1642,2.38018 -0.0118,0.11098 -0.0603,0.22674 -0.10765,0.25723 -0.0763,0.0491 -0.52056,1.12513 -1.16458,2.82069 -0.11781,0.31015 -0.22387,0.65305 -0.2357,0.762 -0.0118,0.10895 -0.0521,0.2206 -0.0893,0.2481 -0.0373,0.0275 -0.078,0.14181 -0.0904,0.254 -0.0124,0.1122 -0.0635,0.28019 -0.11348,0.37333 -0.10159,0.18927 -0.33593,0.96027 -0.65218,2.14563 l -0.21102,0.79096 0.71478,-0.741 c 0.60864,-0.63096 0.69919,-0.76098 0.60981,-0.87563 z m 2.61773,-2.92432 c -0.0315,-0.082 -0.006,-0.10707 0.0756,-0.0756 0.0675,0.0259 0.12269,0.0811 0.12269,0.12269 0,0.12172 -0.14691,0.0868 -0.1983,-0.0471 z M 31.460283,180.78951 c -0.0695,-0.0695 -0.239567,-0.13335 -0.377935,-0.1419 -0.138369,-0.009 -0.312486,-0.0898 -0.386927,-0.18052 -0.07444,-0.0907 -0.23242,-0.16498 -0.351065,-0.16498 -0.144198,0 -0.245741,-0.0659 -0.306274,-0.19875 -0.0498,-0.10931 -0.187101,-0.22298 -0.305101,-0.25259 -0.118,-0.0296 -0.214546,-0.0838 -0.214546,-0.12038 0,-0.0366 -0.116421,-0.19117 -0.258713,-0.34349 -0.142292,-0.15233 -0.312022,-0.40454 -0.377177,-0.56048 -0.06516,-0.15594 -0.177335,-0.30611 -0.249287,-0.33373 -0.07195,-0.0276 -0.130823,-0.12352 -0.130823,-0.21313 0,-0.0896 -0.05875,-0.18548 -0.130556,-0.21303 -0.07181,-0.0275 -0.121239,-0.11208 -0.109851,-0.18784 0.02827,-0.18809 -0.268009,-0.78248 -0.361297,-0.72483 -0.04131,0.0255 -0.03859,-0.0497 0.0061,-0.16708 0.05188,-0.13645 0.05179,-0.23167 -2.54e-4,-0.26384 -0.04479,-0.0277 -0.08143,-0.13485 -0.08143,-0.23815 0,-0.10331 -0.0558,-0.26751 -0.124011,-0.36489 -0.06821,-0.0974 -0.107422,-0.19364 -0.08715,-0.21391 0.02027,-0.0203 -8.64e-4,-0.24436 -0.04698,-0.49796 -0.04611,-0.2536 -0.105281,-0.67064 -0.131485,-0.92675 -0.07025,-0.68661 -0.09502,-3.47303 -0.03349,-3.76767 0.02917,-0.1397 0.02699,-0.37699 -0.0049,-0.52732 -0.03674,-0.17347 -0.02713,-0.25431 0.02631,-0.22128 0.05219,0.0323 0.07054,-0.065 0.04826,-0.25584 -0.01977,-0.16934 -0.01275,-0.30789 0.01559,-0.30789 0.02835,0 0.100035,-0.40958 0.159309,-0.91017 0.05927,-0.50059 0.143798,-0.98637 0.187829,-1.0795 0.04403,-0.0931 0.0952,-0.40966 0.113711,-0.70339 0.01851,-0.29372 0.07909,-0.5888 0.134625,-0.65571 0.05553,-0.0669 0.08147,-0.19624 0.05763,-0.28739 -0.02384,-0.0911 -0.0178,-0.17708 0.01341,-0.19095 0.03121,-0.0139 0.145326,-0.40623 0.253589,-0.87189 0.108262,-0.46567 0.251192,-1.02162 0.317622,-1.23545 0.06643,-0.21383 0.129245,-0.50903 0.139589,-0.656 0.01034,-0.14697 0.04738,-0.26729 0.08231,-0.26738 0.03493,-9e-5 0.0635,-0.0959 0.0635,-0.21299 0,-0.11705 0.03732,-0.27897 0.08293,-0.35983 0.04561,-0.0809 0.233709,-0.66137 0.417999,-1.29002 0.586405,-2.00035 1.652449,-5.27039 2.17762,-6.67974 l 0.201747,-0.54141 -0.663169,0.0553 c -0.364742,0.0304 -0.888232,0.11393 -1.163312,0.18557 -0.593899,0.1547 -1.477145,0.53847 -1.477145,0.64183 0,0.0402 -0.05498,0.0731 -0.122174,0.0731 -0.163416,0 -1.159796,0.92813 -1.10009,1.02474 0.02581,0.0418 0.0071,0.0759 -0.04154,0.0759 -0.140394,0 -0.537683,0.65551 -0.4668,0.7702 0.04038,0.0653 0.02791,0.0807 -0.03432,0.0422 -0.06396,-0.0395 -0.09775,0.013 -0.09775,0.15189 0,0.11677 -0.09525,0.31508 -0.211667,0.44069 -0.116416,0.12562 -0.211666,0.27998 -0.211666,0.34303 0,0.0631 -0.04763,0.11777 -0.105834,0.1216 -0.05821,0.004 -0.205603,0.0235 -0.327544,0.0437 -0.177579,0.0295 -0.270271,-0.026 -0.465667,-0.27871 -0.361449,-0.46745 -0.371716,-0.54428 -0.102948,-0.77044 0.131996,-0.11106 0.239993,-0.24924 0.239993,-0.30706 0,-0.0578 0.0953,-0.29256 0.211774,-0.52164 0.116476,-0.22908 0.193112,-0.46612 0.170303,-0.52675 -0.02281,-0.0606 -0.0099,-0.0907 0.02876,-0.0668 0.08905,0.055 0.435828,-0.40767 0.435828,-0.58152 0,-0.0717 0.05715,-0.13043 0.127,-0.13043 0.06985,0 0.127,-0.0558 0.127,-0.12402 0,-0.0682 0.0762,-0.1648 0.169334,-0.21464 0.09313,-0.0498 0.169333,-0.14387 0.169333,-0.20894 0,-0.0651 0.07624,-0.14252 0.169423,-0.17209 0.09318,-0.0296 0.208823,-0.12739 0.256979,-0.21737 0.04816,-0.09 0.143365,-0.1636 0.211577,-0.1636 0.06821,0 0.124021,-0.0534 0.124021,-0.11872 0,-0.0653 0.1143,-0.15856 0.254,-0.20726 0.1397,-0.0487 0.254,-0.12598 0.254,-0.17173 0,-0.0457 0.08573,-0.0963 0.1905,-0.11225 0.104775,-0.016 0.18367,-0.0677 0.175323,-0.11492 -0.0083,-0.0472 0.08429,-0.0941 0.205854,-0.10414 0.121566,-0.0101 0.299845,-0.0697 0.396176,-0.13259 0.400995,-0.26167 2.313707,-0.44452 2.944593,-0.28149 0.23909,0.0618 0.374017,-0.0712 0.428725,-0.42267 0.01323,-0.085 0.04653,-0.19267 0.07399,-0.23923 0.04865,-0.0825 0.271727,-0.71985 0.281521,-0.80434 0.0027,-0.0233 0.02777,-0.0804 0.05572,-0.127 0.08638,-0.14393 0.680527,-1.98356 0.651398,-2.01688 -0.01511,-0.0173 0.01572,-0.0849 0.06851,-0.15027 0.09329,-0.11552 0.55398,-1.48032 1.224273,-3.62696 0.315061,-1.00899 0.322613,-1.05999 0.181574,-1.22621 -0.140277,-0.16531 -0.140134,-0.16798 0.0031,-0.057 0.08262,0.0641 0.162038,0.10149 0.17649,0.0832 0.01445,-0.0183 0.162664,-0.50948 0.329356,-1.09156 0.96913,-3.38415 1.766734,-7.36921 1.790246,-8.94459 0.005,-0.3327 0.03365,-0.59007 0.06375,-0.57193 0.150076,0.0905 0.187618,-3.72641 0.05093,-5.17776 -0.06756,-0.71733 -0.242481,-1.56564 -0.313752,-1.52159 -0.09465,0.0585 -0.358006,-0.87304 -0.299203,-1.05831 0.03391,-0.10685 0.128315,-0.16716 0.261668,-0.16716 0.11474,0 0.230549,-0.0572 0.257352,-0.127 0.07251,-0.18894 0.400277,-0.15361 0.589053,0.0635 0.0911,0.10478 0.16858,0.20955 0.172178,0.23284 0.02975,0.19255 0.139622,0.41876 0.188673,0.38844 0.03324,-0.0205 0.06421,0.0265 0.06883,0.10461 0.0046,0.0781 0.08879,0.48485 0.18703,0.90395 0.09825,0.4191 0.198061,1.0668 0.221812,1.43933 0.02375,0.37253 0.06081,0.90487 0.08234,1.18297 0.05849,0.75514 0.05694,1.58324 -0.005,2.66936 -0.03054,0.53552 -0.06042,1.20813 -0.06641,1.49468 -0.006,0.28656 -0.03589,0.5056 -0.06644,0.48676 -0.05185,-0.032 -0.09378,0.20854 -0.200701,1.15123 -0.02377,0.20955 -0.09802,0.6858 -0.164995,1.05833 -0.06698,0.37254 -0.141521,0.79164 -0.165645,0.93134 -0.02412,0.1397 -0.121743,0.61452 -0.21693,1.05516 -0.09519,0.44064 -0.188952,0.87879 -0.208368,0.97367 -0.01942,0.0949 -0.07871,0.363 -0.131765,0.59583 -0.05306,0.23284 -0.109552,0.51859 -0.125546,0.635 -0.016,0.11642 -0.03694,0.22119 -0.04654,0.23284 -0.0191,0.0231 -0.02175,0.0321 -0.119568,0.40216 -0.07111,0.26907 -0.435837,1.53295 -0.556288,1.92774 -0.03933,0.12892 -0.07151,0.24322 -0.07151,0.254 7e-6,0.0318 -0.06471,0.25192 -0.173904,0.59143 -0.05622,0.17481 -0.081,0.40341 -0.05507,0.508 0.02593,0.10459 0.02377,0.13802 -0.0048,0.0743 -0.05442,-0.12138 -0.263631,0.38968 -0.536423,1.31035 -0.08427,0.28443 -0.198989,0.60265 -0.25492,0.70716 -0.05593,0.1045 -0.08277,0.26237 -0.05964,0.35081 0.02313,0.0884 0.0093,0.14056 -0.0307,0.11583 -0.04001,-0.0247 -0.129235,0.13715 -0.198276,0.35972 -0.06904,0.22257 -0.265209,0.78567 -0.435928,1.25134 -0.17072,0.46567 -0.319837,0.88477 -0.331374,0.93133 -0.01154,0.0466 -0.04442,0.14182 -0.07308,0.21167 -0.02866,0.0699 -0.105481,0.2794 -0.170721,0.46567 -0.06524,0.18626 -0.281072,0.78904 -0.479624,1.33949 -0.209566,0.58099 -0.329553,1.03228 -0.286027,1.07581 0.142488,0.14249 3.508879,0.66014 5.492564,0.8446 1.100992,0.10238 3.548832,0.10212 4.783667,-5.1e-4 0.535517,-0.0445 1.221317,-0.10073 1.524,-0.12494 0.655011,-0.0524 2.004857,-0.21607 2.243667,-0.27204 0.09313,-0.0218 0.226483,-0.0398 0.296333,-0.04 0.06985,-1.7e-4 0.18415,-0.02 0.254,-0.0442 0.06985,-0.0241 0.308143,-0.0593 0.52954,-0.0781 0.221396,-0.0188 0.546614,-0.0839 0.722704,-0.14453 l 0.320165,-0.11031 -0.0036,0.25902 c -0.002,0.14246 0.04687,0.38785 0.108587,0.54532 0.130622,0.33329 0.0811,0.40597 -0.322705,0.4736 -0.162984,0.0273 -0.486834,0.10262 -0.719667,0.16738 -0.92001,0.25589 -2.693467,0.56002 -4.021667,0.68966 -1.339434,0.13074 -4.971595,0.1861 -5.545666,0.0845 -0.702063,-0.12423 -2.111524,-0.2955 -2.146227,-0.26079 -0.02174,0.0217 -0.09045,-0.003 -0.152698,-0.0544 -0.06225,-0.0517 -0.189629,-0.0739 -0.283074,-0.0495 -0.09345,0.0244 -0.152046,0.0155 -0.130224,-0.0198 0.04512,-0.073 -1.72028,-0.33437 -2.658072,-0.39351 -0.342429,-0.0216 -0.647616,-0.0547 -0.678194,-0.0736 -0.146514,-0.0906 -0.282443,0.22936 -0.91598,2.1558 -1.068021,3.2476 -1.217454,3.74234 -1.168715,3.86936 0.02507,0.0653 0.01371,0.0991 -0.02524,0.075 -0.08355,-0.0516 -0.802131,2.42565 -0.802131,2.76533 0,0.12814 -0.02802,0.23298 -0.06228,0.23298 -0.119627,0 -0.784939,3.12971 -1.106901,5.207 -0.18332,1.18278 -0.33459,5.52726 -0.1894,5.43958 0.04096,-0.0247 0.08155,0.20809 0.09021,0.51739 0.03627,1.29559 0.718878,3.12373 1.456012,3.89949 0.610822,0.64282 0.988683,0.79709 2.036161,0.8313 0.485789,0.0159 0.942989,0.003 1.016,-0.0292 0.07301,-0.0319 0.222754,-0.0491 0.33276,-0.0382 0.110007,0.0109 0.180531,-0.012 0.156722,-0.0509 -0.02381,-0.0389 0.08291,-0.0774 0.237168,-0.0854 0.378426,-0.0198 1.697194,-0.55929 1.671947,-0.68404 -0.01108,-0.0548 0.03269,-0.0793 0.09727,-0.0545 0.06458,0.0248 0.142572,0.004 0.173315,-0.0454 0.09382,-0.15179 0.369874,-0.10077 0.4269,0.0789 0.02956,0.0931 0.09153,0.16933 0.137702,0.16933 0.04618,0 0.06308,0.0338 0.03756,0.0751 -0.02552,0.0413 0.01033,0.12215 0.07967,0.1797 0.225733,0.18734 0.140956,0.39774 -0.253375,0.62883 -0.208693,0.12231 -0.421127,0.30026 -0.472075,0.39546 -0.129583,0.24213 -0.418482,0.51906 -0.418482,0.40114 0,-0.0585 -0.06219,-0.0415 -0.154833,0.0423 -0.08516,0.0771 -0.196891,0.14012 -0.248295,0.14012 -0.0514,0 -0.117646,0.0762 -0.147205,0.16933 -0.02956,0.0931 -0.112664,0.16934 -0.184678,0.16934 -0.233842,0 -0.801086,0.36334 -0.683647,0.4379 0.06715,0.0426 0.01635,0.068 -0.137852,0.0688 -0.282689,10e-4 -0.898823,0.17272 -0.898823,0.24977 0,0.0606 -0.979853,0.1167 -1.3335,0.0763 -0.08149,-0.009 -0.225745,0.009 -0.320564,0.0408 -0.106906,0.0358 -0.220399,0.01 -0.298754,-0.0686 z m 14.822152,-0.13023 c 0,-0.0393 -0.0673,-0.0664 -0.149544,-0.0602 -0.209882,0.0158 -1.205123,-0.46657 -1.205123,-0.5841 0,-0.0533 -0.05715,-0.11884 -0.127,-0.14564 -0.06985,-0.0268 -0.127,-0.12206 -0.127,-0.21167 0,-0.0896 -0.05978,-0.18587 -0.132838,-0.21391 -0.08526,-0.0327 -0.114556,-0.10857 -0.08179,-0.2118 0.02937,-0.0926 -0.0041,-0.216 -0.07889,-0.29077 -0.07146,-0.0715 -0.123871,-0.1993 -0.116459,-0.28408 0.02426,-0.27744 -0.01202,-0.4613 -0.08244,-0.41779 -0.038,0.0235 -0.07818,-0.13307 -0.0893,-0.3479 -0.01112,-0.21483 -0.05215,-0.45087 -0.09117,-0.52453 -0.105255,-0.1987 -0.356105,-3.04674 -0.358561,-4.07094 -0.0012,-0.48895 -0.04008,-0.96027 -0.08646,-1.04738 -0.04821,-0.0906 -0.05026,-0.13733 -0.0048,-0.10924 0.04374,0.027 0.08479,-0.0909 0.09122,-0.26211 0.01024,-0.27236 0.155827,-1.88136 0.235522,-2.60293 0.04486,-0.40621 0.220245,-1.42763 0.268945,-1.56634 0.09794,-0.27894 0.08842,-0.38498 -0.0491,-0.5473 -0.115515,-0.13635 -0.117226,-0.1492 -0.0088,-0.0658 0.176476,0.1357 0.246209,0.055 0.246209,-0.285 0,-0.15247 0.0331,-0.29768 0.07355,-0.32268 0.04045,-0.025 0.09665,-0.18994 0.124888,-0.36653 0.0731,-0.45715 0.555818,-2.11735 0.732423,-2.51901 0.393515,-0.89499 1.024544,-2.75554 0.967884,-2.85375 -0.03477,-0.0603 -0.03045,-0.0797 0.0096,-0.0433 0.07353,0.067 0.547,-0.87983 0.547,-1.0938 0,-0.0635 0.0381,-0.11549 0.08467,-0.11549 0.04657,0 0.08467,-0.0379 0.08467,-0.0842 0,-0.12457 0.774929,-1.79885 0.904609,-1.95446 0.06127,-0.0735 0.111391,-0.19734 0.111391,-0.27517 0,-0.0778 0.03602,-0.1415 0.08005,-0.1415 0.07902,0 0.287786,-0.32575 0.393389,-0.61383 0.02987,-0.0815 0.09022,-0.14817 0.134103,-0.14817 0.04388,0 0.05782,-0.0355 0.03097,-0.079 -0.06473,-0.10473 0.424383,-0.56638 0.818617,-0.77266 0.375586,-0.19651 0.667913,-0.20816 0.993894,-0.0396 0.212554,0.10992 0.253607,0.10992 0.34483,0 0.05695,-0.0686 0.191886,-0.12477 0.299853,-0.12477 0.107966,0 0.218246,-0.0355 0.245066,-0.0789 0.02831,-0.0458 0.145808,-0.0283 0.280164,0.0418 0.127269,0.0664 0.294899,0.12095 0.37251,0.12124 0.07761,2.5e-4 0.153811,0.0297 0.169334,0.0653 0.01552,0.0357 0.197652,0.18806 0.404734,0.33867 0.273107,0.19863 0.470758,0.27485 0.719667,0.27752 0.188735,0.002 0.514604,0.0426 0.724154,0.0901 0.435344,0.0987 1.180659,0.2383 1.593152,0.29844 0.253429,0.037 0.276279,0.0632 0.234274,0.26889 -0.0256,0.12536 -0.05672,0.40882 -0.06915,0.6299 -0.02221,0.39493 -0.02705,0.40128 -0.276607,0.36339 -0.1397,-0.0212 -0.4826,-0.0615 -0.762,-0.0895 -0.2794,-0.028 -0.575292,-0.0705 -0.657537,-0.0944 -0.142937,-0.0415 -0.142937,-0.0305 0,0.25006 0.08225,0.16143 0.174778,0.2783 0.205627,0.25972 0.03085,-0.0186 0.04561,0.0617 0.03281,0.17831 -0.0128,0.11664 0.0015,0.21208 0.03173,0.21208 0.03026,0 0.06405,0.11854 0.07509,0.26342 0.01104,0.14488 0.055,0.32868 0.09768,0.40844 0.04269,0.0798 0.09682,0.30438 0.120297,0.49916 0.02348,0.19477 0.06788,0.39489 0.09866,0.4447 0.03079,0.0498 0.06581,0.21148 0.07783,0.35926 0.01202,0.14778 0.07125,0.57349 0.131616,0.94602 0.280525,1.73119 0.05535,5.06082 -0.440885,6.51933 -0.04753,0.1397 -0.104479,0.34925 -0.126551,0.46567 -0.02207,0.11642 -0.07458,0.28787 -0.116673,0.381 -0.108314,0.23962 -0.276195,0.66818 -0.284609,0.72654 -0.01053,0.0731 -0.389691,0.93129 -0.530062,1.1998 -0.067,0.12815 -0.09831,0.27103 -0.06959,0.3175 0.02872,0.0465 0.01187,0.0845 -0.03744,0.0845 -0.04931,0 -0.08966,0.04 -0.08966,0.089 0,0.0801 -0.402683,0.94439 -1.249608,2.68196 -0.261874,0.53727 -0.283899,0.63025 -0.180498,0.762 0.106002,0.13507 0.103555,0.13894 -0.02449,0.0388 -0.121557,-0.0951 -0.155878,-0.0859 -0.235812,0.0635 -0.05145,0.0961 -0.07044,0.1748 -0.04219,0.1748 0.02825,0 -0.0085,0.0599 -0.08163,0.13299 -0.171421,0.17142 -0.565629,0.84352 -0.589284,1.00469 -0.01003,0.0683 -0.07728,0.1927 -0.149447,0.27643 -0.07217,0.0837 -0.221397,0.32368 -0.331613,0.53323 -0.110217,0.20955 -0.25296,0.44527 -0.317207,0.52383 -0.06425,0.0786 -0.08814,0.18922 -0.0531,0.24591 0.03704,0.0599 0.0284,0.0813 -0.02066,0.0509 -0.04641,-0.0287 -0.170638,0.12058 -0.276072,0.33169 -0.105434,0.21111 -0.241314,0.40288 -0.301956,0.42615 -0.06064,0.0233 -0.156469,0.15387 -0.212949,0.29023 -0.05648,0.13635 -0.136168,0.24791 -0.177085,0.24791 -0.04092,0 -0.0744,0.0404 -0.0744,0.0897 0,0.0493 0.04399,0.0625 0.09775,0.0292 0.06077,-0.0376 0.07476,-0.0232 0.03696,0.0379 -0.03343,0.0541 -0.172668,0.15621 -0.309415,0.22692 -0.136748,0.0707 -0.248631,0.18474 -0.248631,0.2534 0,0.0686 -0.05715,0.12482 -0.127,0.12482 -0.07056,0 -0.127,0.0753 -0.127,0.16934 0,0.0931 -0.04801,0.16933 -0.106699,0.16933 -0.05868,0 -0.203439,0.0857 -0.321677,0.1905 -0.327519,0.29022 -0.592675,0.42215 -0.92266,0.45905 -0.164981,0.0185 -0.366639,0.0477 -0.448131,0.0651 -0.08149,0.0173 -0.148166,-6.8e-4 -0.148166,-0.04 z m 0.635,-2.40669 c 0.37705,-0.23813 1.057452,-0.91024 1.005903,-0.99365 -0.02465,-0.0399 -0.01144,-0.0621 0.02936,-0.0493 0.10069,0.0316 0.625932,-0.57332 0.557364,-0.64189 -0.02999,-0.03 -0.01445,-0.0545 0.03452,-0.0545 0.104752,0 0.390737,-0.41366 0.390737,-0.56517 0,-0.0576 0.02758,-0.0877 0.0613,-0.0668 0.09833,0.0608 0.7856,-1.07664 0.711507,-1.17752 -0.02146,-0.0292 -0.01376,-0.0342 0.01712,-0.0111 0.0708,0.053 0.367192,-0.42679 0.367192,-0.59441 0,-0.0687 0.0289,-0.12495 0.06422,-0.12495 0.03532,0 0.216295,-0.29528 0.402167,-0.65617 0.185872,-0.36089 0.36526,-0.67668 0.39864,-0.70176 0.0525,-0.0394 0.249455,-0.45754 0.696441,-1.47841 0.206705,-0.47209 0.640086,-1.64549 0.663673,-1.79692 0.01288,-0.0827 0.05428,-0.19986 0.09198,-0.2603 0.0377,-0.0604 0.04656,-0.16719 0.01969,-0.23723 -0.02688,-0.07 -0.01792,-0.10821 0.01991,-0.0848 0.05669,0.035 0.197425,-0.38017 0.304544,-0.8985 0.01237,-0.0599 0.04505,-0.16602 0.07262,-0.23587 0.106175,-0.26903 0.238395,-1.10237 0.187874,-1.18412 -0.02919,-0.0472 -0.01763,-0.0859 0.02569,-0.0859 0.308329,0 0.425413,-4.54515 0.15459,-6.00114 -0.206013,-1.10756 -0.489002,-1.95036 -0.870842,-2.59356 l -0.32619,-0.54946 -0.381,0.0523 c -0.20955,0.0288 -0.417195,0.0859 -0.461433,0.12707 -0.193902,0.18026 -0.525038,-0.005 -0.847942,-0.47556 -0.11493,-0.16732 -0.119002,-0.16682 -0.342845,0.0423 -0.233906,0.21855 -0.512503,0.67136 -0.481854,0.78316 0.0096,0.0349 -0.0204,0.0635 -0.06661,0.0635 -0.09753,0 -1.146344,2.02236 -1.130656,2.18017 0.0058,0.0582 -0.02559,0.10583 -0.06973,0.10583 -0.04414,0 -0.05872,0.0349 -0.0324,0.0774 0.02632,0.0426 0.0097,0.0902 -0.03694,0.10583 -0.04664,0.0156 -0.164021,0.23795 -0.260844,0.49407 -0.502493,1.32919 -0.577337,1.55539 -0.536506,1.62145 0.02443,0.0395 -3.39e-4,0.0719 -0.05511,0.0719 -0.05788,0 -0.08099,0.0709 -0.05523,0.16945 0.02437,0.0932 0.0168,0.15245 -0.01682,0.13167 -0.117554,-0.0727 -1.201516,3.67678 -1.393814,4.82121 -0.02347,0.1397 -0.103186,0.53975 -0.177138,0.889 -0.07395,0.34925 -0.149399,0.73025 -0.167658,0.84667 -0.01826,0.11642 -0.08194,0.49742 -0.141514,0.84667 -0.124534,0.73009 -0.158206,4.87396 -0.04696,5.77927 0.03868,0.31475 0.124694,0.62665 0.191149,0.6931 0.08348,0.0835 0.09218,0.13854 0.02813,0.17812 -0.06675,0.0412 -0.06693,0.083 -6.77e-4,0.14933 0.05062,0.0506 0.09204,0.14393 0.09204,0.20735 0,0.12757 0.398855,1.01551 0.533432,1.18754 0.111644,0.14272 0.46085,0.0955 0.778902,-0.1054 z m 71.581105,1.64274 c -0.0673,-0.0426 -0.25579,-0.0793 -0.41877,-0.0814 -0.16299,-0.002 -0.36671,-0.0573 -0.45273,-0.12248 -0.086,-0.0652 -0.20374,-0.10033 -0.26161,-0.0781 -0.0579,0.0222 -0.15407,-0.0185 -0.2138,-0.0905 -0.0597,-0.072 -0.15919,-0.13086 -0.22103,-0.13086 -0.0618,0 -0.15125,-0.0667 -0.19872,-0.14816 -0.0475,-0.0815 -0.0875,-0.11403 -0.0889,-0.0723 -0.004,0.1179 -0.40606,-0.3456 -0.46738,-0.5388 -0.03,-0.0946 -0.0901,-0.17206 -0.13357,-0.17206 -0.0434,0 -0.079,-0.0446 -0.079,-0.0992 0,-0.0545 -0.0559,-0.16098 -0.12432,-0.23654 -0.0684,-0.0756 -0.1338,-0.26173 -0.14539,-0.41372 -0.0116,-0.15199 -0.066,-0.31365 -0.12093,-0.35924 -0.0549,-0.0456 -0.0803,-0.15795 -0.0563,-0.2497 0.024,-0.0917 -0.003,-0.27981 -0.0604,-0.41793 -0.0998,-0.24092 -0.15694,-0.65512 -0.19493,-1.41294 -0.01,-0.19409 -0.0436,-0.37879 -0.0752,-0.41044 -0.0317,-0.0316 -0.037,-0.11097 -0.012,-0.17626 0.0252,-0.0657 -0.006,-0.11931 -0.0693,-0.12002 -0.0811,-9.2e-4 -0.0862,-0.0196 -0.0173,-0.0635 0.0633,-0.0404 0.11374,-0.52388 0.14363,-1.37698 0.0254,-0.72312 0.0644,-1.37082 0.0868,-1.43933 0.0224,-0.0685 0.064,-0.37221 0.0925,-0.6749 0.0992,-1.05325 0.44523,-3.24473 0.68189,-4.318 0.0257,-0.11641 0.0851,-0.42121 0.13197,-0.67733 0.0469,-0.25612 0.11857,-0.56092 0.15922,-0.67733 0.0406,-0.11642 0.13801,-0.51647 0.21636,-0.889 0.0784,-0.37254 0.17603,-0.75354 0.21706,-0.84667 0.041,-0.0931 0.0913,-0.26458 0.11167,-0.381 0.0204,-0.11642 0.0962,-0.42122 0.16855,-0.67733 0.0723,-0.25612 0.21063,-0.74793 0.30737,-1.09292 0.21445,-0.76467 1.00978,-3.14791 1.41085,-4.22761 0.16158,-0.43497 0.27951,-0.80512 0.26209,-0.82254 -0.0556,-0.0556 -1.54633,0.32025 -1.57588,0.39737 -0.0156,0.0408 -0.0623,0.0532 -0.10364,0.0276 -0.10569,-0.0653 -1.58978,0.44284 -1.74413,0.59718 -0.0699,0.0699 -0.16219,0.10551 -0.20499,0.079 -0.0428,-0.0265 -0.0778,-0.017 -0.0778,0.0209 0,0.0806 -0.59836,0.27961 -0.84061,0.27961 -0.22649,0 -0.56272,-0.32507 -0.66561,-0.64351 -0.0689,-0.21317 -0.054,-0.31126 0.0794,-0.52184 0.18925,-0.29889 0.54699,-0.55849 0.66723,-0.48417 0.0453,0.028 0.0823,0.0105 0.0823,-0.0388 0,-0.0493 0.0356,-0.0897 0.0791,-0.0897 0.0435,0 0.18642,-0.0432 0.3175,-0.0961 0.13109,-0.0529 0.3336,-0.10776 0.45002,-0.12203 0.91989,-0.11275 1.35466,-0.23733 1.35466,-0.38814 0,-0.0391 0.0872,-0.0711 0.19377,-0.0711 0.10657,0 0.34263,-0.0759 0.52457,-0.16866 0.18195,-0.0928 0.41716,-0.18022 0.5227,-0.19435 0.10554,-0.0141 0.21874,-0.0525 0.25154,-0.0853 0.0328,-0.0328 0.18787,-0.0597 0.34459,-0.0597 0.15672,0 0.41485,-0.0543 0.57362,-0.12062 0.21411,-0.0895 0.29737,-0.0949 0.3223,-0.0212 0.0185,0.0547 0.0985,-0.0255 0.17773,-0.1782 0.0793,-0.15271 0.12125,-0.31463 0.0933,-0.35983 -0.0279,-0.0452 -0.02,-0.0823 0.0177,-0.0825 0.0377,-1.7e-4 0.1392,-0.18115 0.22562,-0.40216 0.0864,-0.22102 0.20972,-0.5208 0.274,-0.66618 0.43283,-0.97896 1.12093,-2.78062 1.08449,-2.83957 -0.0242,-0.0391 -0.008,-0.0711 0.0362,-0.0711 0.0441,0 0.20302,-0.31433 0.35321,-0.6985 0.15019,-0.38418 0.34508,-0.86024 0.43309,-1.05792 0.47166,-1.05939 1.34162,-3.34503 1.29927,-3.41356 -0.027,-0.0437 -0.0146,-0.0794 0.0275,-0.0794 0.0421,0 0.23993,-0.42862 0.43966,-0.9525 0.19973,-0.52387 0.43886,-1.12383 0.53141,-1.33323 0.0925,-0.2094 0.17317,-0.46655 0.17917,-0.57144 0.006,-0.10489 0.0436,-0.19073 0.0835,-0.19077 0.0399,-3e-5 0.0499,-0.0592 0.0221,-0.13145 -0.0327,-0.0852 -0.0163,-0.11031 0.0466,-0.0714 0.066,0.0408 0.0817,0.002 0.0493,-0.12272 -0.0263,-0.10048 -0.02,-0.16552 0.014,-0.14454 0.13754,0.085 1.29658,-3.44996 1.32154,-4.03057 0.0113,-0.26345 0.0461,-0.52027 0.0773,-0.57072 0.0312,-0.0504 0.20097,-0.0861 0.37732,-0.0792 0.17636,0.007 0.36306,-0.0136 0.41488,-0.0457 0.0518,-0.032 0.17221,0.009 0.26751,0.0901 0.20807,0.17815 0.23746,0.79629 0.0585,1.2297 -0.30535,0.73939 -1.15273,3.47315 -1.102,3.55524 0.0327,0.0528 0.0192,0.0695 -0.0311,0.0385 -0.0777,-0.048 -0.21537,0.24898 -0.22905,0.49433 -0.003,0.0466 -0.037,0.10826 -0.0765,0.13711 -0.0395,0.0288 -0.0776,0.14946 -0.0847,0.26804 -0.007,0.11859 -0.029,0.19951 -0.0487,0.17983 -0.0284,-0.0283 -1.12653,2.63206 -1.2264,2.97102 -0.0137,0.0466 -0.0844,0.21764 -0.15695,0.38016 -0.0726,0.16252 -0.11412,0.32445 -0.0922,0.35983 0.0219,0.0354 -0.005,0.0643 -0.0598,0.0643 -0.0579,0 -0.081,0.0709 -0.0552,0.16945 0.0244,0.0932 0.0162,0.15208 -0.0181,0.13085 -0.0919,-0.0568 -1.6332,3.83523 -1.56349,3.948 0.0326,0.0527 0.0232,0.0736 -0.0209,0.0463 -0.0441,-0.0273 -0.34206,0.64314 -0.66214,1.48975 -0.32008,0.84662 -0.65068,1.71875 -0.73466,1.93807 -0.084,0.21932 -0.12528,0.41538 -0.0918,0.4357 0.14082,0.0854 1.67523,0.0356 1.79118,-0.0581 0.0815,-0.0659 0.10365,-0.0674 0.0661,-0.005 -0.0392,0.0654 0.19628,0.11181 0.76691,0.15115 0.45289,0.0312 1.3824,0.11357 2.06559,0.183 0.68319,0.0694 1.27374,0.11964 1.31233,0.11158 0.0386,-0.008 0.22474,0.0137 0.41365,0.0483 l 0.34348,0.063 -0.0361,0.52096 c -0.0199,0.28653 -0.0427,0.5289 -0.0507,0.5386 -0.008,0.01 -0.50826,-0.0226 -1.11169,-0.0718 -1.10164,-0.0898 -5.54415,-0.0461 -5.97832,0.0588 -0.18125,0.0438 -0.26055,0.15311 -0.41164,0.56748 -0.10292,0.28227 -0.19616,0.55477 -0.2072,0.60555 -0.011,0.0508 -0.045,0.14947 -0.0755,0.21932 -0.1236,0.28315 -0.8012,2.42843 -0.82912,2.62502 -0.0165,0.11622 -0.0536,0.23037 -0.0823,0.25365 -0.0416,0.0337 -0.30477,0.88525 -0.54939,1.778 -0.48936,1.78593 -0.95793,3.72649 -0.93469,3.87094 0.0166,0.10336 0.004,0.17175 -0.0279,0.15197 -0.1254,-0.0775 -0.71341,3.43274 -0.81348,4.85622 -0.0209,0.2967 -0.0583,0.57247 -0.0833,0.61283 -0.0249,0.0404 -0.0462,0.84535 -0.0472,1.78887 -0.001,1.26388 0.0341,1.88246 0.1345,2.34971 0.29685,1.38095 0.83653,2.06991 1.75097,2.2353 0.58303,0.10545 2.68735,-0.36273 3.04245,-0.67691 0.22359,-0.19783 0.49524,-0.14541 0.59374,0.11457 0.0485,0.12806 0.16851,0.31856 0.26666,0.42333 0.0981,0.10478 0.13371,0.1905 0.079,0.1905 -0.0547,0 -0.0994,0.0488 -0.0994,0.10844 0,0.0596 -0.11897,0.15334 -0.26438,0.20823 -0.17976,0.0678 -0.24889,0.14016 -0.21598,0.22592 0.0348,0.0908 0.008,0.1117 -0.0954,0.0746 -0.0791,-0.0283 -0.11758,-0.0223 -0.0855,0.0133 0.0895,0.0993 -0.1201,0.27988 -0.2772,0.2388 -0.0799,-0.0209 -0.21236,0.0567 -0.31102,0.18214 -0.0945,0.12019 -0.24261,0.21877 -0.32904,0.21908 -0.0864,3.4e-4 -0.27145,0.0763 -0.41115,0.16878 -0.1397,0.0925 -0.32067,0.16847 -0.40216,0.16877 -0.0815,3.4e-4 -0.14875,0.0482 -0.14947,0.10639 -0.001,0.0822 -0.0159,0.0829 -0.0667,0.003 -0.051,-0.0802 -0.11294,-0.0783 -0.28054,0.009 -0.11832,0.0614 -0.33157,0.0945 -0.47388,0.0736 -0.14233,-0.0209 -0.33187,0.001 -0.42122,0.049 -0.10041,0.0537 -0.20922,0.0574 -0.28489,0.009 z m -62.056106,-0.15561 c 0,-0.0571 -0.03766,-0.0805 -0.0837,-0.052 -0.04918,0.0304 -0.06144,-0.006 -0.02972,-0.0889 0.05012,-0.1306 0.05969,-0.13046 0.133791,0.002 0.0439,0.0784 0.05727,0.16516 0.02972,0.19271 -0.02755,0.0276 -0.05009,0.003 -0.05009,-0.0537 z m -27.939999,-0.77111 c 0.06985,-0.0451 0.1651,-0.0821 0.211667,-0.0821 0.04657,0 0.02752,0.0369 -0.04233,0.0821 -0.06985,0.0451 -0.1651,0.0821 -0.211666,0.0821 -0.04657,0 -0.02752,-0.0369 0.04233,-0.0821 z m 32.427333,0.005 c 0,-0.0438 0.03766,-0.10295 0.0837,-0.1314 0.04799,-0.0297 0.06219,0.004 0.03328,0.0797 -0.05629,0.14668 -0.116972,0.17351 -0.116972,0.0517 z m -27.093333,-0.85167 c 0,-0.0466 0.04035,-0.0847 0.08966,-0.0847 0.04931,0 0.06612,0.0381 0.03734,0.0847 -0.02878,0.0466 -0.06913,0.0847 -0.08966,0.0847 -0.02053,0 -0.03734,-0.0381 -0.03734,-0.0847 z m 9.398,-3.72533 c -0.07631,-0.0493 -0.08675,-0.0826 -0.02616,-0.0834 0.05546,-6.8e-4 0.124384,0.0368 0.153164,0.0834 0.06496,0.10512 0.03565,0.10512 -0.127,0 z m -0.0108,-0.99483 c -0.105315,-0.13429 -0.10232,-0.13728 0.03197,-0.032 0.141034,0.11061 0.185884,0.18013 0.1162,0.18013 -0.01758,0 -0.08426,-0.0667 -0.148166,-0.14816 z m 12.372133,-1.9158 c 0,-0.0176 0.06668,-0.0843 0.148166,-0.14817 0.134287,-0.10531 0.137281,-0.10232 0.03197,0.032 -0.110606,0.14103 -0.180133,0.18588 -0.180133,0.1162 z m 92.191192,-2.74087 c -0.10531,-0.13429 -0.10232,-0.13728 0.032,-0.032 0.0815,0.0639 0.14817,0.13059 0.14817,0.14817 0,0.0697 -0.0695,0.0248 -0.18014,-0.1162 z m -48.271771,-4.68834 c 0.05743,-0.0579 0.12575,-0.0839 0.151818,-0.0578 0.02607,0.0261 -0.02092,0.0734 -0.104422,0.10521 -0.120667,0.0459 -0.130392,0.0362 -0.0474,-0.0474 z m 76.222581,-1.51349 c -0.0763,-0.0493 -0.0868,-0.0826 -0.0262,-0.0834 0.0555,-6.8e-4 0.12439,0.0368 0.15317,0.0834 0.065,0.10511 0.0357,0.10511 -0.127,0 z M 28.968102,160.93461 c -0.02878,-0.0466 -0.01198,-0.0847 0.03734,-0.0847 0.04931,0 0.08966,0.0381 0.08966,0.0847 0,0.0466 -0.0168,0.0847 -0.03734,0.0847 -0.02053,0 -0.06088,-0.0381 -0.08966,-0.0847 z m 32.046332,-2.9953 c 0,-0.0176 0.06667,-0.0843 0.148167,-0.14817 0.134286,-0.10531 0.137281,-0.10232 0.03197,0.032 -0.110606,0.14103 -0.180134,0.18588 -0.180134,0.1162 z m 8.847667,-0.8307 -0.169334,-0.17527 0.1905,0.0986 c 0.104775,0.0542 0.1905,0.13537 0.1905,0.1803 0,0.1081 -0.01345,0.10152 -0.211666,-0.10365 z m 104.413749,-0.67184 c 0.0574,-0.0579 0.12576,-0.0839 0.15183,-0.0578 0.0261,0.0261 -0.0209,0.0734 -0.10443,0.10521 -0.12067,0.0459 -0.13039,0.0362 -0.0474,-0.0474 z m -124.634237,-5.1252 c -0.0641,-0.0641 0.09616,-0.28296 0.207188,-0.28296 0.04086,0 0.0743,0.0762 0.0743,0.16933 0,0.1627 -0.165576,0.22954 -0.281488,0.11363 z m 44.505709,-14.9689 c 0,-0.0678 0.03237,-0.10327 0.07194,-0.0788 0.03957,0.0245 0.05002,0.0799 0.02323,0.12328 -0.06846,0.11077 -0.09516,0.0983 -0.09516,-0.0445 z M 36.715101,124.78194 c -0.07631,-0.0493 -0.08675,-0.0826 -0.02616,-0.0834 0.05546,-7.1e-4 0.124383,0.0368 0.153163,0.0834 0.06497,0.10512 0.03565,0.10512 -0.127,0 z"
       id="path826"
       inkscape:connector-curvature="0" />
  </g>
</svg>
