<?xml version="1.0" encoding="UTF-8" standalone="no"?>
<!-- Created with Inkscape (http://www.inkscape.org/) -->

<svg
   xmlns:dc="http://purl.org/dc/elements/1.1/"
   xmlns:cc="http://creativecommons.org/ns#"
   xmlns:rdf="http://www.w3.org/1999/02/22-rdf-syntax-ns#"
   xmlns:svg="http://www.w3.org/2000/svg"
   xmlns="http://www.w3.org/2000/svg"
   xmlns:sodipodi="http://sodipodi.sourceforge.net/DTD/sodipodi-0.dtd"
   xmlns:inkscape="http://www.inkscape.org/namespaces/inkscape"
   width="180.5294mm"
   height="193.21249mm"
   viewBox="0 0 180.5294 193.21249"
   version="1.1"
   id="svg8"
   inkscape:version="0.92.4 (5da689c313, 2019-01-14)"
   sodipodi:docname="oppogagamstyle.svg">
  <defs
     id="defs2" />
  <sodipodi:namedview
     id="base"
     pagecolor="#ffffff"
     bordercolor="#666666"
     borderopacity="1.0"
     inkscape:pageopacity="0.0"
     inkscape:pageshadow="2"
     inkscape:zoom="0.35"
     inkscape:cx="354.90231"
     inkscape:cy="363.56762"
     inkscape:document-units="mm"
     inkscape:current-layer="layer1"
     showgrid="false"
     inkscape:window-width="1920"
     inkscape:window-height="1049"
     inkscape:window-x="0"
     inkscape:window-y="338"
     inkscape:window-maximized="1" />
  <metadata
     id="metadata5">
    <rdf:RDF>
      <cc:Work
         rdf:about="">
        <dc:format>image/svg+xml</dc:format>
        <dc:type
           rdf:resource="http://purl.org/dc/dcmitype/StillImage" />
        <dc:title></dc:title>
      </cc:Work>
    </rdf:RDF>
  </metadata>
  <g
     inkscape:label="Layer 1"
     inkscape:groupmode="layer"
     id="layer1"
     transform="translate(-13.444002,-51.814772)">
    <path
       style="fill:#000000;stroke-width:0.26458332"
       d="m 123.35426,244.61204 c -2.65967,-1.38681 -3.48943,-3.04462 -3.22364,-6.44066 0.24027,-3.06996 1.38414,-5.99747 3.39643,-8.69251 0.57255,-0.76681 0.96883,-1.51095 0.88064,-1.65365 -0.20331,-0.32896 -6.94202,-0.33295 -10.88799,-0.006 -1.62451,0.13442 -6.44654,0.38017 -10.71562,0.54612 -13.249075,0.515 -20.863595,0.95187 -21.123665,1.21193 -0.13731,0.13731 -0.48506,1.87619 -0.77278,3.86418 -0.37914,2.61968 -0.715,3.99314 -1.22024,4.99019 -1.26827,2.50282 -3.90052,4.84726 -6.25268,5.569 -0.48521,0.14888 -2.2351,0.37906 -3.88865,0.51151 -3.84579,0.30805 -5.16767,0.0517 -6.25816,-1.21353 l -0.79795,-0.92584 -1.27993,0.43612 c -2.46888,0.84123 -5.49372,0.005 -6.96457,-1.92534 -1.28511,-1.6866 -0.87015,-4.22406 1.11639,-6.82656 0.52525,-0.68812 0.89532,-1.3108 0.82238,-1.38374 -0.0729,-0.0729 -2.37303,-0.15823 -5.11132,-0.18953 -3.92953,-0.0449 -5.27959,-0.15547 -6.40645,-0.52458 -7.83068,-2.56496 -10.05112,-6.9112 -12.05744,-23.60101 -0.8328,-6.92773 -1.27569,-8.67616 -3.32189,-13.11425 -0.89481,-1.9408 -2.08332,-4.65981 -2.64112,-6.04226 -0.55781,-1.38245 -1.73609,-4.03382 -2.61841,-5.89195 -0.88232,-1.85812 -1.83098,-4.06077 -2.10814,-4.89479 -0.9302,-2.79909 -2.08759,-5.4639 -3.72271,-8.57122 -1.98439,-3.77107 -2.91168,-6.264 -3.87133,-10.40767 -0.6635,-2.86491 -0.74645,-3.77677 -0.84934,-9.33658 -0.18809,-10.16354 0.42601,-15.45406 2.50955,-21.61966 1.79838,-5.32176 6.03237,-12.95375 10.04308,-18.10318 1.06784,-1.37102 1.93785,-2.62117 1.93335,-2.77812 -0.005,-0.15696 -0.55463,-0.69724 -1.22251,-1.20064 -1.89378,-1.4274 -4.51628,-4.44354 -6.21561,-7.148586 -3.57331,-5.68812 -5.02839,-14.7408 -3.33939,-20.77574 0.36655,-1.30968 1.1034,-3.988589 1.63746,-5.953119 0.53405,-1.96453 1.31303,-4.25634 1.73104,-5.0929 0.94116,-1.88349 4.90809,-7.85783 6.2698,-9.44254 1.64493,-1.91431 5.8795,-5.27863 6.88039,-5.4664 1.16698,-0.21893 2.33856,0.28578 3.05831,1.31751 0.31653,0.45373 2.11478,2.4323 3.99613,4.39683 7.84562,8.19254 16.69229,19.738289 18.07917,23.595079 0.26533,0.73785 0.61885,1.39391 0.7856,1.45789 0.16675,0.064 1.30618,-0.12187 2.53208,-0.41302 6.19803,-1.47203 11.60967,-1.88222 22.2381,-1.68559 7.57748,0.14018 7.34354,0.20004 6.27778,-1.60628 -0.8698,-1.4742 -2.04902,-4.972519 -2.52517,-7.491219 -0.54161,-2.865 -0.38086,-6.95918 0.50982,-12.98488 0.67648,-4.5766 0.94292,-5.10531 2.57276,-5.10531 1.39679,0 2.46345,1.1077 4.20388,4.36562 1.98172,3.70959 3.34974,5.72113 7.099825,10.43957 2.85411,3.59111 4.57646,6.03893 7.64097,10.859389 0.53195,0.83676 0.91236,1.17101 1.27994,1.12464 2.26724,-0.28602 10.89481,-0.6269 13.35531,-0.52768 2.57341,0.10378 3.37729,0.24905 5.21206,0.94188 2.12502,0.80243 2.28992,0.82225 8.06979,0.96964 9.40352,0.2398 11.57173,0.36356 14.09731,0.80466 2.22962,0.38941 2.39674,0.38668 2.71198,-0.0444 0.18477,-0.25268 0.33594,-0.62492 0.33594,-0.8272 0,-0.20228 0.64222,-1.99523 1.42714,-3.98433 0.78493,-1.989099 2.46619,-6.831229 3.73613,-10.760299 2.39704,-7.41617 3.91575,-10.98792 5.61505,-13.20562 2.4349,-3.17773 3.72056,-3.14254 8.93794,0.24461 2.77914,1.80424 10.72633,9.57948 12.41396,12.14538 2.60404,3.95921 5.75369,12.835669 6.27567,17.686319 0.44663,4.15042 0.44285,12.61845 -0.007,14.59572 -0.19606,0.86268 -1.2369,3.362986 -2.31299,5.556246 -1.80853,3.68611 -2.60883,4.82244 -3.93455,5.58662 -0.44939,0.25904 -0.42985,0.3644 0.31882,1.71979 3.24305,5.8712 5.11872,14.63651 4.72515,22.08135 -0.0846,1.60073 -0.279,5.29167 -0.43196,8.20208 -0.15295,2.91042 -0.45102,6.95854 -0.66237,8.99583 -1.16633,11.2429 -1.25731,12.97511 -1.29233,24.60625 -0.0385,12.7803 -0.0558,12.97567 -1.89313,21.33584 -2.39069,10.87815 -4.31666,15.19688 -8.91157,19.98304 -2.46146,2.56392 -4.97175,4.24912 -9.8153,6.58917 -4.00855,1.93664 -6.7805,2.89026 -9.95581,3.42504 -2.64455,0.44539 -7.87888,0.91382 -10.31875,0.92344 -2.41665,0.01 -2.47596,0.0729 -2.09824,2.24196 0.47404,2.72212 0.21308,4.76051 -0.9078,7.09091 -1.32409,2.75289 -2.80662,4.52296 -4.949,5.90886 -2.29613,1.48535 -3.62061,1.95526 -5.50583,1.95339 -2.10409,-0.002 -3.24756,-0.38748 -4.80697,-1.62011 l -1.35917,-1.07437 -1.06498,0.85585 c -0.999,0.80282 -3.25075,1.84212 -3.98324,1.83848 -0.18034,-8e-4 -0.6843,-0.18747 -1.11991,-0.4146 z m -51.314865,-5.4107 c 1.23404,-0.46919 2.46209,-1.5317 2.99226,-2.58892 0.34264,-0.68328 0.53624,-1.83166 0.64418,-3.82113 l 0.15431,-2.84427 h -0.78116 c -0.65514,0 -2.85424,0.33274 -9.70148,1.4679 -0.55434,0.0919 -1.73021,0.87761 -3.3438,2.2343 -3.38052,2.84233 -4.5379,4.76446 -2.86884,4.76446 0.53783,0 1.09308,-0.36384 2.05052,-1.34367 2.15267,-2.20301 3.46299,-2.6108 4.77178,-1.48503 0.56737,0.48804 0.73397,0.90039 0.82843,2.05052 0.1875,2.28303 0.0872,2.19926 2.41726,2.01957 1.13365,-0.0874 2.41009,-0.2916 2.83654,-0.45373 z m 65.778725,-0.75983 c 2.02796,-1.28609 3.66803,-3.94264 3.6451,-5.90426 -0.007,-0.62426 -0.27518,-1.90893 -0.59531,-2.85482 -0.49051,-1.4493 -0.67568,-1.71682 -1.17736,-1.70089 -0.32742,0.0104 -2.60421,0.0402 -5.05953,0.0662 l -4.46421,0.0472 -0.6552,1.25678 c -0.36035,0.69122 -1.2019,2.28972 -1.87011,3.55222 -1.14441,2.16225 -1.75641,4.02947 -1.42825,4.35763 0.0804,0.0804 0.9133,-0.40133 1.85097,-1.07043 2.36721,-1.68921 3.31573,-2.05288 4.50084,-1.72565 1.23203,0.34018 1.9647,1.29947 2.17088,2.84235 0.091,0.68098 0.21237,1.38697 0.2697,1.56887 0.18068,0.57329 1.55844,0.3601 2.81248,-0.43519 z M 60.646275,225.83803 c 3.05594,-0.34761 7.63984,-0.99416 10.18646,-1.43678 5.03057,-0.87435 10.47686,-1.25815 28.31041,-1.99503 5.311515,-0.21947 11.502765,-0.53341 13.758345,-0.69765 2.663,-0.1939 6.606,-0.23074 11.24479,-0.10506 3.92906,0.10645 7.62,0.20564 8.20208,0.22042 0.58209,0.0148 4.27302,-0.0631 8.20209,-0.17307 7.99143,-0.22367 15.1072,-0.74765 18.19293,-1.33966 2.53186,-0.48574 6.08845,-1.87251 9.62981,-3.75483 7.89083,-4.19416 10.1383,-7.84175 13.02477,-21.13896 1.69106,-7.79024 1.73849,-8.33865 1.65895,-19.18081 -0.075,-10.22094 0.14047,-14.68568 1.27047,-26.32604 1.17486,-12.10252 1.31042,-20.69464 0.40205,-25.48316 -1.16211,-6.12616 -4.75911,-13.2163 -9.3182,-18.36733 -1.8441,-2.08354 -5.95172,-5.84911 -8.48837,-7.781536 -2.33505,-1.77885 -8.05962,-5.27301 -11.00559,-6.7176 -3.28255,-1.60963 -4.75625,-1.82907 -14.1762,-2.11088 -10.36241,-0.31001 -11.23357,-0.40183 -13.93575,-1.4688 -1.40941,-0.55651 -2.06055,-0.64387 -4.7625,-0.63898 -1.72143,0.003 -4.85628,0.11738 -6.96633,0.25393 -4.37544,0.28314 -5.24606,0.0696 -6.21771,-1.52482 -0.29104,-0.47759 -0.79039,-1.2515 -1.10967,-1.71979 -0.31927,-0.46829 -1.67315,-2.45096 -3.00861,-4.40593 -1.33546,-1.95497 -4.11784,-5.648059 -6.183055,-8.206869 -2.06522,-2.55881 -4.38094,-5.58007 -5.14605,-6.71392 -0.76512,-1.13385 -1.53152,-2.01494 -1.70312,-1.95799 -0.45096,0.14967 -0.75609,3.12056 -0.60404,5.88118 0.16397,2.97724 0.67981,4.93627 2.05522,7.805209 0.88728,1.85077 1.47077,2.6308 3.29552,4.40559 1.97994,1.92573 2.21734,2.25986 2.21734,3.12088 0,0.671 -0.19751,1.16176 -0.64943,1.61368 l -0.64943,0.64944 -10.92609,0.002 c -15.15645,0.003 -19.24234,0.35568 -26.37089,2.27482 -3.43328,0.92431 -8.3705,2.86441 -9.9552,3.91194 -1.21687,0.80437 -4.58559,3.91327 -11.78481,10.875826 -4.78768,4.6303 -10.03126,11.18929 -13.18459,16.49211 -2.44699,4.11499 -3.67613,6.75075 -5.01803,10.76068 -1.52326,4.55184 -1.87033,7.08793 -2.06186,15.06606 -0.15052,6.26977 -0.11524,7.18199 0.38946,10.06936 0.73843,4.22449 1.59486,6.87667 3.24858,10.06017 2.69945,5.19656 3.37731,6.64554 4.32944,9.25441 0.5311,1.45521 1.77604,4.37224 2.76654,6.48229 0.99051,2.11005 2.12857,4.6699 2.52902,5.68854 0.40046,1.01865 1.29348,2.98318 1.98449,4.36563 2.40761,4.81664 3.37287,8.31877 4.08379,14.81666 0.77982,7.12761 1.88157,12.72739 3.03228,15.41187 1.51179,3.52686 4.69977,4.83736 11.00861,4.52535 1.4552,-0.072 5.14614,-0.41526 8.20208,-0.76287 z m 23.06769,-33.36269 c -2.91186,-0.62476 -4.58541,-1.55698 -6.7972,-3.78625 -2.17668,-2.19388 -3.65386,-4.74972 -4.36195,-7.54714 -0.83018,-3.27969 -0.31889,-8.35662 1.25339,-12.44597 0.68105,-1.77134 1.09825,-2.3999 2.55719,-3.85272 3.63153,-3.61627 7.92532,-5.05559 14.97254,-5.01894 3.39219,0.0177 4.56587,0.2451 5.90435,1.14422 0.53615,0.36016 1.86779,0.91634 2.959205,1.23597 1.0914,0.31962 2.91827,1.12515 4.0597,1.79005 4.87279,2.83849 6.47658,4.57429 7.57856,8.20232 1.21226,3.99111 2.01245,5.67557 3.1417,6.61359 1.28004,1.06328 1.62102,2.23858 0.99864,3.44214 -0.36474,0.70532 -0.84043,1.00766 -2.34024,1.48739 -0.24875,0.0796 -0.76465,0.76112 -1.14646,1.51458 -1.8921,3.73388 -5.85174,6.04322 -12.23206,7.13399 -3.832835,0.65525 -13.657655,0.70677 -16.547365,0.0868 z m 15.7481,-5.76345 c 2.910725,-0.5304 4.947475,-1.28975 6.370365,-2.37502 2.09634,-1.59893 2.12167,-1.58822 -9.124235,-3.85614 -7.92701,-1.5986 -12.96233,-2.34645 -16.48275,-2.44801 l -2.64584,-0.0763 0.057,0.98164 c 0.0784,1.35024 1.46253,3.98632 2.89993,5.52302 1.41855,1.51654 2.87922,2.27888 5.00749,2.61344 2.31362,0.36371 11.20318,0.13211 13.91803,-0.3626 z m 7.681655,-9.8328 c 0.0832,-0.0832 -0.20617,-1.21705 -0.64305,-2.51968 -0.87124,-2.59774 -1.01582,-2.75868 -4.22754,-4.70589 -2.807965,-1.70242 -4.419415,-2.12416 -9.153985,-2.39575 -2.28935,-0.13132 -4.46011,-0.3538 -4.82391,-0.49439 -0.79202,-0.30608 -1.45824,-1.02361 -1.70633,-1.83771 -0.25678,-0.84261 -0.96833,-0.75759 -3.30102,0.39442 -2.69854,1.33269 -4.3404,2.94913 -4.88867,4.81297 -0.2325,0.7904 -0.42273,1.71313 -0.42273,2.05052 0,0.58817 0.0845,0.61372 2.05052,0.62027 1.12778,0.004 3.24114,0.12084 4.69635,0.2602 3.04326,0.29144 14.67156,2.37069 18.388545,3.28805 2.58227,0.63731 3.76669,0.79212 4.03182,0.52699 z m 24.2786,-12.17649 c -12.21138,-1.04664 -18.85809,-3.54628 -24.36754,-9.16394 -2.87598,-2.93246 -5.48112,-7.09586 -6.74999,-10.78747 -0.705915,-2.05377 -0.645645,-6.75254 0.12332,-9.61404 1.76628,-6.57272 6.38031,-11.84283 14.98692,-17.11795 5.42213,-3.32331 12.29836,-5.46282 16.71859,-5.20192 12.60249,0.74384 14.79462,1.08734 19.609,3.07263 6.74759,2.78248 12.07223,8.39131 13.97408,14.7199 0.62197,2.06964 0.61684,7.09626 -0.0102,9.99649 -0.95932,4.43713 -3.5934,10.63167 -5.76071,13.54735 -3.29846,4.43742 -10.37339,8.43039 -17.81012,10.05173 -1.81251,0.39517 -8.35915,0.699 -10.71336,0.49722 z m 10.98021,-6.37325 c 6.53892,-1.87168 11.57342,-5.12565 13.79854,-8.91846 1.14786,-1.95659 3.0484,-6.53625 3.69056,-8.89304 0.3207,-1.17699 0.47396,-2.72799 0.48558,-4.91418 l 0.017,-3.19438 -1.15871,-2.33893 c -2.62259,-5.29388 -7.98756,-8.95485 -15.10009,-10.30408 -3.00915,-0.57083 -7.73743,-0.52126 -12.65817,0.13268 -3.45981,0.4598 -4.39778,0.49973 -5.83978,0.24862 -0.94486,-0.16454 -1.94226,-0.41922 -2.21644,-0.56596 -0.6335,-0.33904 -2.70093,0.70081 -6.41848,3.22828 -7.62062,5.18109 -10.83575,9.42856 -11.78938,15.57481 -0.48596,3.13212 0.29594,5.78453 2.82799,9.59327 5.30976,7.98703 13.27179,11.16071 27.48223,10.95446 4.08026,-0.0592 5.37591,-0.17281 6.87916,-0.60309 z m -13.02354,-14.08054 c -1.3226,-0.96292 -2.30679,-2.70047 -2.06815,-3.65127 0.25231,-1.00529 1.35195,-2.60853 2.20653,-3.21704 0.42357,-0.30161 1.29876,-0.68977 1.94485,-0.86258 1.61992,-0.43326 2.5404,0.0292 3.36419,1.69019 1.63321,3.29303 0.15366,6.26518 -3.3478,6.72511 -0.79835,0.10486 -1.19159,-0.0233 -2.09962,-0.68441 z m -82.828805,12.51654 c -2.76416,-0.46374 -6.3602,-1.80797 -8.31538,-3.10835 -0.83016,-0.55213 -2.47089,-2.01964 -3.64606,-3.26113 -7.04993,-7.44776 -7.44227,-18.66017 -0.9002,-25.7262 4.03455,-4.35769 9.52222,-7.05699 19.33632,-9.51123 10.80369,-2.7017 17.24144,-2.43626 24.29016,1.00154 3.09095,1.50752 5.48206,3.25118 7.60821,5.54811 4.42325,4.77856 6.27002,9.65632 5.51017,14.55368 -0.70248,4.52758 -2.37725,7.69988 -5.95884,11.28707 -5.47334,5.48188 -12.1565,8.41922 -21.31475,9.36815 -3.69538,0.3829 -13.98337,0.28897 -16.60963,-0.15164 z m 15.42169,-4.99554 c 6.92378,-0.77362 10.48456,-1.9145 14.7804,-4.73569 2.82165,-1.85304 4.41969,-3.30124 5.84158,-5.29384 1.84545,-2.58617 2.3555,-4.09792 2.37632,-7.04326 0.0169,-2.3927 -0.0309,-2.61307 -0.99379,-4.58365 -1.59137,-3.2567 -5.16919,-6.74504 -8.82407,-8.6034 -3.51141,-1.7854 -8.39509,-2.62625 -12.53174,-2.15764 -1.29213,0.14637 -3.75323,0.70389 -5.46911,1.23893 -5.07928,1.58379 -6.51742,1.46227 -7.38927,-0.62435 -0.468,-1.12008 -0.70927,-1.09326 -3.99605,0.44426 -7.04367,3.29495 -11.25631,7.73365 -12.25728,12.91503 -0.41802,2.16378 -0.17678,5.57296 0.54622,7.71915 1.50913,4.47979 5.67912,8.59968 10.18277,10.06042 3.22189,1.04502 11.53758,1.35639 17.73402,0.66404 z m -8.99852,-11.22348 c -0.76852,-0.34157 -1.63887,-1.35505 -2.0725,-2.41334 -0.78632,-1.91905 0.92247,-4.7821 3.16466,-5.30231 1.59782,-0.37072 4.6888,-0.29526 5.73025,0.13989 1.92302,0.80348 2.50321,2.42967 1.54012,4.31668 -0.63027,1.2349 -1.12089,1.66534 -2.93857,2.57812 -1.54747,0.77708 -4.40149,1.1354 -5.42396,0.68096 z M 185.76388,101.29338 c 1.60896,-3.174526 1.80266,-3.730696 2.05023,-5.886976 0.34351,-2.9918 0.0656,-11.30079 -0.45581,-13.62604 -0.87206,-3.88927 -3.23818,-10.033519 -4.68693,-12.170839 -2.19098,-3.23231 -11.8399,-11.99144 -12.6548,-11.4878 -0.50079,0.30951 -2.30492,4.3144 -3.26801,7.25447 -1.44858,4.42215 -4.0351,11.233549 -5.04489,13.285319 -0.48072,0.97677 -1.4185,2.61759 -2.08394,3.64627 -0.66545,1.02868 -1.20768,2.01544 -1.20496,2.1928 0.003,0.17737 1.5129,1.15592 3.35595,2.17457 4.48059,2.47639 9.48448,5.81769 11.95286,7.9814 3.13574,2.74869 7.07994,6.669186 8.54021,8.488906 0.72985,0.9095 1.41616,1.65364 1.52513,1.65364 0.10897,0 0.9977,-1.57757 1.97496,-3.50572 z M 37.193535,97.980944 c 10.85976,-10.35243 10.66184,-10.19732 15.44909,-12.10785 1.41883,-0.56624 2.57969,-1.12979 2.57969,-1.25232 0,-0.42948 -5.18739,-7.44835 -8.04265,-10.882219 -5.72972,-6.89086 -12.57871,-14.18319 -13.32091,-14.18319 -0.897,0 -6.0871,6.76689 -7.91431,10.31875 -0.79128,1.53812 -3.28357,11.011479 -3.46463,13.169239 -0.19206,2.28881 0.35818,6.08462 1.29066,8.90364 1.17185,3.54263 3.75988,7.17027 6.84117,9.589226 0.80279,0.63024 1.50246,1.14596 1.5548,1.14605 0.0524,9e-5 2.31454,-2.11551 5.02709,-4.701326 z"
       id="path3726"
       inkscape:connector-curvature="0" />
  </g>
</svg>
